%TF.GenerationSoftware,KiCad,Pcbnew,8.0.2*%
%TF.CreationDate,2024-06-16T11:23:50+08:00*%
%TF.ProjectId,transmitter,7472616e-736d-4697-9474-65722e6b6963,rev?*%
%TF.SameCoordinates,Original*%
%TF.FileFunction,Legend,Top*%
%TF.FilePolarity,Positive*%
%FSLAX46Y46*%
G04 Gerber Fmt 4.6, Leading zero omitted, Abs format (unit mm)*
G04 Created by KiCad (PCBNEW 8.0.2) date 2024-06-16 11:23:50*
%MOMM*%
%LPD*%
G01*
G04 APERTURE LIST*
%ADD10C,0.100000*%
%ADD11C,0.150000*%
%ADD12C,0.120000*%
G04 APERTURE END LIST*
D10*
X141008646Y-96472419D02*
X141627693Y-96472419D01*
X141627693Y-96472419D02*
X141294360Y-96853371D01*
X141294360Y-96853371D02*
X141437217Y-96853371D01*
X141437217Y-96853371D02*
X141532455Y-96900990D01*
X141532455Y-96900990D02*
X141580074Y-96948609D01*
X141580074Y-96948609D02*
X141627693Y-97043847D01*
X141627693Y-97043847D02*
X141627693Y-97281942D01*
X141627693Y-97281942D02*
X141580074Y-97377180D01*
X141580074Y-97377180D02*
X141532455Y-97424800D01*
X141532455Y-97424800D02*
X141437217Y-97472419D01*
X141437217Y-97472419D02*
X141151503Y-97472419D01*
X141151503Y-97472419D02*
X141056265Y-97424800D01*
X141056265Y-97424800D02*
X141008646Y-97377180D01*
X141913408Y-96472419D02*
X142246741Y-97472419D01*
X142246741Y-97472419D02*
X142580074Y-96472419D01*
X142818170Y-96472419D02*
X143437217Y-96472419D01*
X143437217Y-96472419D02*
X143103884Y-96853371D01*
X143103884Y-96853371D02*
X143246741Y-96853371D01*
X143246741Y-96853371D02*
X143341979Y-96900990D01*
X143341979Y-96900990D02*
X143389598Y-96948609D01*
X143389598Y-96948609D02*
X143437217Y-97043847D01*
X143437217Y-97043847D02*
X143437217Y-97281942D01*
X143437217Y-97281942D02*
X143389598Y-97377180D01*
X143389598Y-97377180D02*
X143341979Y-97424800D01*
X143341979Y-97424800D02*
X143246741Y-97472419D01*
X143246741Y-97472419D02*
X142961027Y-97472419D01*
X142961027Y-97472419D02*
X142865789Y-97424800D01*
X142865789Y-97424800D02*
X142818170Y-97377180D01*
X141727693Y-104620038D02*
X141632455Y-104572419D01*
X141632455Y-104572419D02*
X141489598Y-104572419D01*
X141489598Y-104572419D02*
X141346741Y-104620038D01*
X141346741Y-104620038D02*
X141251503Y-104715276D01*
X141251503Y-104715276D02*
X141203884Y-104810514D01*
X141203884Y-104810514D02*
X141156265Y-105000990D01*
X141156265Y-105000990D02*
X141156265Y-105143847D01*
X141156265Y-105143847D02*
X141203884Y-105334323D01*
X141203884Y-105334323D02*
X141251503Y-105429561D01*
X141251503Y-105429561D02*
X141346741Y-105524800D01*
X141346741Y-105524800D02*
X141489598Y-105572419D01*
X141489598Y-105572419D02*
X141584836Y-105572419D01*
X141584836Y-105572419D02*
X141727693Y-105524800D01*
X141727693Y-105524800D02*
X141775312Y-105477180D01*
X141775312Y-105477180D02*
X141775312Y-105143847D01*
X141775312Y-105143847D02*
X141584836Y-105143847D01*
X142203884Y-105572419D02*
X142203884Y-104572419D01*
X142203884Y-104572419D02*
X142775312Y-105572419D01*
X142775312Y-105572419D02*
X142775312Y-104572419D01*
X143251503Y-105572419D02*
X143251503Y-104572419D01*
X143251503Y-104572419D02*
X143489598Y-104572419D01*
X143489598Y-104572419D02*
X143632455Y-104620038D01*
X143632455Y-104620038D02*
X143727693Y-104715276D01*
X143727693Y-104715276D02*
X143775312Y-104810514D01*
X143775312Y-104810514D02*
X143822931Y-105000990D01*
X143822931Y-105000990D02*
X143822931Y-105143847D01*
X143822931Y-105143847D02*
X143775312Y-105334323D01*
X143775312Y-105334323D02*
X143727693Y-105429561D01*
X143727693Y-105429561D02*
X143632455Y-105524800D01*
X143632455Y-105524800D02*
X143489598Y-105572419D01*
X143489598Y-105572419D02*
X143251503Y-105572419D01*
X177403884Y-116591466D02*
X178165789Y-116591466D01*
X177784836Y-116972419D02*
X177784836Y-116210514D01*
X158627693Y-70520038D02*
X158532455Y-70472419D01*
X158532455Y-70472419D02*
X158389598Y-70472419D01*
X158389598Y-70472419D02*
X158246741Y-70520038D01*
X158246741Y-70520038D02*
X158151503Y-70615276D01*
X158151503Y-70615276D02*
X158103884Y-70710514D01*
X158103884Y-70710514D02*
X158056265Y-70900990D01*
X158056265Y-70900990D02*
X158056265Y-71043847D01*
X158056265Y-71043847D02*
X158103884Y-71234323D01*
X158103884Y-71234323D02*
X158151503Y-71329561D01*
X158151503Y-71329561D02*
X158246741Y-71424800D01*
X158246741Y-71424800D02*
X158389598Y-71472419D01*
X158389598Y-71472419D02*
X158484836Y-71472419D01*
X158484836Y-71472419D02*
X158627693Y-71424800D01*
X158627693Y-71424800D02*
X158675312Y-71377180D01*
X158675312Y-71377180D02*
X158675312Y-71043847D01*
X158675312Y-71043847D02*
X158484836Y-71043847D01*
X159103884Y-71472419D02*
X159103884Y-70472419D01*
X159103884Y-70472419D02*
X159675312Y-71472419D01*
X159675312Y-71472419D02*
X159675312Y-70472419D01*
X160151503Y-71472419D02*
X160151503Y-70472419D01*
X160151503Y-70472419D02*
X160389598Y-70472419D01*
X160389598Y-70472419D02*
X160532455Y-70520038D01*
X160532455Y-70520038D02*
X160627693Y-70615276D01*
X160627693Y-70615276D02*
X160675312Y-70710514D01*
X160675312Y-70710514D02*
X160722931Y-70900990D01*
X160722931Y-70900990D02*
X160722931Y-71043847D01*
X160722931Y-71043847D02*
X160675312Y-71234323D01*
X160675312Y-71234323D02*
X160627693Y-71329561D01*
X160627693Y-71329561D02*
X160532455Y-71424800D01*
X160532455Y-71424800D02*
X160389598Y-71472419D01*
X160389598Y-71472419D02*
X160151503Y-71472419D01*
X158627693Y-76220038D02*
X158532455Y-76172419D01*
X158532455Y-76172419D02*
X158389598Y-76172419D01*
X158389598Y-76172419D02*
X158246741Y-76220038D01*
X158246741Y-76220038D02*
X158151503Y-76315276D01*
X158151503Y-76315276D02*
X158103884Y-76410514D01*
X158103884Y-76410514D02*
X158056265Y-76600990D01*
X158056265Y-76600990D02*
X158056265Y-76743847D01*
X158056265Y-76743847D02*
X158103884Y-76934323D01*
X158103884Y-76934323D02*
X158151503Y-77029561D01*
X158151503Y-77029561D02*
X158246741Y-77124800D01*
X158246741Y-77124800D02*
X158389598Y-77172419D01*
X158389598Y-77172419D02*
X158484836Y-77172419D01*
X158484836Y-77172419D02*
X158627693Y-77124800D01*
X158627693Y-77124800D02*
X158675312Y-77077180D01*
X158675312Y-77077180D02*
X158675312Y-76743847D01*
X158675312Y-76743847D02*
X158484836Y-76743847D01*
X159103884Y-77172419D02*
X159103884Y-76172419D01*
X159103884Y-76172419D02*
X159675312Y-77172419D01*
X159675312Y-77172419D02*
X159675312Y-76172419D01*
X160151503Y-77172419D02*
X160151503Y-76172419D01*
X160151503Y-76172419D02*
X160389598Y-76172419D01*
X160389598Y-76172419D02*
X160532455Y-76220038D01*
X160532455Y-76220038D02*
X160627693Y-76315276D01*
X160627693Y-76315276D02*
X160675312Y-76410514D01*
X160675312Y-76410514D02*
X160722931Y-76600990D01*
X160722931Y-76600990D02*
X160722931Y-76743847D01*
X160722931Y-76743847D02*
X160675312Y-76934323D01*
X160675312Y-76934323D02*
X160627693Y-77029561D01*
X160627693Y-77029561D02*
X160532455Y-77124800D01*
X160532455Y-77124800D02*
X160389598Y-77172419D01*
X160389598Y-77172419D02*
X160151503Y-77172419D01*
X104927693Y-129520038D02*
X104832455Y-129472419D01*
X104832455Y-129472419D02*
X104689598Y-129472419D01*
X104689598Y-129472419D02*
X104546741Y-129520038D01*
X104546741Y-129520038D02*
X104451503Y-129615276D01*
X104451503Y-129615276D02*
X104403884Y-129710514D01*
X104403884Y-129710514D02*
X104356265Y-129900990D01*
X104356265Y-129900990D02*
X104356265Y-130043847D01*
X104356265Y-130043847D02*
X104403884Y-130234323D01*
X104403884Y-130234323D02*
X104451503Y-130329561D01*
X104451503Y-130329561D02*
X104546741Y-130424800D01*
X104546741Y-130424800D02*
X104689598Y-130472419D01*
X104689598Y-130472419D02*
X104784836Y-130472419D01*
X104784836Y-130472419D02*
X104927693Y-130424800D01*
X104927693Y-130424800D02*
X104975312Y-130377180D01*
X104975312Y-130377180D02*
X104975312Y-130043847D01*
X104975312Y-130043847D02*
X104784836Y-130043847D01*
X105403884Y-130472419D02*
X105403884Y-129472419D01*
X105403884Y-129472419D02*
X105975312Y-130472419D01*
X105975312Y-130472419D02*
X105975312Y-129472419D01*
X106451503Y-130472419D02*
X106451503Y-129472419D01*
X106451503Y-129472419D02*
X106689598Y-129472419D01*
X106689598Y-129472419D02*
X106832455Y-129520038D01*
X106832455Y-129520038D02*
X106927693Y-129615276D01*
X106927693Y-129615276D02*
X106975312Y-129710514D01*
X106975312Y-129710514D02*
X107022931Y-129900990D01*
X107022931Y-129900990D02*
X107022931Y-130043847D01*
X107022931Y-130043847D02*
X106975312Y-130234323D01*
X106975312Y-130234323D02*
X106927693Y-130329561D01*
X106927693Y-130329561D02*
X106832455Y-130424800D01*
X106832455Y-130424800D02*
X106689598Y-130472419D01*
X106689598Y-130472419D02*
X106451503Y-130472419D01*
X124408646Y-111272419D02*
X125027693Y-111272419D01*
X125027693Y-111272419D02*
X124694360Y-111653371D01*
X124694360Y-111653371D02*
X124837217Y-111653371D01*
X124837217Y-111653371D02*
X124932455Y-111700990D01*
X124932455Y-111700990D02*
X124980074Y-111748609D01*
X124980074Y-111748609D02*
X125027693Y-111843847D01*
X125027693Y-111843847D02*
X125027693Y-112081942D01*
X125027693Y-112081942D02*
X124980074Y-112177180D01*
X124980074Y-112177180D02*
X124932455Y-112224800D01*
X124932455Y-112224800D02*
X124837217Y-112272419D01*
X124837217Y-112272419D02*
X124551503Y-112272419D01*
X124551503Y-112272419D02*
X124456265Y-112224800D01*
X124456265Y-112224800D02*
X124408646Y-112177180D01*
X125313408Y-111272419D02*
X125646741Y-112272419D01*
X125646741Y-112272419D02*
X125980074Y-111272419D01*
X126218170Y-111272419D02*
X126837217Y-111272419D01*
X126837217Y-111272419D02*
X126503884Y-111653371D01*
X126503884Y-111653371D02*
X126646741Y-111653371D01*
X126646741Y-111653371D02*
X126741979Y-111700990D01*
X126741979Y-111700990D02*
X126789598Y-111748609D01*
X126789598Y-111748609D02*
X126837217Y-111843847D01*
X126837217Y-111843847D02*
X126837217Y-112081942D01*
X126837217Y-112081942D02*
X126789598Y-112177180D01*
X126789598Y-112177180D02*
X126741979Y-112224800D01*
X126741979Y-112224800D02*
X126646741Y-112272419D01*
X126646741Y-112272419D02*
X126361027Y-112272419D01*
X126361027Y-112272419D02*
X126265789Y-112224800D01*
X126265789Y-112224800D02*
X126218170Y-112177180D01*
X171827693Y-109420038D02*
X171732455Y-109372419D01*
X171732455Y-109372419D02*
X171589598Y-109372419D01*
X171589598Y-109372419D02*
X171446741Y-109420038D01*
X171446741Y-109420038D02*
X171351503Y-109515276D01*
X171351503Y-109515276D02*
X171303884Y-109610514D01*
X171303884Y-109610514D02*
X171256265Y-109800990D01*
X171256265Y-109800990D02*
X171256265Y-109943847D01*
X171256265Y-109943847D02*
X171303884Y-110134323D01*
X171303884Y-110134323D02*
X171351503Y-110229561D01*
X171351503Y-110229561D02*
X171446741Y-110324800D01*
X171446741Y-110324800D02*
X171589598Y-110372419D01*
X171589598Y-110372419D02*
X171684836Y-110372419D01*
X171684836Y-110372419D02*
X171827693Y-110324800D01*
X171827693Y-110324800D02*
X171875312Y-110277180D01*
X171875312Y-110277180D02*
X171875312Y-109943847D01*
X171875312Y-109943847D02*
X171684836Y-109943847D01*
X172303884Y-110372419D02*
X172303884Y-109372419D01*
X172303884Y-109372419D02*
X172875312Y-110372419D01*
X172875312Y-110372419D02*
X172875312Y-109372419D01*
X173351503Y-110372419D02*
X173351503Y-109372419D01*
X173351503Y-109372419D02*
X173589598Y-109372419D01*
X173589598Y-109372419D02*
X173732455Y-109420038D01*
X173732455Y-109420038D02*
X173827693Y-109515276D01*
X173827693Y-109515276D02*
X173875312Y-109610514D01*
X173875312Y-109610514D02*
X173922931Y-109800990D01*
X173922931Y-109800990D02*
X173922931Y-109943847D01*
X173922931Y-109943847D02*
X173875312Y-110134323D01*
X173875312Y-110134323D02*
X173827693Y-110229561D01*
X173827693Y-110229561D02*
X173732455Y-110324800D01*
X173732455Y-110324800D02*
X173589598Y-110372419D01*
X173589598Y-110372419D02*
X173351503Y-110372419D01*
X109746741Y-111800990D02*
X109651503Y-111753371D01*
X109651503Y-111753371D02*
X109603884Y-111705752D01*
X109603884Y-111705752D02*
X109556265Y-111610514D01*
X109556265Y-111610514D02*
X109556265Y-111562895D01*
X109556265Y-111562895D02*
X109603884Y-111467657D01*
X109603884Y-111467657D02*
X109651503Y-111420038D01*
X109651503Y-111420038D02*
X109746741Y-111372419D01*
X109746741Y-111372419D02*
X109937217Y-111372419D01*
X109937217Y-111372419D02*
X110032455Y-111420038D01*
X110032455Y-111420038D02*
X110080074Y-111467657D01*
X110080074Y-111467657D02*
X110127693Y-111562895D01*
X110127693Y-111562895D02*
X110127693Y-111610514D01*
X110127693Y-111610514D02*
X110080074Y-111705752D01*
X110080074Y-111705752D02*
X110032455Y-111753371D01*
X110032455Y-111753371D02*
X109937217Y-111800990D01*
X109937217Y-111800990D02*
X109746741Y-111800990D01*
X109746741Y-111800990D02*
X109651503Y-111848609D01*
X109651503Y-111848609D02*
X109603884Y-111896228D01*
X109603884Y-111896228D02*
X109556265Y-111991466D01*
X109556265Y-111991466D02*
X109556265Y-112181942D01*
X109556265Y-112181942D02*
X109603884Y-112277180D01*
X109603884Y-112277180D02*
X109651503Y-112324800D01*
X109651503Y-112324800D02*
X109746741Y-112372419D01*
X109746741Y-112372419D02*
X109937217Y-112372419D01*
X109937217Y-112372419D02*
X110032455Y-112324800D01*
X110032455Y-112324800D02*
X110080074Y-112277180D01*
X110080074Y-112277180D02*
X110127693Y-112181942D01*
X110127693Y-112181942D02*
X110127693Y-111991466D01*
X110127693Y-111991466D02*
X110080074Y-111896228D01*
X110080074Y-111896228D02*
X110032455Y-111848609D01*
X110032455Y-111848609D02*
X109937217Y-111800990D01*
X110413408Y-111372419D02*
X110746741Y-112372419D01*
X110746741Y-112372419D02*
X111080074Y-111372419D01*
X109927693Y-114020038D02*
X109832455Y-113972419D01*
X109832455Y-113972419D02*
X109689598Y-113972419D01*
X109689598Y-113972419D02*
X109546741Y-114020038D01*
X109546741Y-114020038D02*
X109451503Y-114115276D01*
X109451503Y-114115276D02*
X109403884Y-114210514D01*
X109403884Y-114210514D02*
X109356265Y-114400990D01*
X109356265Y-114400990D02*
X109356265Y-114543847D01*
X109356265Y-114543847D02*
X109403884Y-114734323D01*
X109403884Y-114734323D02*
X109451503Y-114829561D01*
X109451503Y-114829561D02*
X109546741Y-114924800D01*
X109546741Y-114924800D02*
X109689598Y-114972419D01*
X109689598Y-114972419D02*
X109784836Y-114972419D01*
X109784836Y-114972419D02*
X109927693Y-114924800D01*
X109927693Y-114924800D02*
X109975312Y-114877180D01*
X109975312Y-114877180D02*
X109975312Y-114543847D01*
X109975312Y-114543847D02*
X109784836Y-114543847D01*
X110403884Y-114972419D02*
X110403884Y-113972419D01*
X110403884Y-113972419D02*
X110975312Y-114972419D01*
X110975312Y-114972419D02*
X110975312Y-113972419D01*
X111451503Y-114972419D02*
X111451503Y-113972419D01*
X111451503Y-113972419D02*
X111689598Y-113972419D01*
X111689598Y-113972419D02*
X111832455Y-114020038D01*
X111832455Y-114020038D02*
X111927693Y-114115276D01*
X111927693Y-114115276D02*
X111975312Y-114210514D01*
X111975312Y-114210514D02*
X112022931Y-114400990D01*
X112022931Y-114400990D02*
X112022931Y-114543847D01*
X112022931Y-114543847D02*
X111975312Y-114734323D01*
X111975312Y-114734323D02*
X111927693Y-114829561D01*
X111927693Y-114829561D02*
X111832455Y-114924800D01*
X111832455Y-114924800D02*
X111689598Y-114972419D01*
X111689598Y-114972419D02*
X111451503Y-114972419D01*
X155127693Y-68020038D02*
X155032455Y-67972419D01*
X155032455Y-67972419D02*
X154889598Y-67972419D01*
X154889598Y-67972419D02*
X154746741Y-68020038D01*
X154746741Y-68020038D02*
X154651503Y-68115276D01*
X154651503Y-68115276D02*
X154603884Y-68210514D01*
X154603884Y-68210514D02*
X154556265Y-68400990D01*
X154556265Y-68400990D02*
X154556265Y-68543847D01*
X154556265Y-68543847D02*
X154603884Y-68734323D01*
X154603884Y-68734323D02*
X154651503Y-68829561D01*
X154651503Y-68829561D02*
X154746741Y-68924800D01*
X154746741Y-68924800D02*
X154889598Y-68972419D01*
X154889598Y-68972419D02*
X154984836Y-68972419D01*
X154984836Y-68972419D02*
X155127693Y-68924800D01*
X155127693Y-68924800D02*
X155175312Y-68877180D01*
X155175312Y-68877180D02*
X155175312Y-68543847D01*
X155175312Y-68543847D02*
X154984836Y-68543847D01*
X155603884Y-68972419D02*
X155603884Y-67972419D01*
X155603884Y-67972419D02*
X156175312Y-68972419D01*
X156175312Y-68972419D02*
X156175312Y-67972419D01*
X156651503Y-68972419D02*
X156651503Y-67972419D01*
X156651503Y-67972419D02*
X156889598Y-67972419D01*
X156889598Y-67972419D02*
X157032455Y-68020038D01*
X157032455Y-68020038D02*
X157127693Y-68115276D01*
X157127693Y-68115276D02*
X157175312Y-68210514D01*
X157175312Y-68210514D02*
X157222931Y-68400990D01*
X157222931Y-68400990D02*
X157222931Y-68543847D01*
X157222931Y-68543847D02*
X157175312Y-68734323D01*
X157175312Y-68734323D02*
X157127693Y-68829561D01*
X157127693Y-68829561D02*
X157032455Y-68924800D01*
X157032455Y-68924800D02*
X156889598Y-68972419D01*
X156889598Y-68972419D02*
X156651503Y-68972419D01*
X125127693Y-114020038D02*
X125032455Y-113972419D01*
X125032455Y-113972419D02*
X124889598Y-113972419D01*
X124889598Y-113972419D02*
X124746741Y-114020038D01*
X124746741Y-114020038D02*
X124651503Y-114115276D01*
X124651503Y-114115276D02*
X124603884Y-114210514D01*
X124603884Y-114210514D02*
X124556265Y-114400990D01*
X124556265Y-114400990D02*
X124556265Y-114543847D01*
X124556265Y-114543847D02*
X124603884Y-114734323D01*
X124603884Y-114734323D02*
X124651503Y-114829561D01*
X124651503Y-114829561D02*
X124746741Y-114924800D01*
X124746741Y-114924800D02*
X124889598Y-114972419D01*
X124889598Y-114972419D02*
X124984836Y-114972419D01*
X124984836Y-114972419D02*
X125127693Y-114924800D01*
X125127693Y-114924800D02*
X125175312Y-114877180D01*
X125175312Y-114877180D02*
X125175312Y-114543847D01*
X125175312Y-114543847D02*
X124984836Y-114543847D01*
X125603884Y-114972419D02*
X125603884Y-113972419D01*
X125603884Y-113972419D02*
X126175312Y-114972419D01*
X126175312Y-114972419D02*
X126175312Y-113972419D01*
X126651503Y-114972419D02*
X126651503Y-113972419D01*
X126651503Y-113972419D02*
X126889598Y-113972419D01*
X126889598Y-113972419D02*
X127032455Y-114020038D01*
X127032455Y-114020038D02*
X127127693Y-114115276D01*
X127127693Y-114115276D02*
X127175312Y-114210514D01*
X127175312Y-114210514D02*
X127222931Y-114400990D01*
X127222931Y-114400990D02*
X127222931Y-114543847D01*
X127222931Y-114543847D02*
X127175312Y-114734323D01*
X127175312Y-114734323D02*
X127127693Y-114829561D01*
X127127693Y-114829561D02*
X127032455Y-114924800D01*
X127032455Y-114924800D02*
X126889598Y-114972419D01*
X126889598Y-114972419D02*
X126651503Y-114972419D01*
D11*
X175385714Y-113054819D02*
X175385714Y-112388152D01*
X175385714Y-112578628D02*
X175433333Y-112483390D01*
X175433333Y-112483390D02*
X175480952Y-112435771D01*
X175480952Y-112435771D02*
X175576190Y-112388152D01*
X175576190Y-112388152D02*
X175671428Y-112388152D01*
X176004762Y-113054819D02*
X176004762Y-112388152D01*
X176004762Y-112054819D02*
X175957143Y-112102438D01*
X175957143Y-112102438D02*
X176004762Y-112150057D01*
X176004762Y-112150057D02*
X176052381Y-112102438D01*
X176052381Y-112102438D02*
X176004762Y-112054819D01*
X176004762Y-112054819D02*
X176004762Y-112150057D01*
X176909523Y-112388152D02*
X176909523Y-113197676D01*
X176909523Y-113197676D02*
X176861904Y-113292914D01*
X176861904Y-113292914D02*
X176814285Y-113340533D01*
X176814285Y-113340533D02*
X176719047Y-113388152D01*
X176719047Y-113388152D02*
X176576190Y-113388152D01*
X176576190Y-113388152D02*
X176480952Y-113340533D01*
X176909523Y-113007200D02*
X176814285Y-113054819D01*
X176814285Y-113054819D02*
X176623809Y-113054819D01*
X176623809Y-113054819D02*
X176528571Y-113007200D01*
X176528571Y-113007200D02*
X176480952Y-112959580D01*
X176480952Y-112959580D02*
X176433333Y-112864342D01*
X176433333Y-112864342D02*
X176433333Y-112578628D01*
X176433333Y-112578628D02*
X176480952Y-112483390D01*
X176480952Y-112483390D02*
X176528571Y-112435771D01*
X176528571Y-112435771D02*
X176623809Y-112388152D01*
X176623809Y-112388152D02*
X176814285Y-112388152D01*
X176814285Y-112388152D02*
X176909523Y-112435771D01*
X177385714Y-113054819D02*
X177385714Y-112054819D01*
X177814285Y-113054819D02*
X177814285Y-112531009D01*
X177814285Y-112531009D02*
X177766666Y-112435771D01*
X177766666Y-112435771D02*
X177671428Y-112388152D01*
X177671428Y-112388152D02*
X177528571Y-112388152D01*
X177528571Y-112388152D02*
X177433333Y-112435771D01*
X177433333Y-112435771D02*
X177385714Y-112483390D01*
X178147619Y-112388152D02*
X178528571Y-112388152D01*
X178290476Y-112054819D02*
X178290476Y-112911961D01*
X178290476Y-112911961D02*
X178338095Y-113007200D01*
X178338095Y-113007200D02*
X178433333Y-113054819D01*
X178433333Y-113054819D02*
X178528571Y-113054819D01*
X179623810Y-112388152D02*
X179623810Y-113245295D01*
X179623810Y-113245295D02*
X179576191Y-113340533D01*
X179576191Y-113340533D02*
X179480953Y-113388152D01*
X179480953Y-113388152D02*
X179433334Y-113388152D01*
X179623810Y-112054819D02*
X179576191Y-112102438D01*
X179576191Y-112102438D02*
X179623810Y-112150057D01*
X179623810Y-112150057D02*
X179671429Y-112102438D01*
X179671429Y-112102438D02*
X179623810Y-112054819D01*
X179623810Y-112054819D02*
X179623810Y-112150057D01*
X180242857Y-113054819D02*
X180147619Y-113007200D01*
X180147619Y-113007200D02*
X180100000Y-112959580D01*
X180100000Y-112959580D02*
X180052381Y-112864342D01*
X180052381Y-112864342D02*
X180052381Y-112578628D01*
X180052381Y-112578628D02*
X180100000Y-112483390D01*
X180100000Y-112483390D02*
X180147619Y-112435771D01*
X180147619Y-112435771D02*
X180242857Y-112388152D01*
X180242857Y-112388152D02*
X180385714Y-112388152D01*
X180385714Y-112388152D02*
X180480952Y-112435771D01*
X180480952Y-112435771D02*
X180528571Y-112483390D01*
X180528571Y-112483390D02*
X180576190Y-112578628D01*
X180576190Y-112578628D02*
X180576190Y-112864342D01*
X180576190Y-112864342D02*
X180528571Y-112959580D01*
X180528571Y-112959580D02*
X180480952Y-113007200D01*
X180480952Y-113007200D02*
X180385714Y-113054819D01*
X180385714Y-113054819D02*
X180242857Y-113054819D01*
X180909524Y-112388152D02*
X181147619Y-113054819D01*
X181385714Y-112388152D02*
X181147619Y-113054819D01*
X181147619Y-113054819D02*
X181052381Y-113292914D01*
X181052381Y-113292914D02*
X181004762Y-113340533D01*
X181004762Y-113340533D02*
X180909524Y-113388152D01*
X181719048Y-113007200D02*
X181814286Y-113054819D01*
X181814286Y-113054819D02*
X182004762Y-113054819D01*
X182004762Y-113054819D02*
X182100000Y-113007200D01*
X182100000Y-113007200D02*
X182147619Y-112911961D01*
X182147619Y-112911961D02*
X182147619Y-112864342D01*
X182147619Y-112864342D02*
X182100000Y-112769104D01*
X182100000Y-112769104D02*
X182004762Y-112721485D01*
X182004762Y-112721485D02*
X181861905Y-112721485D01*
X181861905Y-112721485D02*
X181766667Y-112673866D01*
X181766667Y-112673866D02*
X181719048Y-112578628D01*
X181719048Y-112578628D02*
X181719048Y-112531009D01*
X181719048Y-112531009D02*
X181766667Y-112435771D01*
X181766667Y-112435771D02*
X181861905Y-112388152D01*
X181861905Y-112388152D02*
X182004762Y-112388152D01*
X182004762Y-112388152D02*
X182100000Y-112435771D01*
X182433334Y-112388152D02*
X182814286Y-112388152D01*
X182576191Y-112054819D02*
X182576191Y-112911961D01*
X182576191Y-112911961D02*
X182623810Y-113007200D01*
X182623810Y-113007200D02*
X182719048Y-113054819D01*
X182719048Y-113054819D02*
X182814286Y-113054819D01*
X183147620Y-113054819D02*
X183147620Y-112388152D01*
X183147620Y-112054819D02*
X183100001Y-112102438D01*
X183100001Y-112102438D02*
X183147620Y-112150057D01*
X183147620Y-112150057D02*
X183195239Y-112102438D01*
X183195239Y-112102438D02*
X183147620Y-112054819D01*
X183147620Y-112054819D02*
X183147620Y-112150057D01*
X184052381Y-113007200D02*
X183957143Y-113054819D01*
X183957143Y-113054819D02*
X183766667Y-113054819D01*
X183766667Y-113054819D02*
X183671429Y-113007200D01*
X183671429Y-113007200D02*
X183623810Y-112959580D01*
X183623810Y-112959580D02*
X183576191Y-112864342D01*
X183576191Y-112864342D02*
X183576191Y-112578628D01*
X183576191Y-112578628D02*
X183623810Y-112483390D01*
X183623810Y-112483390D02*
X183671429Y-112435771D01*
X183671429Y-112435771D02*
X183766667Y-112388152D01*
X183766667Y-112388152D02*
X183957143Y-112388152D01*
X183957143Y-112388152D02*
X184052381Y-112435771D01*
X184480953Y-113054819D02*
X184480953Y-112054819D01*
X184576191Y-112673866D02*
X184861905Y-113054819D01*
X184861905Y-112388152D02*
X184480953Y-112769104D01*
X172704761Y-74454819D02*
X172609523Y-74407200D01*
X172609523Y-74407200D02*
X172561904Y-74311961D01*
X172561904Y-74311961D02*
X172561904Y-73454819D01*
X173466666Y-74407200D02*
X173371428Y-74454819D01*
X173371428Y-74454819D02*
X173180952Y-74454819D01*
X173180952Y-74454819D02*
X173085714Y-74407200D01*
X173085714Y-74407200D02*
X173038095Y-74311961D01*
X173038095Y-74311961D02*
X173038095Y-73931009D01*
X173038095Y-73931009D02*
X173085714Y-73835771D01*
X173085714Y-73835771D02*
X173180952Y-73788152D01*
X173180952Y-73788152D02*
X173371428Y-73788152D01*
X173371428Y-73788152D02*
X173466666Y-73835771D01*
X173466666Y-73835771D02*
X173514285Y-73931009D01*
X173514285Y-73931009D02*
X173514285Y-74026247D01*
X173514285Y-74026247D02*
X173038095Y-74121485D01*
X173800000Y-73788152D02*
X174180952Y-73788152D01*
X173942857Y-74454819D02*
X173942857Y-73597676D01*
X173942857Y-73597676D02*
X173990476Y-73502438D01*
X173990476Y-73502438D02*
X174085714Y-73454819D01*
X174085714Y-73454819D02*
X174180952Y-73454819D01*
X174371429Y-73788152D02*
X174752381Y-73788152D01*
X174514286Y-73454819D02*
X174514286Y-74311961D01*
X174514286Y-74311961D02*
X174561905Y-74407200D01*
X174561905Y-74407200D02*
X174657143Y-74454819D01*
X174657143Y-74454819D02*
X174752381Y-74454819D01*
X175847620Y-73788152D02*
X175847620Y-74645295D01*
X175847620Y-74645295D02*
X175800001Y-74740533D01*
X175800001Y-74740533D02*
X175704763Y-74788152D01*
X175704763Y-74788152D02*
X175657144Y-74788152D01*
X175847620Y-73454819D02*
X175800001Y-73502438D01*
X175800001Y-73502438D02*
X175847620Y-73550057D01*
X175847620Y-73550057D02*
X175895239Y-73502438D01*
X175895239Y-73502438D02*
X175847620Y-73454819D01*
X175847620Y-73454819D02*
X175847620Y-73550057D01*
X176466667Y-74454819D02*
X176371429Y-74407200D01*
X176371429Y-74407200D02*
X176323810Y-74359580D01*
X176323810Y-74359580D02*
X176276191Y-74264342D01*
X176276191Y-74264342D02*
X176276191Y-73978628D01*
X176276191Y-73978628D02*
X176323810Y-73883390D01*
X176323810Y-73883390D02*
X176371429Y-73835771D01*
X176371429Y-73835771D02*
X176466667Y-73788152D01*
X176466667Y-73788152D02*
X176609524Y-73788152D01*
X176609524Y-73788152D02*
X176704762Y-73835771D01*
X176704762Y-73835771D02*
X176752381Y-73883390D01*
X176752381Y-73883390D02*
X176800000Y-73978628D01*
X176800000Y-73978628D02*
X176800000Y-74264342D01*
X176800000Y-74264342D02*
X176752381Y-74359580D01*
X176752381Y-74359580D02*
X176704762Y-74407200D01*
X176704762Y-74407200D02*
X176609524Y-74454819D01*
X176609524Y-74454819D02*
X176466667Y-74454819D01*
X177133334Y-73788152D02*
X177371429Y-74454819D01*
X177609524Y-73788152D02*
X177371429Y-74454819D01*
X177371429Y-74454819D02*
X177276191Y-74692914D01*
X177276191Y-74692914D02*
X177228572Y-74740533D01*
X177228572Y-74740533D02*
X177133334Y-74788152D01*
X177942858Y-74407200D02*
X178038096Y-74454819D01*
X178038096Y-74454819D02*
X178228572Y-74454819D01*
X178228572Y-74454819D02*
X178323810Y-74407200D01*
X178323810Y-74407200D02*
X178371429Y-74311961D01*
X178371429Y-74311961D02*
X178371429Y-74264342D01*
X178371429Y-74264342D02*
X178323810Y-74169104D01*
X178323810Y-74169104D02*
X178228572Y-74121485D01*
X178228572Y-74121485D02*
X178085715Y-74121485D01*
X178085715Y-74121485D02*
X177990477Y-74073866D01*
X177990477Y-74073866D02*
X177942858Y-73978628D01*
X177942858Y-73978628D02*
X177942858Y-73931009D01*
X177942858Y-73931009D02*
X177990477Y-73835771D01*
X177990477Y-73835771D02*
X178085715Y-73788152D01*
X178085715Y-73788152D02*
X178228572Y-73788152D01*
X178228572Y-73788152D02*
X178323810Y-73835771D01*
X178657144Y-73788152D02*
X179038096Y-73788152D01*
X178800001Y-73454819D02*
X178800001Y-74311961D01*
X178800001Y-74311961D02*
X178847620Y-74407200D01*
X178847620Y-74407200D02*
X178942858Y-74454819D01*
X178942858Y-74454819D02*
X179038096Y-74454819D01*
X179371430Y-74454819D02*
X179371430Y-73788152D01*
X179371430Y-73454819D02*
X179323811Y-73502438D01*
X179323811Y-73502438D02*
X179371430Y-73550057D01*
X179371430Y-73550057D02*
X179419049Y-73502438D01*
X179419049Y-73502438D02*
X179371430Y-73454819D01*
X179371430Y-73454819D02*
X179371430Y-73550057D01*
X180276191Y-74407200D02*
X180180953Y-74454819D01*
X180180953Y-74454819D02*
X179990477Y-74454819D01*
X179990477Y-74454819D02*
X179895239Y-74407200D01*
X179895239Y-74407200D02*
X179847620Y-74359580D01*
X179847620Y-74359580D02*
X179800001Y-74264342D01*
X179800001Y-74264342D02*
X179800001Y-73978628D01*
X179800001Y-73978628D02*
X179847620Y-73883390D01*
X179847620Y-73883390D02*
X179895239Y-73835771D01*
X179895239Y-73835771D02*
X179990477Y-73788152D01*
X179990477Y-73788152D02*
X180180953Y-73788152D01*
X180180953Y-73788152D02*
X180276191Y-73835771D01*
X180704763Y-74454819D02*
X180704763Y-73454819D01*
X180800001Y-74073866D02*
X181085715Y-74454819D01*
X181085715Y-73788152D02*
X180704763Y-74169104D01*
X165833333Y-116484819D02*
X165500000Y-116008628D01*
X165261905Y-116484819D02*
X165261905Y-115484819D01*
X165261905Y-115484819D02*
X165642857Y-115484819D01*
X165642857Y-115484819D02*
X165738095Y-115532438D01*
X165738095Y-115532438D02*
X165785714Y-115580057D01*
X165785714Y-115580057D02*
X165833333Y-115675295D01*
X165833333Y-115675295D02*
X165833333Y-115818152D01*
X165833333Y-115818152D02*
X165785714Y-115913390D01*
X165785714Y-115913390D02*
X165738095Y-115961009D01*
X165738095Y-115961009D02*
X165642857Y-116008628D01*
X165642857Y-116008628D02*
X165261905Y-116008628D01*
X166166667Y-115484819D02*
X166785714Y-115484819D01*
X166785714Y-115484819D02*
X166452381Y-115865771D01*
X166452381Y-115865771D02*
X166595238Y-115865771D01*
X166595238Y-115865771D02*
X166690476Y-115913390D01*
X166690476Y-115913390D02*
X166738095Y-115961009D01*
X166738095Y-115961009D02*
X166785714Y-116056247D01*
X166785714Y-116056247D02*
X166785714Y-116294342D01*
X166785714Y-116294342D02*
X166738095Y-116389580D01*
X166738095Y-116389580D02*
X166690476Y-116437200D01*
X166690476Y-116437200D02*
X166595238Y-116484819D01*
X166595238Y-116484819D02*
X166309524Y-116484819D01*
X166309524Y-116484819D02*
X166214286Y-116437200D01*
X166214286Y-116437200D02*
X166166667Y-116389580D01*
D10*
X175816390Y-122119047D02*
X175768771Y-122261904D01*
X175768771Y-122261904D02*
X175721152Y-122309523D01*
X175721152Y-122309523D02*
X175625914Y-122357142D01*
X175625914Y-122357142D02*
X175483057Y-122357142D01*
X175483057Y-122357142D02*
X175387819Y-122309523D01*
X175387819Y-122309523D02*
X175340200Y-122261904D01*
X175340200Y-122261904D02*
X175292580Y-122166666D01*
X175292580Y-122166666D02*
X175292580Y-121785714D01*
X175292580Y-121785714D02*
X176292580Y-121785714D01*
X176292580Y-121785714D02*
X176292580Y-122119047D01*
X176292580Y-122119047D02*
X176244961Y-122214285D01*
X176244961Y-122214285D02*
X176197342Y-122261904D01*
X176197342Y-122261904D02*
X176102104Y-122309523D01*
X176102104Y-122309523D02*
X176006866Y-122309523D01*
X176006866Y-122309523D02*
X175911628Y-122261904D01*
X175911628Y-122261904D02*
X175864009Y-122214285D01*
X175864009Y-122214285D02*
X175816390Y-122119047D01*
X175816390Y-122119047D02*
X175816390Y-121785714D01*
X176292580Y-122690476D02*
X176292580Y-123357142D01*
X176292580Y-123357142D02*
X175292580Y-122690476D01*
X175292580Y-122690476D02*
X175292580Y-123357142D01*
X175292580Y-124261904D02*
X175292580Y-123690476D01*
X175292580Y-123976190D02*
X176292580Y-123976190D01*
X176292580Y-123976190D02*
X176149723Y-123880952D01*
X176149723Y-123880952D02*
X176054485Y-123785714D01*
X176054485Y-123785714D02*
X176006866Y-123690476D01*
X176458095Y-84207419D02*
X176458095Y-85016942D01*
X176458095Y-85016942D02*
X176505714Y-85112180D01*
X176505714Y-85112180D02*
X176553333Y-85159800D01*
X176553333Y-85159800D02*
X176648571Y-85207419D01*
X176648571Y-85207419D02*
X176839047Y-85207419D01*
X176839047Y-85207419D02*
X176934285Y-85159800D01*
X176934285Y-85159800D02*
X176981904Y-85112180D01*
X176981904Y-85112180D02*
X177029523Y-85016942D01*
X177029523Y-85016942D02*
X177029523Y-84207419D01*
X177410476Y-84207419D02*
X178077142Y-84207419D01*
X178077142Y-84207419D02*
X177648571Y-85207419D01*
D11*
X127433333Y-121054819D02*
X127100000Y-120578628D01*
X126861905Y-121054819D02*
X126861905Y-120054819D01*
X126861905Y-120054819D02*
X127242857Y-120054819D01*
X127242857Y-120054819D02*
X127338095Y-120102438D01*
X127338095Y-120102438D02*
X127385714Y-120150057D01*
X127385714Y-120150057D02*
X127433333Y-120245295D01*
X127433333Y-120245295D02*
X127433333Y-120388152D01*
X127433333Y-120388152D02*
X127385714Y-120483390D01*
X127385714Y-120483390D02*
X127338095Y-120531009D01*
X127338095Y-120531009D02*
X127242857Y-120578628D01*
X127242857Y-120578628D02*
X126861905Y-120578628D01*
X128385714Y-121054819D02*
X127814286Y-121054819D01*
X128100000Y-121054819D02*
X128100000Y-120054819D01*
X128100000Y-120054819D02*
X128004762Y-120197676D01*
X128004762Y-120197676D02*
X127909524Y-120292914D01*
X127909524Y-120292914D02*
X127814286Y-120340533D01*
X127733333Y-126354819D02*
X127400000Y-125878628D01*
X127161905Y-126354819D02*
X127161905Y-125354819D01*
X127161905Y-125354819D02*
X127542857Y-125354819D01*
X127542857Y-125354819D02*
X127638095Y-125402438D01*
X127638095Y-125402438D02*
X127685714Y-125450057D01*
X127685714Y-125450057D02*
X127733333Y-125545295D01*
X127733333Y-125545295D02*
X127733333Y-125688152D01*
X127733333Y-125688152D02*
X127685714Y-125783390D01*
X127685714Y-125783390D02*
X127638095Y-125831009D01*
X127638095Y-125831009D02*
X127542857Y-125878628D01*
X127542857Y-125878628D02*
X127161905Y-125878628D01*
X128114286Y-125450057D02*
X128161905Y-125402438D01*
X128161905Y-125402438D02*
X128257143Y-125354819D01*
X128257143Y-125354819D02*
X128495238Y-125354819D01*
X128495238Y-125354819D02*
X128590476Y-125402438D01*
X128590476Y-125402438D02*
X128638095Y-125450057D01*
X128638095Y-125450057D02*
X128685714Y-125545295D01*
X128685714Y-125545295D02*
X128685714Y-125640533D01*
X128685714Y-125640533D02*
X128638095Y-125783390D01*
X128638095Y-125783390D02*
X128066667Y-126354819D01*
X128066667Y-126354819D02*
X128685714Y-126354819D01*
X113511009Y-127385714D02*
X113558628Y-127242857D01*
X113558628Y-127242857D02*
X113606247Y-127195238D01*
X113606247Y-127195238D02*
X113701485Y-127147619D01*
X113701485Y-127147619D02*
X113844342Y-127147619D01*
X113844342Y-127147619D02*
X113939580Y-127195238D01*
X113939580Y-127195238D02*
X113987200Y-127242857D01*
X113987200Y-127242857D02*
X114034819Y-127338095D01*
X114034819Y-127338095D02*
X114034819Y-127719047D01*
X114034819Y-127719047D02*
X113034819Y-127719047D01*
X113034819Y-127719047D02*
X113034819Y-127385714D01*
X113034819Y-127385714D02*
X113082438Y-127290476D01*
X113082438Y-127290476D02*
X113130057Y-127242857D01*
X113130057Y-127242857D02*
X113225295Y-127195238D01*
X113225295Y-127195238D02*
X113320533Y-127195238D01*
X113320533Y-127195238D02*
X113415771Y-127242857D01*
X113415771Y-127242857D02*
X113463390Y-127290476D01*
X113463390Y-127290476D02*
X113511009Y-127385714D01*
X113511009Y-127385714D02*
X113511009Y-127719047D01*
X113034819Y-126861904D02*
X113034819Y-126290476D01*
X114034819Y-126576190D02*
X113034819Y-126576190D01*
X114034819Y-125433333D02*
X114034819Y-126004761D01*
X114034819Y-125719047D02*
X113034819Y-125719047D01*
X113034819Y-125719047D02*
X113177676Y-125814285D01*
X113177676Y-125814285D02*
X113272914Y-125909523D01*
X113272914Y-125909523D02*
X113320533Y-126004761D01*
D10*
X117458095Y-84207419D02*
X117458095Y-85016942D01*
X117458095Y-85016942D02*
X117505714Y-85112180D01*
X117505714Y-85112180D02*
X117553333Y-85159800D01*
X117553333Y-85159800D02*
X117648571Y-85207419D01*
X117648571Y-85207419D02*
X117839047Y-85207419D01*
X117839047Y-85207419D02*
X117934285Y-85159800D01*
X117934285Y-85159800D02*
X117981904Y-85112180D01*
X117981904Y-85112180D02*
X118029523Y-85016942D01*
X118029523Y-85016942D02*
X118029523Y-84207419D01*
X118648571Y-84635990D02*
X118553333Y-84588371D01*
X118553333Y-84588371D02*
X118505714Y-84540752D01*
X118505714Y-84540752D02*
X118458095Y-84445514D01*
X118458095Y-84445514D02*
X118458095Y-84397895D01*
X118458095Y-84397895D02*
X118505714Y-84302657D01*
X118505714Y-84302657D02*
X118553333Y-84255038D01*
X118553333Y-84255038D02*
X118648571Y-84207419D01*
X118648571Y-84207419D02*
X118839047Y-84207419D01*
X118839047Y-84207419D02*
X118934285Y-84255038D01*
X118934285Y-84255038D02*
X118981904Y-84302657D01*
X118981904Y-84302657D02*
X119029523Y-84397895D01*
X119029523Y-84397895D02*
X119029523Y-84445514D01*
X119029523Y-84445514D02*
X118981904Y-84540752D01*
X118981904Y-84540752D02*
X118934285Y-84588371D01*
X118934285Y-84588371D02*
X118839047Y-84635990D01*
X118839047Y-84635990D02*
X118648571Y-84635990D01*
X118648571Y-84635990D02*
X118553333Y-84683609D01*
X118553333Y-84683609D02*
X118505714Y-84731228D01*
X118505714Y-84731228D02*
X118458095Y-84826466D01*
X118458095Y-84826466D02*
X118458095Y-85016942D01*
X118458095Y-85016942D02*
X118505714Y-85112180D01*
X118505714Y-85112180D02*
X118553333Y-85159800D01*
X118553333Y-85159800D02*
X118648571Y-85207419D01*
X118648571Y-85207419D02*
X118839047Y-85207419D01*
X118839047Y-85207419D02*
X118934285Y-85159800D01*
X118934285Y-85159800D02*
X118981904Y-85112180D01*
X118981904Y-85112180D02*
X119029523Y-85016942D01*
X119029523Y-85016942D02*
X119029523Y-84826466D01*
X119029523Y-84826466D02*
X118981904Y-84731228D01*
X118981904Y-84731228D02*
X118934285Y-84683609D01*
X118934285Y-84683609D02*
X118839047Y-84635990D01*
D12*
%TO.C,U2*%
X140890000Y-103670000D02*
X140890000Y-102340000D01*
X142220000Y-103670000D02*
X140890000Y-103670000D01*
X143490000Y-103670000D02*
X151170000Y-103670000D01*
X143490000Y-103670000D02*
X143490000Y-101070000D01*
X151170000Y-103670000D02*
X151170000Y-98470000D01*
X140890000Y-101070000D02*
X140890000Y-98470000D01*
X143490000Y-101070000D02*
X140890000Y-101070000D01*
X140890000Y-98470000D02*
X151170000Y-98470000D01*
%TO.C,U4*%
X173330000Y-111670000D02*
X173330000Y-113000000D01*
X172000000Y-111670000D02*
X173330000Y-111670000D01*
X170730000Y-111670000D02*
X160510000Y-111670000D01*
X170730000Y-111670000D02*
X170730000Y-114330000D01*
X160510000Y-111670000D02*
X160510000Y-114330000D01*
X170730000Y-114330000D02*
X160510000Y-114330000D01*
%TO.C,U3*%
X158050000Y-75330000D02*
X158050000Y-74000000D01*
X159380000Y-75330000D02*
X158050000Y-75330000D01*
X160650000Y-75330000D02*
X170870000Y-75330000D01*
X160650000Y-75330000D02*
X160650000Y-72670000D01*
X170870000Y-75330000D02*
X170870000Y-72670000D01*
X160650000Y-72670000D02*
X170870000Y-72670000D01*
%TO.C,U6*%
X105700000Y-110400000D02*
X107030000Y-110400000D01*
X105700000Y-111730000D02*
X105700000Y-110400000D01*
X105700000Y-113000000D02*
X105700000Y-115600000D01*
X105700000Y-113000000D02*
X108360000Y-113000000D01*
X105700000Y-115600000D02*
X108360000Y-115600000D01*
X108360000Y-113000000D02*
X108360000Y-115600000D01*
X127740000Y-110400000D02*
X129070000Y-110400000D01*
X127740000Y-111730000D02*
X127740000Y-110400000D01*
X127740000Y-113000000D02*
X127740000Y-115600000D01*
X127740000Y-113000000D02*
X130400000Y-113000000D01*
X127740000Y-115600000D02*
X130400000Y-115600000D01*
X130400000Y-113000000D02*
X130400000Y-115600000D01*
D10*
X105000000Y-107000000D02*
X131600000Y-107000000D01*
X131600000Y-119000000D01*
X105000000Y-119000000D01*
X105000000Y-107000000D01*
D12*
%TO.C,R3*%
X161960000Y-118400000D02*
X162730000Y-118400000D01*
X162730000Y-117030000D02*
X162730000Y-119770000D01*
X162730000Y-119770000D02*
X169270000Y-119770000D01*
X169270000Y-117030000D02*
X162730000Y-117030000D01*
X169270000Y-119770000D02*
X169270000Y-117030000D01*
X170040000Y-118400000D02*
X169270000Y-118400000D01*
D10*
%TO.C,BZ1*%
X184000000Y-123750000D02*
G75*
G02*
X172000000Y-123750000I-6000000J0D01*
G01*
X172000000Y-123750000D02*
G75*
G02*
X184000000Y-123750000I6000000J0D01*
G01*
%TO.C,SW2*%
X157700000Y-65700000D02*
X167200000Y-65700000D01*
X167200000Y-70100000D01*
X157700000Y-70100000D01*
X157700000Y-65700000D01*
%TO.C,SW1*%
X114600000Y-131550000D02*
X119000000Y-131550000D01*
X119000000Y-122050000D01*
X114600000Y-122050000D01*
X114600000Y-131550000D01*
%TO.C,U7*%
X157740000Y-79050000D02*
X192100000Y-79050000D01*
X192100000Y-105550000D01*
X157740000Y-105550000D01*
X157740000Y-79050000D01*
X164134214Y-81750000D02*
G75*
G02*
X161305786Y-81750000I-1414214J0D01*
G01*
X161305786Y-81750000D02*
G75*
G02*
X164134214Y-81750000I1414214J0D01*
G01*
X164134214Y-102750000D02*
G75*
G02*
X161305786Y-102750000I-1414214J0D01*
G01*
X161305786Y-102750000D02*
G75*
G02*
X164134214Y-102750000I1414214J0D01*
G01*
X190634214Y-81750000D02*
G75*
G02*
X187805786Y-81750000I-1414214J0D01*
G01*
X187805786Y-81750000D02*
G75*
G02*
X190634214Y-81750000I1414214J0D01*
G01*
X190634214Y-102750000D02*
G75*
G02*
X187805786Y-102750000I-1414214J0D01*
G01*
X187805786Y-102750000D02*
G75*
G02*
X190634214Y-102750000I1414214J0D01*
G01*
D12*
%TO.C,R1*%
X124530000Y-124670000D02*
X131070000Y-124670000D01*
X131070000Y-124670000D02*
X131070000Y-121930000D01*
X123760000Y-123300000D02*
X124530000Y-123300000D01*
X131840000Y-123300000D02*
X131070000Y-123300000D01*
X124530000Y-121930000D02*
X124530000Y-124670000D01*
X131070000Y-121930000D02*
X124530000Y-121930000D01*
%TO.C,R2*%
X124530000Y-129670000D02*
X131070000Y-129670000D01*
X131070000Y-129670000D02*
X131070000Y-126930000D01*
X123760000Y-128300000D02*
X124530000Y-128300000D01*
X131840000Y-128300000D02*
X131070000Y-128300000D01*
X124530000Y-126930000D02*
X124530000Y-129670000D01*
X131070000Y-126930000D02*
X124530000Y-126930000D01*
%TO.C,BT1*%
X112610000Y-125802631D02*
X112610000Y-127397369D01*
X108190000Y-125802631D02*
X108190000Y-127397369D01*
%TO.C,U8*%
D10*
X98740000Y-79050000D02*
X133100000Y-79050000D01*
X133100000Y-105550000D01*
X98740000Y-105550000D01*
X98740000Y-79050000D01*
X105134214Y-81750000D02*
G75*
G02*
X102305786Y-81750000I-1414214J0D01*
G01*
X102305786Y-81750000D02*
G75*
G02*
X105134214Y-81750000I1414214J0D01*
G01*
X105134214Y-102750000D02*
G75*
G02*
X102305786Y-102750000I-1414214J0D01*
G01*
X102305786Y-102750000D02*
G75*
G02*
X105134214Y-102750000I1414214J0D01*
G01*
X131634214Y-81750000D02*
G75*
G02*
X128805786Y-81750000I-1414214J0D01*
G01*
X128805786Y-81750000D02*
G75*
G02*
X131634214Y-81750000I1414214J0D01*
G01*
X131634214Y-102750000D02*
G75*
G02*
X128805786Y-102750000I-1414214J0D01*
G01*
X128805786Y-102750000D02*
G75*
G02*
X131634214Y-102750000I1414214J0D01*
G01*
%TD*%
M02*
