%TF.GenerationSoftware,KiCad,Pcbnew,8.0.2*%
%TF.CreationDate,2024-06-16T11:23:51+08:00*%
%TF.ProjectId,transmitter,7472616e-736d-4697-9474-65722e6b6963,rev?*%
%TF.SameCoordinates,Original*%
%TF.FileFunction,Soldermask,Bot*%
%TF.FilePolarity,Negative*%
%FSLAX46Y46*%
G04 Gerber Fmt 4.6, Leading zero omitted, Abs format (unit mm)*
G04 Created by KiCad (PCBNEW 8.0.2) date 2024-06-16 11:23:51*
%MOMM*%
%LPD*%
G01*
G04 APERTURE LIST*
%ADD10R,1.700000X1.700000*%
%ADD11O,1.700000X1.700000*%
%ADD12C,1.600000*%
%ADD13O,1.600000X1.600000*%
%ADD14C,1.524000*%
%ADD15C,3.200000*%
G04 APERTURE END LIST*
D10*
%TO.C,U2*%
X142220000Y-102340000D03*
D11*
X142220000Y-99800000D03*
X144760000Y-102340000D03*
X144760000Y-99800000D03*
X147300000Y-102340000D03*
X147300000Y-99800000D03*
X149840000Y-102340000D03*
X149840000Y-99800000D03*
%TD*%
D10*
%TO.C,U4*%
X172000000Y-113000000D03*
D11*
X169460000Y-113000000D03*
X166920000Y-113000000D03*
X164380000Y-113000000D03*
X161840000Y-113000000D03*
%TD*%
D10*
%TO.C,U3*%
X159380000Y-74000000D03*
D11*
X161920000Y-74000000D03*
X164460000Y-74000000D03*
X167000000Y-74000000D03*
X169540000Y-74000000D03*
%TD*%
D10*
%TO.C,U6*%
X129070000Y-111730000D03*
D11*
X129070000Y-114270000D03*
X107030000Y-114270000D03*
D10*
X107030000Y-111730000D03*
%TD*%
D12*
%TO.C,R3*%
X160920000Y-118400000D03*
D13*
X171080000Y-118400000D03*
%TD*%
D14*
%TO.C,BZ1*%
X178000000Y-120500000D03*
X178000000Y-127000000D03*
%TD*%
%TO.C,U1*%
X138160000Y-81900000D03*
X153400000Y-125080000D03*
X138160000Y-86980000D03*
X138160000Y-84440000D03*
X153400000Y-130160000D03*
X153400000Y-127620000D03*
X153400000Y-122540000D03*
X153400000Y-92060000D03*
X153400000Y-94600000D03*
X153400000Y-97140000D03*
X153400000Y-99680000D03*
X153400000Y-102220000D03*
X153400000Y-104760000D03*
X153400000Y-107300000D03*
X153400000Y-109840000D03*
X138160000Y-120000000D03*
X138160000Y-117460000D03*
X138160000Y-114920000D03*
X138160000Y-112380000D03*
X138160000Y-109840000D03*
X138160000Y-107300000D03*
X153400000Y-112380000D03*
X153400000Y-114920000D03*
X138160000Y-104760000D03*
X138160000Y-102220000D03*
X138160000Y-99680000D03*
X138160000Y-97140000D03*
X138160000Y-94600000D03*
X138160000Y-92060000D03*
X138160000Y-89520000D03*
X153400000Y-117460000D03*
X153400000Y-120000000D03*
X138160000Y-130160000D03*
X138160000Y-127620000D03*
X138160000Y-125080000D03*
X138160000Y-122540000D03*
X153400000Y-84440000D03*
X153400000Y-86980000D03*
X153400000Y-89520000D03*
X153400000Y-81900000D03*
%TD*%
D15*
%TO.C,H2*%
X189000000Y-70000000D03*
%TD*%
D12*
%TO.C,R1*%
X122720000Y-123300000D03*
D13*
X132880000Y-123300000D03*
%TD*%
D12*
%TO.C,R2*%
X122720000Y-128300000D03*
D13*
X132880000Y-128300000D03*
%TD*%
D15*
%TO.C,H3*%
X103000000Y-126000000D03*
%TD*%
%TO.C,H4*%
X189000000Y-126000000D03*
%TD*%
%TO.C,H1*%
X103000000Y-70000000D03*
%TD*%
M02*
