%TF.GenerationSoftware,KiCad,Pcbnew,8.0.2*%
%TF.CreationDate,2024-06-16T11:23:51+08:00*%
%TF.ProjectId,transmitter,7472616e-736d-4697-9474-65722e6b6963,rev?*%
%TF.SameCoordinates,Original*%
%TF.FileFunction,Profile,NP*%
%FSLAX46Y46*%
G04 Gerber Fmt 4.6, Leading zero omitted, Abs format (unit mm)*
G04 Created by KiCad (PCBNEW 8.0.2) date 2024-06-16 11:23:51*
%MOMM*%
%LPD*%
G01*
G04 APERTURE LIST*
%TA.AperFunction,Profile*%
%ADD10C,0.050000*%
%TD*%
G04 APERTURE END LIST*
D10*
X107500000Y-64000000D02*
X107000000Y-64000000D01*
X97000000Y-74000000D02*
X97000000Y-122000000D01*
X185000000Y-64000000D02*
X107500000Y-64000000D01*
X195000000Y-122000000D02*
X195000000Y-74000000D01*
X107000000Y-132000000D02*
X185000000Y-132000000D01*
X107000000Y-132000000D02*
G75*
G02*
X97000000Y-122000000I0J10000000D01*
G01*
X195000000Y-122000000D02*
G75*
G02*
X185000000Y-132000000I-10000000J0D01*
G01*
X185000000Y-64000000D02*
G75*
G02*
X195000000Y-74000000I0J-10000000D01*
G01*
X97000000Y-74000000D02*
G75*
G02*
X107000000Y-64000000I10000000J0D01*
G01*
%TO.C,U7*%
X157700000Y-84000000D02*
X157700000Y-100000000D01*
X157700000Y-100000000D02*
X165000000Y-100000000D01*
X165000000Y-79000000D02*
X165000000Y-84000000D01*
X165000000Y-84000000D02*
X157700000Y-84000000D01*
X165000000Y-100000000D02*
X165000000Y-105600000D01*
X165000000Y-105600000D02*
X186000000Y-105600000D01*
X186000000Y-79000000D02*
X165000000Y-79000000D01*
X186000000Y-85000000D02*
X186000000Y-79000000D01*
X186000000Y-100000000D02*
X192000000Y-100000000D01*
X186000000Y-105600000D02*
X186000000Y-100000000D01*
X192000000Y-85000000D02*
X186000000Y-85000000D01*
X192000000Y-100000000D02*
X192000000Y-85000000D01*
X164134214Y-81750000D02*
G75*
G02*
X161305786Y-81750000I-1414214J0D01*
G01*
X161305786Y-81750000D02*
G75*
G02*
X164134214Y-81750000I1414214J0D01*
G01*
X164134214Y-102750000D02*
G75*
G02*
X161305786Y-102750000I-1414214J0D01*
G01*
X161305786Y-102750000D02*
G75*
G02*
X164134214Y-102750000I1414214J0D01*
G01*
X190634214Y-81750000D02*
G75*
G02*
X187805786Y-81750000I-1414214J0D01*
G01*
X187805786Y-81750000D02*
G75*
G02*
X190634214Y-81750000I1414214J0D01*
G01*
X190634214Y-102750000D02*
G75*
G02*
X187805786Y-102750000I-1414214J0D01*
G01*
X187805786Y-102750000D02*
G75*
G02*
X190634214Y-102750000I1414214J0D01*
G01*
%TO.C,U8*%
X98700000Y-84000000D02*
X98700000Y-100000000D01*
X98700000Y-100000000D02*
X106000000Y-100000000D01*
X106000000Y-79000000D02*
X106000000Y-84000000D01*
X106000000Y-84000000D02*
X98700000Y-84000000D01*
X106000000Y-100000000D02*
X106000000Y-105600000D01*
X106000000Y-105600000D02*
X127000000Y-105600000D01*
X127000000Y-79000000D02*
X106000000Y-79000000D01*
X127000000Y-85000000D02*
X127000000Y-79000000D01*
X127000000Y-100000000D02*
X133000000Y-100000000D01*
X127000000Y-105600000D02*
X127000000Y-100000000D01*
X133000000Y-85000000D02*
X127000000Y-85000000D01*
X133000000Y-100000000D02*
X133000000Y-85000000D01*
X105134214Y-81750000D02*
G75*
G02*
X102305786Y-81750000I-1414214J0D01*
G01*
X102305786Y-81750000D02*
G75*
G02*
X105134214Y-81750000I1414214J0D01*
G01*
X105134214Y-102750000D02*
G75*
G02*
X102305786Y-102750000I-1414214J0D01*
G01*
X102305786Y-102750000D02*
G75*
G02*
X105134214Y-102750000I1414214J0D01*
G01*
X131634214Y-81750000D02*
G75*
G02*
X128805786Y-81750000I-1414214J0D01*
G01*
X128805786Y-81750000D02*
G75*
G02*
X131634214Y-81750000I1414214J0D01*
G01*
X131634214Y-102750000D02*
G75*
G02*
X128805786Y-102750000I-1414214J0D01*
G01*
X128805786Y-102750000D02*
G75*
G02*
X131634214Y-102750000I1414214J0D01*
G01*
%TD*%
M02*
