M48
; DRILL file {KiCad 8.0.2} date 2024-06-16T11:23:22+0800
; FORMAT={-:-/ absolute / metric / decimal}
; #@! TF.CreationDate,2024-06-16T11:23:22+08:00
; #@! TF.GenerationSoftware,Kicad,Pcbnew,8.0.2
; #@! TF.FileFunction,MixedPlating,1,2
FMAT,2
METRIC
; #@! TA.AperFunction,Plated,PTH,ViaDrill
T1C0.300
; #@! TA.AperFunction,Plated,PTH,ComponentDrill
T2C0.762
; #@! TA.AperFunction,Plated,PTH,ComponentDrill
T3C0.800
; #@! TA.AperFunction,Plated,PTH,ComponentDrill
T4C0.900
; #@! TA.AperFunction,Plated,PTH,ComponentDrill
T5C1.000
; #@! TA.AperFunction,NonPlated,NPTH,ComponentDrill
T6C3.200
%
G90
G05
T1
X107.0Y-129.1
X107.0Y-130.8
X107.2Y-127.7
X113.4Y-130.7
X113.6Y-129.1
X135.1Y-119.3
X135.7Y-122.9
X140.6Y-104.9
X142.1Y-94.7
X142.2Y-97.0
X144.06Y-104.9
X144.06Y-106.1
X145.5Y-106.1
X145.7Y-104.9
X154.0Y-71.6
X154.516Y-73.716
X156.8Y-101.9
X158.3Y-71.3
X160.3Y-71.3
T2
X178.0Y-120.5
X178.0Y-127.0
T3
X122.72Y-123.3
X122.72Y-128.3
X132.88Y-123.3
X132.88Y-128.3
X160.92Y-118.4
X171.08Y-118.4
T4
X138.16Y-81.9
X138.16Y-84.44
X138.16Y-86.98
X138.16Y-89.52
X138.16Y-92.06
X138.16Y-94.6
X138.16Y-97.14
X138.16Y-99.68
X138.16Y-102.22
X138.16Y-104.76
X138.16Y-107.3
X138.16Y-109.84
X138.16Y-112.38
X138.16Y-114.92
X138.16Y-117.46
X138.16Y-120.0
X138.16Y-122.54
X138.16Y-125.08
X138.16Y-127.62
X138.16Y-130.16
X153.4Y-81.9
X153.4Y-84.44
X153.4Y-86.98
X153.4Y-89.52
X153.4Y-92.06
X153.4Y-94.6
X153.4Y-97.14
X153.4Y-99.68
X153.4Y-102.22
X153.4Y-104.76
X153.4Y-107.3
X153.4Y-109.84
X153.4Y-112.38
X153.4Y-114.92
X153.4Y-117.46
X153.4Y-120.0
X153.4Y-122.54
X153.4Y-125.08
X153.4Y-127.62
X153.4Y-130.16
T5
X107.03Y-111.73
X107.03Y-114.27
X129.07Y-111.73
X129.07Y-114.27
X142.22Y-99.8
X142.22Y-102.34
X144.76Y-99.8
X144.76Y-102.34
X147.3Y-99.8
X147.3Y-102.34
X149.84Y-99.8
X149.84Y-102.34
X159.38Y-74.0
X161.84Y-113.0
X161.92Y-74.0
X164.38Y-113.0
X164.46Y-74.0
X166.92Y-113.0
X167.0Y-74.0
X169.46Y-113.0
X169.54Y-74.0
X172.0Y-113.0
T6
X103.0Y-70.0
X103.0Y-126.0
X189.0Y-70.0
X189.0Y-126.0
M30
