%TF.GenerationSoftware,KiCad,Pcbnew,8.0.2*%
%TF.CreationDate,2024-06-16T11:23:50+08:00*%
%TF.ProjectId,transmitter,7472616e-736d-4697-9474-65722e6b6963,rev?*%
%TF.SameCoordinates,Original*%
%TF.FileFunction,Copper,L2,Bot*%
%TF.FilePolarity,Positive*%
%FSLAX46Y46*%
G04 Gerber Fmt 4.6, Leading zero omitted, Abs format (unit mm)*
G04 Created by KiCad (PCBNEW 8.0.2) date 2024-06-16 11:23:50*
%MOMM*%
%LPD*%
G01*
G04 APERTURE LIST*
%TA.AperFunction,ComponentPad*%
%ADD10R,1.700000X1.700000*%
%TD*%
%TA.AperFunction,ComponentPad*%
%ADD11O,1.700000X1.700000*%
%TD*%
%TA.AperFunction,ComponentPad*%
%ADD12C,1.600000*%
%TD*%
%TA.AperFunction,ComponentPad*%
%ADD13O,1.600000X1.600000*%
%TD*%
%TA.AperFunction,ComponentPad*%
%ADD14C,1.524000*%
%TD*%
%TA.AperFunction,ViaPad*%
%ADD15C,0.700000*%
%TD*%
%TA.AperFunction,Conductor*%
%ADD16C,0.500000*%
%TD*%
%TA.AperFunction,Conductor*%
%ADD17C,0.300000*%
%TD*%
G04 APERTURE END LIST*
D10*
%TO.P,U2,1,GND*%
%TO.N,GND*%
X142220000Y-102340000D03*
D11*
%TO.P,U2,2,VCC*%
%TO.N,+3V3*%
X142220000Y-99800000D03*
%TO.P,U2,3,CE*%
%TO.N,RF_CE*%
X144760000Y-102340000D03*
%TO.P,U2,4,CSN*%
%TO.N,NSS*%
X144760000Y-99800000D03*
%TO.P,U2,5,SCK*%
%TO.N,SCK*%
X147300000Y-102340000D03*
%TO.P,U2,6,MOSI*%
%TO.N,MOSI*%
X147300000Y-99800000D03*
%TO.P,U2,7,MISO*%
%TO.N,MISO*%
X149840000Y-102340000D03*
%TO.P,U2,8,IRQ*%
%TO.N,RF_IRQ*%
X149840000Y-99800000D03*
%TD*%
D10*
%TO.P,U4,1,GND*%
%TO.N,GND*%
X172000000Y-113000000D03*
D11*
%TO.P,U4,2,VCC*%
%TO.N,+3V3*%
X169460000Y-113000000D03*
%TO.P,U4,3,x*%
%TO.N,ADC_3*%
X166920000Y-113000000D03*
%TO.P,U4,4,Y*%
%TO.N,ADC_4*%
X164380000Y-113000000D03*
%TO.P,U4,5,SW*%
%TO.N,ADC_7*%
X161840000Y-113000000D03*
%TD*%
D10*
%TO.P,U3,1,GND*%
%TO.N,GND*%
X159380000Y-74000000D03*
D11*
%TO.P,U3,2,VCC*%
%TO.N,+3V3*%
X161920000Y-74000000D03*
%TO.P,U3,3,x*%
%TO.N,ADC_1*%
X164460000Y-74000000D03*
%TO.P,U3,4,Y*%
%TO.N,ADC_2*%
X167000000Y-74000000D03*
%TO.P,U3,5,SW*%
%TO.N,ADC_6*%
X169540000Y-74000000D03*
%TD*%
D10*
%TO.P,U6,1,Vout*%
%TO.N,+3V3*%
X129070000Y-111730000D03*
D11*
%TO.P,U6,2,GND*%
%TO.N,GND*%
X129070000Y-114270000D03*
%TO.P,U6,3,GND*%
X107030000Y-114270000D03*
D10*
%TO.P,U6,4,Vin*%
%TO.N,+8V*%
X107030000Y-111730000D03*
%TD*%
D12*
%TO.P,R3,1*%
%TO.N,+3V3*%
X160920000Y-118400000D03*
D13*
%TO.P,R3,2*%
%TO.N,Net-(BZ1-+)*%
X171080000Y-118400000D03*
%TD*%
D14*
%TO.P,BZ1,1,+*%
%TO.N,Net-(BZ1-+)*%
X178000000Y-120500000D03*
%TO.P,BZ1,2,-*%
%TO.N,Buzzer*%
X178000000Y-127000000D03*
%TD*%
%TO.P,U1,3V3,3.3V*%
%TO.N,+3V3*%
X138160000Y-81900000D03*
X153400000Y-125080000D03*
%TO.P,U1,5V,5V*%
%TO.N,unconnected-(U1-Pad5V)*%
X138160000Y-86980000D03*
%TO.P,U1,G,GND*%
%TO.N,GND*%
X138160000Y-84440000D03*
X153400000Y-130160000D03*
X153400000Y-127620000D03*
%TO.P,U1,NRST,RESET*%
%TO.N,unconnected-(U1-RESET-PadNRST)*%
X153400000Y-122540000D03*
%TO.P,U1,PA0,PA0*%
%TO.N,ADC_1*%
X153400000Y-92060000D03*
%TO.P,U1,PA1,PA1*%
%TO.N,ADC_2*%
X153400000Y-94600000D03*
%TO.P,U1,PA2,PA2*%
%TO.N,ADC_3*%
X153400000Y-97140000D03*
%TO.P,U1,PA3,PA3*%
%TO.N,ADC_4*%
X153400000Y-99680000D03*
%TO.P,U1,PA4,PA4*%
%TO.N,ADC_5*%
X153400000Y-102220000D03*
%TO.P,U1,PA5,PA5*%
%TO.N,ADC_6*%
X153400000Y-104760000D03*
%TO.P,U1,PA6,PA6*%
%TO.N,ADC_7*%
X153400000Y-107300000D03*
%TO.P,U1,PA7,PA7*%
%TO.N,ADC_BT*%
X153400000Y-109840000D03*
%TO.P,U1,PA8,PA8*%
%TO.N,unconnected-(U1-PadPA8)*%
X138160000Y-120000000D03*
%TO.P,U1,PA9,PA9*%
%TO.N,RF_IRQ*%
X138160000Y-117460000D03*
%TO.P,U1,PA10,PA10*%
%TO.N,RF_CE*%
X138160000Y-114920000D03*
%TO.P,U1,PA11,PA11*%
%TO.N,unconnected-(U1-PadPA11)*%
X138160000Y-112380000D03*
%TO.P,U1,PA12,PA12*%
%TO.N,unconnected-(U1-PadPA12)*%
X138160000Y-109840000D03*
%TO.P,U1,PA15,PA15*%
%TO.N,NSS*%
X138160000Y-107300000D03*
%TO.P,U1,PB0,PB0*%
%TO.N,unconnected-(U1-PadPB0)*%
X153400000Y-112380000D03*
%TO.P,U1,PB1,PB1*%
%TO.N,unconnected-(U1-PadPB1)*%
X153400000Y-114920000D03*
%TO.P,U1,PB3,PB3*%
%TO.N,SCK*%
X138160000Y-104760000D03*
%TO.P,U1,PB4,PB4*%
%TO.N,MISO*%
X138160000Y-102220000D03*
%TO.P,U1,PB5,PB5*%
%TO.N,MOSI*%
X138160000Y-99680000D03*
%TO.P,U1,PB6,PB6*%
%TO.N,unconnected-(U1-PadPB6)*%
X138160000Y-97140000D03*
%TO.P,U1,PB7,PB7*%
%TO.N,unconnected-(U1-PadPB7)*%
X138160000Y-94600000D03*
%TO.P,U1,PB8,PB8*%
%TO.N,unconnected-(U1-PadPB8)*%
X138160000Y-92060000D03*
%TO.P,U1,PB9,PB9*%
%TO.N,unconnected-(U1-PadPB9)*%
X138160000Y-89520000D03*
%TO.P,U1,PB10,PB10*%
%TO.N,unconnected-(U1-PadPB10)*%
X153400000Y-117460000D03*
%TO.P,U1,PB11,PB11*%
%TO.N,unconnected-(U1-PadPB11)*%
X153400000Y-120000000D03*
%TO.P,U1,PB12,PB12*%
%TO.N,Buzzer*%
X138160000Y-130160000D03*
%TO.P,U1,PB13,PB13*%
%TO.N,unconnected-(U1-PadPB13)*%
X138160000Y-127620000D03*
%TO.P,U1,PB14,PB14*%
%TO.N,unconnected-(U1-PadPB14)*%
X138160000Y-125080000D03*
%TO.P,U1,PB15,PB15*%
%TO.N,unconnected-(U1-PadPB15)*%
X138160000Y-122540000D03*
%TO.P,U1,PC13,PC13*%
%TO.N,unconnected-(U1-PadPC13)*%
X153400000Y-84440000D03*
%TO.P,U1,PC14,PC14*%
%TO.N,unconnected-(U1-PadPC14)*%
X153400000Y-86980000D03*
%TO.P,U1,PC15,PC15*%
%TO.N,unconnected-(U1-PadPC15)*%
X153400000Y-89520000D03*
%TO.P,U1,VBAT,Vbat*%
%TO.N,+3V3*%
X153400000Y-81900000D03*
%TD*%
D12*
%TO.P,R1,1*%
%TO.N,+8V*%
X122720000Y-123300000D03*
D13*
%TO.P,R1,2*%
%TO.N,ADC_BT*%
X132880000Y-123300000D03*
%TD*%
D12*
%TO.P,R2,1*%
%TO.N,GND*%
X122720000Y-128300000D03*
D13*
%TO.P,R2,2*%
%TO.N,ADC_BT*%
X132880000Y-128300000D03*
%TD*%
D15*
%TO.N,+3V3*%
X135100000Y-119300000D03*
X135700000Y-122900000D03*
%TO.N,ADC_6*%
X156800000Y-101900000D03*
%TO.N,ADC_5*%
X154000000Y-71600000D03*
X154515686Y-73715686D03*
%TO.N,+3V3*%
X158300000Y-71300000D03*
X160300000Y-71300000D03*
X142100000Y-94700000D03*
X142200000Y-97000000D03*
%TO.N,MISO*%
X144060000Y-106100000D03*
X145500000Y-106100000D03*
%TO.N,SCK*%
X140600000Y-104900000D03*
X145700000Y-104900000D03*
X144060000Y-104900000D03*
%TO.N,GND*%
X107000000Y-130800000D03*
X113400000Y-130700000D03*
X107200000Y-127700000D03*
X113600000Y-129100000D03*
X107000000Y-129100000D03*
%TD*%
D16*
%TO.N,+3V3*%
X135100000Y-119300000D02*
X135100000Y-122300000D01*
X135100000Y-122300000D02*
X135700000Y-122900000D01*
D17*
%TO.N,ADC_6*%
X156800000Y-101900000D02*
X156260000Y-101900000D01*
X156260000Y-101900000D02*
X153400000Y-104760000D01*
%TO.N,ADC_5*%
X154000000Y-73200000D02*
X154515686Y-73715686D01*
X154000000Y-71600000D02*
X154000000Y-73200000D01*
D16*
%TO.N,+3V3*%
X158300000Y-71300000D02*
X160300000Y-71300000D01*
X142200000Y-96500000D02*
X142100000Y-96400000D01*
X142200000Y-97000000D02*
X142200000Y-96500000D01*
X142100000Y-96400000D02*
X142100000Y-94700000D01*
D17*
%TO.N,MISO*%
X145500000Y-106100000D02*
X144060000Y-106100000D01*
%TO.N,SCK*%
X138300000Y-104900000D02*
X138160000Y-104760000D01*
X140600000Y-104900000D02*
X138300000Y-104900000D01*
X145700000Y-104900000D02*
X144060000Y-104900000D01*
%TD*%
%TA.AperFunction,Conductor*%
%TO.N,GND*%
G36*
X185001886Y-64100557D02*
G01*
X185593989Y-64118448D01*
X185601421Y-64118897D01*
X186189523Y-64172340D01*
X186196957Y-64173242D01*
X186780733Y-64262091D01*
X186788094Y-64263440D01*
X187365441Y-64387374D01*
X187372694Y-64389161D01*
X187941543Y-64547740D01*
X187948670Y-64549962D01*
X188506875Y-64742586D01*
X188513859Y-64745235D01*
X189059432Y-64971218D01*
X189066240Y-64974282D01*
X189597171Y-65232794D01*
X189603770Y-65236257D01*
X190096354Y-65514075D01*
X190118122Y-65526352D01*
X190124530Y-65530226D01*
X190620434Y-65850852D01*
X190626558Y-65855079D01*
X191102187Y-66205054D01*
X191108083Y-66209673D01*
X191561701Y-66587716D01*
X191567308Y-66592683D01*
X191997275Y-66997427D01*
X192002572Y-67002724D01*
X192407316Y-67432691D01*
X192412283Y-67438298D01*
X192790326Y-67891916D01*
X192794945Y-67897812D01*
X193144915Y-68373434D01*
X193149152Y-68379572D01*
X193295380Y-68605739D01*
X193469772Y-68875467D01*
X193473647Y-68881877D01*
X193763733Y-69396212D01*
X193767214Y-69402845D01*
X194025712Y-69933748D01*
X194028786Y-69940578D01*
X194254760Y-70486130D01*
X194257416Y-70493134D01*
X194450033Y-71051317D01*
X194452262Y-71058468D01*
X194610835Y-71627295D01*
X194612627Y-71634568D01*
X194736558Y-72211902D01*
X194737908Y-72219269D01*
X194826756Y-72803040D01*
X194827659Y-72810476D01*
X194881100Y-73398555D01*
X194881552Y-73406032D01*
X194899443Y-73998113D01*
X194899500Y-74001858D01*
X194899500Y-121998141D01*
X194899443Y-122001886D01*
X194881552Y-122593967D01*
X194881100Y-122601444D01*
X194827659Y-123189523D01*
X194826756Y-123196959D01*
X194737908Y-123780730D01*
X194736558Y-123788097D01*
X194612627Y-124365431D01*
X194610835Y-124372704D01*
X194452262Y-124941531D01*
X194450033Y-124948682D01*
X194257416Y-125506865D01*
X194254760Y-125513869D01*
X194028786Y-126059421D01*
X194025712Y-126066251D01*
X193767214Y-126597154D01*
X193763733Y-126603787D01*
X193473647Y-127118122D01*
X193469772Y-127124532D01*
X193149161Y-127620414D01*
X193144906Y-127626578D01*
X192794945Y-128102187D01*
X192790326Y-128108083D01*
X192412283Y-128561701D01*
X192407316Y-128567308D01*
X192002572Y-128997275D01*
X191997275Y-129002572D01*
X191567308Y-129407316D01*
X191561701Y-129412283D01*
X191108083Y-129790326D01*
X191102187Y-129794945D01*
X190626578Y-130144906D01*
X190620414Y-130149161D01*
X190124532Y-130469772D01*
X190118122Y-130473647D01*
X189603787Y-130763733D01*
X189597154Y-130767214D01*
X189066251Y-131025712D01*
X189059421Y-131028786D01*
X188513869Y-131254760D01*
X188506865Y-131257416D01*
X187948682Y-131450033D01*
X187941531Y-131452262D01*
X187372704Y-131610835D01*
X187365431Y-131612627D01*
X186788097Y-131736558D01*
X186780730Y-131737908D01*
X186196959Y-131826756D01*
X186189523Y-131827659D01*
X185601444Y-131881100D01*
X185593967Y-131881552D01*
X185001886Y-131899443D01*
X184998141Y-131899500D01*
X107001859Y-131899500D01*
X106998114Y-131899443D01*
X106406032Y-131881552D01*
X106398555Y-131881100D01*
X105810476Y-131827659D01*
X105803040Y-131826756D01*
X105219269Y-131737908D01*
X105211902Y-131736558D01*
X104634568Y-131612627D01*
X104627295Y-131610835D01*
X104058468Y-131452262D01*
X104051317Y-131450033D01*
X103493134Y-131257416D01*
X103486130Y-131254760D01*
X102940578Y-131028786D01*
X102933748Y-131025712D01*
X102456661Y-130793417D01*
X102402840Y-130767211D01*
X102396212Y-130763733D01*
X101881877Y-130473647D01*
X101875467Y-130469772D01*
X101396353Y-130160002D01*
X101379572Y-130149152D01*
X101373434Y-130144915D01*
X100994335Y-129865968D01*
X100897812Y-129794945D01*
X100891916Y-129790326D01*
X100438298Y-129412283D01*
X100432691Y-129407316D01*
X100200950Y-129189170D01*
X100002723Y-129002571D01*
X99997427Y-128997275D01*
X99592680Y-128567305D01*
X99587716Y-128561701D01*
X99384773Y-128318188D01*
X99369613Y-128299997D01*
X121415034Y-128299997D01*
X121415034Y-128300002D01*
X121434858Y-128526599D01*
X121434860Y-128526610D01*
X121493730Y-128746317D01*
X121493735Y-128746331D01*
X121589863Y-128952478D01*
X121640974Y-129025472D01*
X122320000Y-128346446D01*
X122320000Y-128352661D01*
X122347259Y-128454394D01*
X122399920Y-128545606D01*
X122474394Y-128620080D01*
X122565606Y-128672741D01*
X122667339Y-128700000D01*
X122673553Y-128700000D01*
X121994526Y-129379025D01*
X122067513Y-129430132D01*
X122067521Y-129430136D01*
X122273668Y-129526264D01*
X122273682Y-129526269D01*
X122493389Y-129585139D01*
X122493400Y-129585141D01*
X122719998Y-129604966D01*
X122720002Y-129604966D01*
X122946599Y-129585141D01*
X122946610Y-129585139D01*
X123166317Y-129526269D01*
X123166331Y-129526264D01*
X123372478Y-129430136D01*
X123445471Y-129379024D01*
X122766447Y-128700000D01*
X122772661Y-128700000D01*
X122874394Y-128672741D01*
X122965606Y-128620080D01*
X123040080Y-128545606D01*
X123092741Y-128454394D01*
X123120000Y-128352661D01*
X123120000Y-128346447D01*
X123799024Y-129025471D01*
X123850136Y-128952478D01*
X123946264Y-128746331D01*
X123946269Y-128746317D01*
X124005139Y-128526610D01*
X124005141Y-128526599D01*
X124024966Y-128300002D01*
X124024966Y-128299998D01*
X131574532Y-128299998D01*
X131574532Y-128300001D01*
X131594364Y-128526686D01*
X131594366Y-128526697D01*
X131653258Y-128746488D01*
X131653261Y-128746497D01*
X131749431Y-128952732D01*
X131749432Y-128952734D01*
X131879954Y-129139141D01*
X132040858Y-129300045D01*
X132040861Y-129300047D01*
X132227266Y-129430568D01*
X132433504Y-129526739D01*
X132653308Y-129585635D01*
X132815230Y-129599801D01*
X132879998Y-129605468D01*
X132880000Y-129605468D01*
X132880002Y-129605468D01*
X132936673Y-129600509D01*
X133106692Y-129585635D01*
X133326496Y-129526739D01*
X133532734Y-129430568D01*
X133719139Y-129300047D01*
X133880047Y-129139139D01*
X134010568Y-128952734D01*
X134106739Y-128746496D01*
X134165635Y-128526692D01*
X134185468Y-128300000D01*
X134181391Y-128253405D01*
X134179801Y-128235230D01*
X134165635Y-128073308D01*
X134106739Y-127853504D01*
X134010568Y-127647266D01*
X133880047Y-127460861D01*
X133880045Y-127460858D01*
X133719141Y-127299954D01*
X133532734Y-127169432D01*
X133532732Y-127169431D01*
X133326497Y-127073261D01*
X133326488Y-127073258D01*
X133106697Y-127014366D01*
X133106693Y-127014365D01*
X133106692Y-127014365D01*
X133106691Y-127014364D01*
X133106686Y-127014364D01*
X132880002Y-126994532D01*
X132879998Y-126994532D01*
X132653313Y-127014364D01*
X132653302Y-127014366D01*
X132433511Y-127073258D01*
X132433502Y-127073261D01*
X132227267Y-127169431D01*
X132227265Y-127169432D01*
X132040858Y-127299954D01*
X131879954Y-127460858D01*
X131749432Y-127647265D01*
X131749431Y-127647267D01*
X131653261Y-127853502D01*
X131653258Y-127853511D01*
X131594366Y-128073302D01*
X131594364Y-128073313D01*
X131574532Y-128299998D01*
X124024966Y-128299998D01*
X124024966Y-128299997D01*
X124005141Y-128073400D01*
X124005139Y-128073389D01*
X123946269Y-127853682D01*
X123946264Y-127853668D01*
X123850136Y-127647521D01*
X123850132Y-127647513D01*
X123799025Y-127574526D01*
X123120000Y-128253551D01*
X123120000Y-128247339D01*
X123092741Y-128145606D01*
X123040080Y-128054394D01*
X122965606Y-127979920D01*
X122874394Y-127927259D01*
X122772661Y-127900000D01*
X122766448Y-127900000D01*
X123445472Y-127220974D01*
X123372478Y-127169863D01*
X123166331Y-127073735D01*
X123166317Y-127073730D01*
X122946610Y-127014860D01*
X122946599Y-127014858D01*
X122720002Y-126995034D01*
X122719998Y-126995034D01*
X122493400Y-127014858D01*
X122493389Y-127014860D01*
X122273682Y-127073730D01*
X122273673Y-127073734D01*
X122067516Y-127169866D01*
X122067512Y-127169868D01*
X121994526Y-127220973D01*
X121994526Y-127220974D01*
X122673553Y-127900000D01*
X122667339Y-127900000D01*
X122565606Y-127927259D01*
X122474394Y-127979920D01*
X122399920Y-128054394D01*
X122347259Y-128145606D01*
X122320000Y-128247339D01*
X122320000Y-128253552D01*
X121640974Y-127574526D01*
X121640973Y-127574526D01*
X121589868Y-127647512D01*
X121589866Y-127647516D01*
X121493734Y-127853673D01*
X121493730Y-127853682D01*
X121434860Y-128073389D01*
X121434858Y-128073400D01*
X121415034Y-128299997D01*
X99369613Y-128299997D01*
X99209672Y-128108082D01*
X99205054Y-128102187D01*
X99183808Y-128073313D01*
X98855079Y-127626558D01*
X98850852Y-127620434D01*
X98530226Y-127124530D01*
X98526352Y-127118122D01*
X98468111Y-127014858D01*
X98236257Y-126603770D01*
X98232794Y-126597171D01*
X97974282Y-126066240D01*
X97971213Y-126059421D01*
X97967654Y-126050829D01*
X97896361Y-125878711D01*
X101149500Y-125878711D01*
X101149500Y-126121288D01*
X101179775Y-126351260D01*
X101181162Y-126361789D01*
X101183879Y-126371930D01*
X101243947Y-126596104D01*
X101330631Y-126805377D01*
X101336776Y-126820212D01*
X101458064Y-127030289D01*
X101458066Y-127030292D01*
X101458067Y-127030293D01*
X101605733Y-127222736D01*
X101605739Y-127222743D01*
X101777256Y-127394260D01*
X101777262Y-127394265D01*
X101969711Y-127541936D01*
X102179788Y-127663224D01*
X102403900Y-127756054D01*
X102638211Y-127818838D01*
X102798773Y-127839976D01*
X102878711Y-127850500D01*
X102878712Y-127850500D01*
X103121289Y-127850500D01*
X103169388Y-127844167D01*
X103361789Y-127818838D01*
X103596100Y-127756054D01*
X103820212Y-127663224D01*
X104030289Y-127541936D01*
X104222738Y-127394265D01*
X104394265Y-127222738D01*
X104541936Y-127030289D01*
X104663224Y-126820212D01*
X104756054Y-126596100D01*
X104818838Y-126361789D01*
X104850500Y-126121288D01*
X104850500Y-125878712D01*
X104818838Y-125638211D01*
X104756054Y-125403900D01*
X104663224Y-125179788D01*
X104541936Y-124969711D01*
X104457700Y-124859932D01*
X104394266Y-124777263D01*
X104394260Y-124777256D01*
X104222743Y-124605739D01*
X104222736Y-124605733D01*
X104030293Y-124458067D01*
X104030292Y-124458066D01*
X104030289Y-124458064D01*
X103820212Y-124336776D01*
X103820205Y-124336773D01*
X103596104Y-124243947D01*
X103361785Y-124181161D01*
X103121289Y-124149500D01*
X103121288Y-124149500D01*
X102878712Y-124149500D01*
X102878711Y-124149500D01*
X102638214Y-124181161D01*
X102403895Y-124243947D01*
X102179794Y-124336773D01*
X102179785Y-124336777D01*
X101969706Y-124458067D01*
X101777263Y-124605733D01*
X101777256Y-124605739D01*
X101605739Y-124777256D01*
X101605733Y-124777263D01*
X101458067Y-124969706D01*
X101336777Y-125179785D01*
X101336773Y-125179794D01*
X101243947Y-125403895D01*
X101181161Y-125638214D01*
X101149500Y-125878711D01*
X97896361Y-125878711D01*
X97745235Y-125513859D01*
X97742583Y-125506865D01*
X97707052Y-125403900D01*
X97549962Y-124948670D01*
X97547737Y-124941531D01*
X97524989Y-124859932D01*
X97389161Y-124372694D01*
X97387372Y-124365431D01*
X97381220Y-124336773D01*
X97263440Y-123788094D01*
X97262091Y-123780730D01*
X97256879Y-123746488D01*
X97188925Y-123299998D01*
X121414532Y-123299998D01*
X121414532Y-123300001D01*
X121434364Y-123526686D01*
X121434366Y-123526697D01*
X121493258Y-123746488D01*
X121493261Y-123746497D01*
X121589431Y-123952732D01*
X121589432Y-123952734D01*
X121719954Y-124139141D01*
X121880858Y-124300045D01*
X121880861Y-124300047D01*
X122067266Y-124430568D01*
X122273504Y-124526739D01*
X122493308Y-124585635D01*
X122655230Y-124599801D01*
X122719998Y-124605468D01*
X122720000Y-124605468D01*
X122720002Y-124605468D01*
X122776673Y-124600509D01*
X122946692Y-124585635D01*
X123166496Y-124526739D01*
X123372734Y-124430568D01*
X123559139Y-124300047D01*
X123720047Y-124139139D01*
X123850568Y-123952734D01*
X123946739Y-123746496D01*
X124005635Y-123526692D01*
X124025468Y-123300000D01*
X124025468Y-123299998D01*
X131574532Y-123299998D01*
X131574532Y-123300001D01*
X131594364Y-123526686D01*
X131594366Y-123526697D01*
X131653258Y-123746488D01*
X131653261Y-123746497D01*
X131749431Y-123952732D01*
X131749432Y-123952734D01*
X131879954Y-124139141D01*
X132040858Y-124300045D01*
X132040861Y-124300047D01*
X132227266Y-124430568D01*
X132433504Y-124526739D01*
X132653308Y-124585635D01*
X132815230Y-124599801D01*
X132879998Y-124605468D01*
X132880000Y-124605468D01*
X132880002Y-124605468D01*
X132936673Y-124600509D01*
X133106692Y-124585635D01*
X133326496Y-124526739D01*
X133532734Y-124430568D01*
X133719139Y-124300047D01*
X133880047Y-124139139D01*
X134010568Y-123952734D01*
X134106739Y-123746496D01*
X134165635Y-123526692D01*
X134185468Y-123300000D01*
X134165635Y-123073308D01*
X134106739Y-122853504D01*
X134010568Y-122647266D01*
X133880047Y-122460861D01*
X133880045Y-122460858D01*
X133719141Y-122299954D01*
X133532734Y-122169432D01*
X133532732Y-122169431D01*
X133326497Y-122073261D01*
X133326488Y-122073258D01*
X133106697Y-122014366D01*
X133106693Y-122014365D01*
X133106692Y-122014365D01*
X133106691Y-122014364D01*
X133106686Y-122014364D01*
X132880002Y-121994532D01*
X132879998Y-121994532D01*
X132653313Y-122014364D01*
X132653302Y-122014366D01*
X132433511Y-122073258D01*
X132433502Y-122073261D01*
X132227267Y-122169431D01*
X132227265Y-122169432D01*
X132040858Y-122299954D01*
X131879954Y-122460858D01*
X131749432Y-122647265D01*
X131749431Y-122647267D01*
X131653261Y-122853502D01*
X131653258Y-122853511D01*
X131594366Y-123073302D01*
X131594364Y-123073313D01*
X131574532Y-123299998D01*
X124025468Y-123299998D01*
X124005635Y-123073308D01*
X123946739Y-122853504D01*
X123850568Y-122647266D01*
X123720047Y-122460861D01*
X123720045Y-122460858D01*
X123559141Y-122299954D01*
X123372734Y-122169432D01*
X123372732Y-122169431D01*
X123166497Y-122073261D01*
X123166488Y-122073258D01*
X122946697Y-122014366D01*
X122946693Y-122014365D01*
X122946692Y-122014365D01*
X122946691Y-122014364D01*
X122946686Y-122014364D01*
X122720002Y-121994532D01*
X122719998Y-121994532D01*
X122493313Y-122014364D01*
X122493302Y-122014366D01*
X122273511Y-122073258D01*
X122273502Y-122073261D01*
X122067267Y-122169431D01*
X122067265Y-122169432D01*
X121880858Y-122299954D01*
X121719954Y-122460858D01*
X121589432Y-122647265D01*
X121589431Y-122647267D01*
X121493261Y-122853502D01*
X121493258Y-122853511D01*
X121434366Y-123073302D01*
X121434364Y-123073313D01*
X121414532Y-123299998D01*
X97188925Y-123299998D01*
X97173242Y-123196957D01*
X97172340Y-123189523D01*
X97168523Y-123147524D01*
X97118897Y-122601421D01*
X97118448Y-122593989D01*
X97100557Y-122001886D01*
X97100500Y-121998141D01*
X97100500Y-119300000D01*
X134244815Y-119300000D01*
X134263503Y-119477805D01*
X134263504Y-119477807D01*
X134318747Y-119647829D01*
X134318748Y-119647830D01*
X134318750Y-119647835D01*
X134332887Y-119672322D01*
X134349500Y-119734320D01*
X134349500Y-122373918D01*
X134349500Y-122373920D01*
X134349499Y-122373920D01*
X134378340Y-122518907D01*
X134378343Y-122518917D01*
X134434912Y-122655488D01*
X134434916Y-122655495D01*
X134452014Y-122681084D01*
X134452015Y-122681087D01*
X134517046Y-122778414D01*
X134517052Y-122778421D01*
X134865105Y-123126473D01*
X134895355Y-123175835D01*
X134918748Y-123247831D01*
X134918750Y-123247835D01*
X135008141Y-123402665D01*
X135049812Y-123448946D01*
X135127764Y-123535521D01*
X135127767Y-123535523D01*
X135127770Y-123535526D01*
X135272407Y-123640612D01*
X135435733Y-123713329D01*
X135610609Y-123750500D01*
X135610610Y-123750500D01*
X135789389Y-123750500D01*
X135789391Y-123750500D01*
X135964267Y-123713329D01*
X136127593Y-123640612D01*
X136272230Y-123535526D01*
X136280185Y-123526692D01*
X136298148Y-123506741D01*
X136391859Y-123402665D01*
X136481250Y-123247835D01*
X136536497Y-123077803D01*
X136555185Y-122900000D01*
X136536497Y-122722197D01*
X136496051Y-122597717D01*
X136481252Y-122552170D01*
X136481249Y-122552164D01*
X136391859Y-122397335D01*
X136345003Y-122345296D01*
X136272235Y-122264478D01*
X136272232Y-122264476D01*
X136272231Y-122264475D01*
X136272230Y-122264474D01*
X136127593Y-122159388D01*
X135964267Y-122086671D01*
X135964265Y-122086670D01*
X135958330Y-122084028D01*
X135959108Y-122082279D01*
X135919175Y-122057808D01*
X135886817Y-122025449D01*
X135853333Y-121964125D01*
X135850500Y-121937769D01*
X135850500Y-119734320D01*
X135867112Y-119672322D01*
X135881250Y-119647835D01*
X135936497Y-119477803D01*
X135955185Y-119300000D01*
X135936497Y-119122197D01*
X135881250Y-118952165D01*
X135791859Y-118797335D01*
X135745003Y-118745296D01*
X135672235Y-118664478D01*
X135672232Y-118664476D01*
X135672231Y-118664475D01*
X135672230Y-118664474D01*
X135527593Y-118559388D01*
X135364267Y-118486671D01*
X135364265Y-118486670D01*
X135236594Y-118459533D01*
X135189391Y-118449500D01*
X135010609Y-118449500D01*
X134979954Y-118456015D01*
X134835733Y-118486670D01*
X134835728Y-118486672D01*
X134672408Y-118559387D01*
X134527768Y-118664475D01*
X134408140Y-118797336D01*
X134318750Y-118952164D01*
X134318747Y-118952170D01*
X134263504Y-119122192D01*
X134263503Y-119122194D01*
X134244815Y-119300000D01*
X97100500Y-119300000D01*
X97100500Y-110832135D01*
X105679500Y-110832135D01*
X105679500Y-112627870D01*
X105679501Y-112627876D01*
X105685908Y-112687483D01*
X105736202Y-112822328D01*
X105736206Y-112822335D01*
X105822452Y-112937544D01*
X105822455Y-112937547D01*
X105937664Y-113023793D01*
X105937671Y-113023797D01*
X105937674Y-113023798D01*
X106069598Y-113073002D01*
X106125531Y-113114873D01*
X106149949Y-113180337D01*
X106135098Y-113248610D01*
X106113947Y-113276865D01*
X105991886Y-113398926D01*
X105856400Y-113592420D01*
X105856399Y-113592422D01*
X105756570Y-113806507D01*
X105756567Y-113806513D01*
X105699364Y-114019999D01*
X105699364Y-114020000D01*
X106596988Y-114020000D01*
X106564075Y-114077007D01*
X106530000Y-114204174D01*
X106530000Y-114335826D01*
X106564075Y-114462993D01*
X106596988Y-114520000D01*
X105699364Y-114520000D01*
X105756567Y-114733486D01*
X105756570Y-114733492D01*
X105856399Y-114947578D01*
X105991894Y-115141082D01*
X106158917Y-115308105D01*
X106352421Y-115443600D01*
X106566507Y-115543429D01*
X106566516Y-115543433D01*
X106780000Y-115600634D01*
X106780000Y-114703012D01*
X106837007Y-114735925D01*
X106964174Y-114770000D01*
X107095826Y-114770000D01*
X107222993Y-114735925D01*
X107280000Y-114703012D01*
X107280000Y-115600633D01*
X107493483Y-115543433D01*
X107493492Y-115543429D01*
X107707578Y-115443600D01*
X107901082Y-115308105D01*
X108068105Y-115141082D01*
X108203600Y-114947578D01*
X108303429Y-114733492D01*
X108303432Y-114733486D01*
X108360636Y-114520000D01*
X107463012Y-114520000D01*
X107495925Y-114462993D01*
X107530000Y-114335826D01*
X107530000Y-114204174D01*
X107495925Y-114077007D01*
X107463012Y-114020000D01*
X108360636Y-114020000D01*
X108360635Y-114019999D01*
X108303432Y-113806513D01*
X108303429Y-113806507D01*
X108203600Y-113592422D01*
X108203599Y-113592420D01*
X108068113Y-113398926D01*
X108068108Y-113398920D01*
X107946053Y-113276865D01*
X107912568Y-113215542D01*
X107917552Y-113145850D01*
X107959424Y-113089917D01*
X107990400Y-113073002D01*
X108122331Y-113023796D01*
X108237546Y-112937546D01*
X108323796Y-112822331D01*
X108374091Y-112687483D01*
X108380500Y-112627873D01*
X108380499Y-110832135D01*
X127719500Y-110832135D01*
X127719500Y-112627870D01*
X127719501Y-112627876D01*
X127725908Y-112687483D01*
X127776202Y-112822328D01*
X127776206Y-112822335D01*
X127862452Y-112937544D01*
X127862455Y-112937547D01*
X127977664Y-113023793D01*
X127977671Y-113023797D01*
X127977674Y-113023798D01*
X128109598Y-113073002D01*
X128165531Y-113114873D01*
X128189949Y-113180337D01*
X128175098Y-113248610D01*
X128153947Y-113276865D01*
X128031886Y-113398926D01*
X127896400Y-113592420D01*
X127896399Y-113592422D01*
X127796570Y-113806507D01*
X127796567Y-113806513D01*
X127739364Y-114019999D01*
X127739364Y-114020000D01*
X128636988Y-114020000D01*
X128604075Y-114077007D01*
X128570000Y-114204174D01*
X128570000Y-114335826D01*
X128604075Y-114462993D01*
X128636988Y-114520000D01*
X127739364Y-114520000D01*
X127796567Y-114733486D01*
X127796570Y-114733492D01*
X127896399Y-114947578D01*
X128031894Y-115141082D01*
X128198917Y-115308105D01*
X128392421Y-115443600D01*
X128606507Y-115543429D01*
X128606516Y-115543433D01*
X128820000Y-115600634D01*
X128820000Y-114703012D01*
X128877007Y-114735925D01*
X129004174Y-114770000D01*
X129135826Y-114770000D01*
X129262993Y-114735925D01*
X129320000Y-114703012D01*
X129320000Y-115600633D01*
X129533483Y-115543433D01*
X129533492Y-115543429D01*
X129747578Y-115443600D01*
X129941082Y-115308105D01*
X130108105Y-115141082D01*
X130243600Y-114947578D01*
X130343429Y-114733492D01*
X130343432Y-114733486D01*
X130400636Y-114520000D01*
X129503012Y-114520000D01*
X129535925Y-114462993D01*
X129570000Y-114335826D01*
X129570000Y-114204174D01*
X129535925Y-114077007D01*
X129503012Y-114020000D01*
X130400636Y-114020000D01*
X130400635Y-114019999D01*
X130343432Y-113806513D01*
X130343429Y-113806507D01*
X130243600Y-113592422D01*
X130243599Y-113592420D01*
X130108113Y-113398926D01*
X130108108Y-113398920D01*
X129986053Y-113276865D01*
X129952568Y-113215542D01*
X129957552Y-113145850D01*
X129999424Y-113089917D01*
X130030400Y-113073002D01*
X130162331Y-113023796D01*
X130277546Y-112937546D01*
X130363796Y-112822331D01*
X130414091Y-112687483D01*
X130420500Y-112627873D01*
X130420499Y-110832128D01*
X130414091Y-110772517D01*
X130370118Y-110654620D01*
X130363797Y-110637671D01*
X130363793Y-110637664D01*
X130277547Y-110522455D01*
X130277544Y-110522452D01*
X130162335Y-110436206D01*
X130162328Y-110436202D01*
X130027482Y-110385908D01*
X130027483Y-110385908D01*
X129967883Y-110379501D01*
X129967881Y-110379500D01*
X129967873Y-110379500D01*
X129967864Y-110379500D01*
X128172129Y-110379500D01*
X128172123Y-110379501D01*
X128112516Y-110385908D01*
X127977671Y-110436202D01*
X127977664Y-110436206D01*
X127862455Y-110522452D01*
X127862452Y-110522455D01*
X127776206Y-110637664D01*
X127776202Y-110637671D01*
X127725908Y-110772517D01*
X127719501Y-110832116D01*
X127719501Y-110832123D01*
X127719500Y-110832135D01*
X108380499Y-110832135D01*
X108380499Y-110832128D01*
X108374091Y-110772517D01*
X108330118Y-110654620D01*
X108323797Y-110637671D01*
X108323793Y-110637664D01*
X108237547Y-110522455D01*
X108237544Y-110522452D01*
X108122335Y-110436206D01*
X108122328Y-110436202D01*
X107987482Y-110385908D01*
X107987483Y-110385908D01*
X107927883Y-110379501D01*
X107927881Y-110379500D01*
X107927873Y-110379500D01*
X107927864Y-110379500D01*
X106132129Y-110379500D01*
X106132123Y-110379501D01*
X106072516Y-110385908D01*
X105937671Y-110436202D01*
X105937664Y-110436206D01*
X105822455Y-110522452D01*
X105822452Y-110522455D01*
X105736206Y-110637664D01*
X105736202Y-110637671D01*
X105685908Y-110772517D01*
X105679501Y-110832116D01*
X105679501Y-110832123D01*
X105679500Y-110832135D01*
X97100500Y-110832135D01*
X97100500Y-102750000D01*
X102200602Y-102750000D01*
X102219307Y-102987681D01*
X102219307Y-102987684D01*
X102219308Y-102987686D01*
X102273016Y-103211395D01*
X102274968Y-103219523D01*
X102274971Y-103219531D01*
X102366203Y-103439788D01*
X102366205Y-103439791D01*
X102490777Y-103643075D01*
X102490778Y-103643077D01*
X102530854Y-103690000D01*
X102645623Y-103824377D01*
X102719777Y-103887710D01*
X102826922Y-103979221D01*
X102826924Y-103979222D01*
X103030208Y-104103794D01*
X103030211Y-104103796D01*
X103242217Y-104191610D01*
X103250480Y-104195033D01*
X103482314Y-104250692D01*
X103720000Y-104269398D01*
X103957686Y-104250692D01*
X104189520Y-104195033D01*
X104355361Y-104126340D01*
X104409788Y-104103796D01*
X104409789Y-104103795D01*
X104409792Y-104103794D01*
X104613080Y-103979219D01*
X104794377Y-103824377D01*
X104949219Y-103643080D01*
X105073794Y-103439792D01*
X105165033Y-103219520D01*
X105220692Y-102987686D01*
X105239398Y-102750000D01*
X105220692Y-102512314D01*
X105165033Y-102280480D01*
X105151509Y-102247829D01*
X105073796Y-102060211D01*
X105073794Y-102060208D01*
X104949222Y-101856924D01*
X104949221Y-101856922D01*
X104852466Y-101743637D01*
X104794377Y-101675623D01*
X104649825Y-101552164D01*
X104613077Y-101520778D01*
X104613075Y-101520777D01*
X104409791Y-101396205D01*
X104409788Y-101396203D01*
X104189531Y-101304971D01*
X104189523Y-101304968D01*
X104189521Y-101304967D01*
X104189520Y-101304967D01*
X103957686Y-101249308D01*
X103957684Y-101249307D01*
X103957681Y-101249307D01*
X103720000Y-101230602D01*
X103482318Y-101249307D01*
X103482314Y-101249308D01*
X103264909Y-101301503D01*
X103250476Y-101304968D01*
X103250468Y-101304971D01*
X103030211Y-101396203D01*
X103030208Y-101396205D01*
X102826924Y-101520777D01*
X102826922Y-101520778D01*
X102645623Y-101675623D01*
X102490778Y-101856922D01*
X102490777Y-101856924D01*
X102366205Y-102060208D01*
X102366203Y-102060211D01*
X102274971Y-102280468D01*
X102274968Y-102280476D01*
X102219307Y-102512318D01*
X102200602Y-102750000D01*
X97100500Y-102750000D01*
X97100500Y-83980007D01*
X98599500Y-83980007D01*
X98599500Y-100019992D01*
X98614799Y-100056928D01*
X98614800Y-100056929D01*
X98643071Y-100085200D01*
X98680009Y-100100500D01*
X105775500Y-100100500D01*
X105842539Y-100120185D01*
X105888294Y-100172989D01*
X105899500Y-100224500D01*
X105899500Y-105619992D01*
X105914799Y-105656928D01*
X105914800Y-105656929D01*
X105943071Y-105685200D01*
X105980009Y-105700500D01*
X105980011Y-105700500D01*
X127019989Y-105700500D01*
X127019991Y-105700500D01*
X127056929Y-105685200D01*
X127085200Y-105656929D01*
X127100500Y-105619991D01*
X127100500Y-102750000D01*
X128700602Y-102750000D01*
X128719307Y-102987681D01*
X128719307Y-102987684D01*
X128719308Y-102987686D01*
X128773016Y-103211395D01*
X128774968Y-103219523D01*
X128774971Y-103219531D01*
X128866203Y-103439788D01*
X128866205Y-103439791D01*
X128990777Y-103643075D01*
X128990778Y-103643077D01*
X129030854Y-103690000D01*
X129145623Y-103824377D01*
X129219777Y-103887710D01*
X129326922Y-103979221D01*
X129326924Y-103979222D01*
X129530208Y-104103794D01*
X129530211Y-104103796D01*
X129742217Y-104191610D01*
X129750480Y-104195033D01*
X129982314Y-104250692D01*
X130220000Y-104269398D01*
X130457686Y-104250692D01*
X130689520Y-104195033D01*
X130855361Y-104126340D01*
X130909788Y-104103796D01*
X130909789Y-104103795D01*
X130909792Y-104103794D01*
X131113080Y-103979219D01*
X131294377Y-103824377D01*
X131449219Y-103643080D01*
X131573794Y-103439792D01*
X131665033Y-103219520D01*
X131720692Y-102987686D01*
X131739398Y-102750000D01*
X131720692Y-102512314D01*
X131665033Y-102280480D01*
X131651509Y-102247829D01*
X131573796Y-102060211D01*
X131573794Y-102060208D01*
X131449222Y-101856924D01*
X131449221Y-101856922D01*
X131352466Y-101743637D01*
X131294377Y-101675623D01*
X131149825Y-101552164D01*
X131113077Y-101520778D01*
X131113075Y-101520777D01*
X130909791Y-101396205D01*
X130909788Y-101396203D01*
X130689531Y-101304971D01*
X130689523Y-101304968D01*
X130689521Y-101304967D01*
X130689520Y-101304967D01*
X130457686Y-101249308D01*
X130457684Y-101249307D01*
X130457681Y-101249307D01*
X130220000Y-101230602D01*
X129982318Y-101249307D01*
X129982314Y-101249308D01*
X129764909Y-101301503D01*
X129750476Y-101304968D01*
X129750468Y-101304971D01*
X129530211Y-101396203D01*
X129530208Y-101396205D01*
X129326924Y-101520777D01*
X129326922Y-101520778D01*
X129145623Y-101675623D01*
X128990778Y-101856922D01*
X128990777Y-101856924D01*
X128866205Y-102060208D01*
X128866203Y-102060211D01*
X128774971Y-102280468D01*
X128774968Y-102280476D01*
X128719307Y-102512318D01*
X128700602Y-102750000D01*
X127100500Y-102750000D01*
X127100500Y-100224500D01*
X127120185Y-100157461D01*
X127172989Y-100111706D01*
X127224500Y-100100500D01*
X133019989Y-100100500D01*
X133019991Y-100100500D01*
X133056929Y-100085200D01*
X133085200Y-100056929D01*
X133100500Y-100019991D01*
X133100500Y-84980009D01*
X133085200Y-84943071D01*
X133056929Y-84914800D01*
X133056928Y-84914799D01*
X133019992Y-84899500D01*
X133019991Y-84899500D01*
X127224500Y-84899500D01*
X127157461Y-84879815D01*
X127111706Y-84827011D01*
X127100500Y-84775500D01*
X127100500Y-81750000D01*
X128700602Y-81750000D01*
X128719307Y-81987681D01*
X128719307Y-81987684D01*
X128719308Y-81987686D01*
X128751090Y-82120068D01*
X128774968Y-82219523D01*
X128774971Y-82219531D01*
X128866203Y-82439788D01*
X128866205Y-82439791D01*
X128990777Y-82643075D01*
X128990778Y-82643077D01*
X128990781Y-82643080D01*
X129145623Y-82824377D01*
X129219777Y-82887710D01*
X129326922Y-82979221D01*
X129326924Y-82979222D01*
X129530208Y-83103794D01*
X129530211Y-83103796D01*
X129692420Y-83170984D01*
X129750480Y-83195033D01*
X129982314Y-83250692D01*
X130220000Y-83269398D01*
X130457686Y-83250692D01*
X130689520Y-83195033D01*
X130813729Y-83143584D01*
X130909788Y-83103796D01*
X130909789Y-83103795D01*
X130909792Y-83103794D01*
X131113080Y-82979219D01*
X131294377Y-82824377D01*
X131449219Y-82643080D01*
X131573794Y-82439792D01*
X131665033Y-82219520D01*
X131720692Y-81987686D01*
X131727593Y-81899997D01*
X136892677Y-81899997D01*
X136892677Y-81900002D01*
X136911929Y-82120062D01*
X136911930Y-82120070D01*
X136969104Y-82333445D01*
X136969105Y-82333447D01*
X136969106Y-82333450D01*
X137018694Y-82439792D01*
X137062466Y-82533662D01*
X137062468Y-82533666D01*
X137189170Y-82714615D01*
X137189175Y-82714621D01*
X137345378Y-82870824D01*
X137345384Y-82870829D01*
X137526333Y-82997531D01*
X137526335Y-82997532D01*
X137526338Y-82997534D01*
X137625462Y-83043756D01*
X137655781Y-83057894D01*
X137708220Y-83104066D01*
X137727372Y-83171260D01*
X137707156Y-83238141D01*
X137655781Y-83282658D01*
X137526590Y-83342901D01*
X137461811Y-83388258D01*
X138071414Y-83997861D01*
X137986306Y-84020667D01*
X137883694Y-84079910D01*
X137799910Y-84163694D01*
X137740667Y-84266306D01*
X137717861Y-84351414D01*
X137108258Y-83741811D01*
X137062901Y-83806590D01*
X136969579Y-84006720D01*
X136969575Y-84006729D01*
X136912426Y-84220013D01*
X136912424Y-84220023D01*
X136893179Y-84439999D01*
X136893179Y-84440000D01*
X136912424Y-84659976D01*
X136912426Y-84659986D01*
X136969575Y-84873270D01*
X136969580Y-84873284D01*
X137062898Y-85073405D01*
X137062901Y-85073411D01*
X137108258Y-85138187D01*
X137108259Y-85138188D01*
X137717861Y-84528585D01*
X137740667Y-84613694D01*
X137799910Y-84716306D01*
X137883694Y-84800090D01*
X137986306Y-84859333D01*
X138071414Y-84882137D01*
X137461810Y-85491740D01*
X137526589Y-85537098D01*
X137655781Y-85597342D01*
X137708220Y-85643514D01*
X137727372Y-85710708D01*
X137707156Y-85777589D01*
X137655781Y-85822106D01*
X137526340Y-85882465D01*
X137526338Y-85882466D01*
X137345377Y-86009175D01*
X137189175Y-86165377D01*
X137062466Y-86346338D01*
X137062465Y-86346340D01*
X136969107Y-86546548D01*
X136969104Y-86546554D01*
X136911930Y-86759929D01*
X136911929Y-86759937D01*
X136892677Y-86979997D01*
X136892677Y-86980002D01*
X136911929Y-87200062D01*
X136911930Y-87200070D01*
X136969104Y-87413445D01*
X136969105Y-87413447D01*
X136969106Y-87413450D01*
X137062466Y-87613662D01*
X137062468Y-87613666D01*
X137189170Y-87794615D01*
X137189175Y-87794621D01*
X137345378Y-87950824D01*
X137345384Y-87950829D01*
X137526333Y-88077531D01*
X137526335Y-88077532D01*
X137526338Y-88077534D01*
X137645748Y-88133215D01*
X137655189Y-88137618D01*
X137707628Y-88183790D01*
X137726780Y-88250984D01*
X137706564Y-88317865D01*
X137655189Y-88362382D01*
X137526340Y-88422465D01*
X137526338Y-88422466D01*
X137345377Y-88549175D01*
X137189175Y-88705377D01*
X137062466Y-88886338D01*
X137062465Y-88886340D01*
X136969107Y-89086548D01*
X136969104Y-89086554D01*
X136911930Y-89299929D01*
X136911929Y-89299937D01*
X136892677Y-89519997D01*
X136892677Y-89520002D01*
X136911929Y-89740062D01*
X136911930Y-89740070D01*
X136969104Y-89953445D01*
X136969105Y-89953447D01*
X136969106Y-89953450D01*
X137062466Y-90153662D01*
X137062468Y-90153666D01*
X137189170Y-90334615D01*
X137189175Y-90334621D01*
X137345378Y-90490824D01*
X137345384Y-90490829D01*
X137526333Y-90617531D01*
X137526335Y-90617532D01*
X137526338Y-90617534D01*
X137645748Y-90673215D01*
X137655189Y-90677618D01*
X137707628Y-90723790D01*
X137726780Y-90790984D01*
X137706564Y-90857865D01*
X137655189Y-90902382D01*
X137526340Y-90962465D01*
X137526338Y-90962466D01*
X137345377Y-91089175D01*
X137189175Y-91245377D01*
X137062466Y-91426338D01*
X137062465Y-91426340D01*
X136969107Y-91626548D01*
X136969104Y-91626554D01*
X136911930Y-91839929D01*
X136911929Y-91839937D01*
X136892677Y-92059997D01*
X136892677Y-92060002D01*
X136911929Y-92280062D01*
X136911930Y-92280070D01*
X136969104Y-92493445D01*
X136969105Y-92493447D01*
X136969106Y-92493450D01*
X137062466Y-92693662D01*
X137062468Y-92693666D01*
X137189170Y-92874615D01*
X137189175Y-92874621D01*
X137345378Y-93030824D01*
X137345384Y-93030829D01*
X137526333Y-93157531D01*
X137526335Y-93157532D01*
X137526338Y-93157534D01*
X137645748Y-93213215D01*
X137655189Y-93217618D01*
X137707628Y-93263790D01*
X137726780Y-93330984D01*
X137706564Y-93397865D01*
X137655189Y-93442382D01*
X137526340Y-93502465D01*
X137526338Y-93502466D01*
X137345377Y-93629175D01*
X137189175Y-93785377D01*
X137062466Y-93966338D01*
X137062465Y-93966340D01*
X136969107Y-94166548D01*
X136969104Y-94166554D01*
X136911930Y-94379929D01*
X136911929Y-94379937D01*
X136892677Y-94599997D01*
X136892677Y-94600002D01*
X136911929Y-94820062D01*
X136911930Y-94820070D01*
X136969104Y-95033445D01*
X136969105Y-95033447D01*
X136969106Y-95033450D01*
X137062466Y-95233662D01*
X137062468Y-95233666D01*
X137189170Y-95414615D01*
X137189175Y-95414621D01*
X137345378Y-95570824D01*
X137345384Y-95570829D01*
X137526333Y-95697531D01*
X137526335Y-95697532D01*
X137526338Y-95697534D01*
X137645748Y-95753215D01*
X137655189Y-95757618D01*
X137707628Y-95803790D01*
X137726780Y-95870984D01*
X137706564Y-95937865D01*
X137655189Y-95982382D01*
X137526340Y-96042465D01*
X137526338Y-96042466D01*
X137345377Y-96169175D01*
X137189175Y-96325377D01*
X137062466Y-96506338D01*
X137062465Y-96506340D01*
X136969107Y-96706548D01*
X136969104Y-96706554D01*
X136911930Y-96919929D01*
X136911929Y-96919937D01*
X136892677Y-97139997D01*
X136892677Y-97140002D01*
X136911929Y-97360062D01*
X136911930Y-97360070D01*
X136969104Y-97573445D01*
X136969105Y-97573447D01*
X136969106Y-97573450D01*
X137047054Y-97740610D01*
X137062466Y-97773662D01*
X137062468Y-97773666D01*
X137189170Y-97954615D01*
X137189175Y-97954621D01*
X137345378Y-98110824D01*
X137345384Y-98110829D01*
X137526333Y-98237531D01*
X137526335Y-98237532D01*
X137526338Y-98237534D01*
X137645748Y-98293215D01*
X137655189Y-98297618D01*
X137707628Y-98343790D01*
X137726780Y-98410984D01*
X137706564Y-98477865D01*
X137655189Y-98522382D01*
X137526340Y-98582465D01*
X137526338Y-98582466D01*
X137345377Y-98709175D01*
X137189175Y-98865377D01*
X137062466Y-99046338D01*
X137062465Y-99046340D01*
X136969107Y-99246548D01*
X136969104Y-99246554D01*
X136911930Y-99459929D01*
X136911929Y-99459937D01*
X136892677Y-99679997D01*
X136892677Y-99680002D01*
X136911929Y-99900062D01*
X136911930Y-99900070D01*
X136969104Y-100113445D01*
X136969105Y-100113447D01*
X136969106Y-100113450D01*
X137039151Y-100263663D01*
X137062466Y-100313662D01*
X137062468Y-100313666D01*
X137189170Y-100494615D01*
X137189175Y-100494621D01*
X137345378Y-100650824D01*
X137345384Y-100650829D01*
X137526333Y-100777531D01*
X137526335Y-100777532D01*
X137526338Y-100777534D01*
X137645748Y-100833215D01*
X137655189Y-100837618D01*
X137707628Y-100883790D01*
X137726780Y-100950984D01*
X137706564Y-101017865D01*
X137655189Y-101062382D01*
X137526340Y-101122465D01*
X137526338Y-101122466D01*
X137345377Y-101249175D01*
X137189175Y-101405377D01*
X137062466Y-101586338D01*
X137062465Y-101586340D01*
X136969107Y-101786548D01*
X136969104Y-101786554D01*
X136911930Y-101999929D01*
X136911929Y-101999937D01*
X136892677Y-102219997D01*
X136892677Y-102220002D01*
X136911929Y-102440062D01*
X136911930Y-102440070D01*
X136969104Y-102653445D01*
X136969105Y-102653447D01*
X136969106Y-102653450D01*
X137039151Y-102803663D01*
X137062466Y-102853662D01*
X137062468Y-102853666D01*
X137189170Y-103034615D01*
X137189175Y-103034621D01*
X137345378Y-103190824D01*
X137345384Y-103190829D01*
X137526333Y-103317531D01*
X137526335Y-103317532D01*
X137526338Y-103317534D01*
X137645748Y-103373215D01*
X137655189Y-103377618D01*
X137707628Y-103423790D01*
X137726780Y-103490984D01*
X137706564Y-103557865D01*
X137655189Y-103602382D01*
X137526340Y-103662465D01*
X137526338Y-103662466D01*
X137345377Y-103789175D01*
X137189175Y-103945377D01*
X137062466Y-104126338D01*
X137062465Y-104126340D01*
X136969107Y-104326548D01*
X136969104Y-104326554D01*
X136911930Y-104539929D01*
X136911929Y-104539937D01*
X136892677Y-104759997D01*
X136892677Y-104760002D01*
X136911929Y-104980062D01*
X136911930Y-104980070D01*
X136969104Y-105193445D01*
X136969105Y-105193447D01*
X136969106Y-105193450D01*
X136994466Y-105247835D01*
X137062466Y-105393662D01*
X137062468Y-105393666D01*
X137189170Y-105574615D01*
X137189175Y-105574621D01*
X137345378Y-105730824D01*
X137345384Y-105730829D01*
X137526333Y-105857531D01*
X137526335Y-105857532D01*
X137526338Y-105857534D01*
X137645748Y-105913215D01*
X137655189Y-105917618D01*
X137707628Y-105963790D01*
X137726780Y-106030984D01*
X137706564Y-106097865D01*
X137655189Y-106142382D01*
X137526340Y-106202465D01*
X137526338Y-106202466D01*
X137345377Y-106329175D01*
X137189175Y-106485377D01*
X137062466Y-106666338D01*
X137062465Y-106666340D01*
X136969107Y-106866548D01*
X136969104Y-106866554D01*
X136911930Y-107079929D01*
X136911929Y-107079937D01*
X136892677Y-107299997D01*
X136892677Y-107300002D01*
X136911929Y-107520062D01*
X136911930Y-107520070D01*
X136969104Y-107733445D01*
X136969105Y-107733447D01*
X136969106Y-107733450D01*
X137062466Y-107933662D01*
X137062468Y-107933666D01*
X137189170Y-108114615D01*
X137189175Y-108114621D01*
X137345378Y-108270824D01*
X137345384Y-108270829D01*
X137526333Y-108397531D01*
X137526335Y-108397532D01*
X137526338Y-108397534D01*
X137645748Y-108453215D01*
X137655189Y-108457618D01*
X137707628Y-108503790D01*
X137726780Y-108570984D01*
X137706564Y-108637865D01*
X137655189Y-108682382D01*
X137526340Y-108742465D01*
X137526338Y-108742466D01*
X137345377Y-108869175D01*
X137189175Y-109025377D01*
X137062466Y-109206338D01*
X137062465Y-109206340D01*
X136969107Y-109406548D01*
X136969104Y-109406554D01*
X136911930Y-109619929D01*
X136911929Y-109619937D01*
X136892677Y-109839997D01*
X136892677Y-109840002D01*
X136911929Y-110060062D01*
X136911930Y-110060070D01*
X136969104Y-110273445D01*
X136969105Y-110273447D01*
X136969106Y-110273450D01*
X137044998Y-110436202D01*
X137062466Y-110473662D01*
X137062468Y-110473666D01*
X137189170Y-110654615D01*
X137189175Y-110654621D01*
X137345378Y-110810824D01*
X137345384Y-110810829D01*
X137526333Y-110937531D01*
X137526335Y-110937532D01*
X137526338Y-110937534D01*
X137645748Y-110993215D01*
X137655189Y-110997618D01*
X137707628Y-111043790D01*
X137726780Y-111110984D01*
X137706564Y-111177865D01*
X137655189Y-111222382D01*
X137526340Y-111282465D01*
X137526338Y-111282466D01*
X137345377Y-111409175D01*
X137189175Y-111565377D01*
X137062466Y-111746338D01*
X137062465Y-111746340D01*
X136969107Y-111946548D01*
X136969104Y-111946554D01*
X136911930Y-112159929D01*
X136911929Y-112159937D01*
X136892677Y-112379997D01*
X136892677Y-112380002D01*
X136911929Y-112600062D01*
X136911930Y-112600070D01*
X136969104Y-112813445D01*
X136969105Y-112813447D01*
X136969106Y-112813450D01*
X137026972Y-112937544D01*
X137062466Y-113013662D01*
X137062468Y-113013666D01*
X137189170Y-113194615D01*
X137189175Y-113194621D01*
X137345378Y-113350824D01*
X137345384Y-113350829D01*
X137526333Y-113477531D01*
X137526335Y-113477532D01*
X137526338Y-113477534D01*
X137574517Y-113500000D01*
X137655189Y-113537618D01*
X137707628Y-113583790D01*
X137726780Y-113650984D01*
X137706564Y-113717865D01*
X137655189Y-113762382D01*
X137526340Y-113822465D01*
X137526338Y-113822466D01*
X137345377Y-113949175D01*
X137189175Y-114105377D01*
X137062466Y-114286338D01*
X137062465Y-114286340D01*
X136969107Y-114486548D01*
X136969104Y-114486554D01*
X136911930Y-114699929D01*
X136911929Y-114699937D01*
X136892677Y-114919997D01*
X136892677Y-114920002D01*
X136911929Y-115140062D01*
X136911930Y-115140070D01*
X136969104Y-115353445D01*
X136969105Y-115353447D01*
X136969106Y-115353450D01*
X137057694Y-115543429D01*
X137062466Y-115553662D01*
X137062468Y-115553666D01*
X137189170Y-115734615D01*
X137189175Y-115734621D01*
X137345378Y-115890824D01*
X137345384Y-115890829D01*
X137526333Y-116017531D01*
X137526335Y-116017532D01*
X137526338Y-116017534D01*
X137645748Y-116073215D01*
X137655189Y-116077618D01*
X137707628Y-116123790D01*
X137726780Y-116190984D01*
X137706564Y-116257865D01*
X137655189Y-116302382D01*
X137526340Y-116362465D01*
X137526338Y-116362466D01*
X137345377Y-116489175D01*
X137189175Y-116645377D01*
X137062466Y-116826338D01*
X137062465Y-116826340D01*
X136969107Y-117026548D01*
X136969104Y-117026554D01*
X136911930Y-117239929D01*
X136911929Y-117239937D01*
X136892677Y-117459997D01*
X136892677Y-117460002D01*
X136911929Y-117680062D01*
X136911930Y-117680070D01*
X136969104Y-117893445D01*
X136969105Y-117893447D01*
X136969106Y-117893450D01*
X136997109Y-117953502D01*
X137062466Y-118093662D01*
X137062468Y-118093666D01*
X137189170Y-118274615D01*
X137189175Y-118274621D01*
X137345378Y-118430824D01*
X137345384Y-118430829D01*
X137526333Y-118557531D01*
X137526335Y-118557532D01*
X137526338Y-118557534D01*
X137645748Y-118613215D01*
X137655189Y-118617618D01*
X137707628Y-118663790D01*
X137726780Y-118730984D01*
X137706564Y-118797865D01*
X137655189Y-118842382D01*
X137526340Y-118902465D01*
X137526338Y-118902466D01*
X137345377Y-119029175D01*
X137189175Y-119185377D01*
X137062466Y-119366338D01*
X137062465Y-119366340D01*
X136969107Y-119566548D01*
X136969104Y-119566554D01*
X136911930Y-119779929D01*
X136911929Y-119779937D01*
X136892677Y-119999997D01*
X136892677Y-120000002D01*
X136911929Y-120220062D01*
X136911930Y-120220070D01*
X136969104Y-120433445D01*
X136969105Y-120433447D01*
X136969106Y-120433450D01*
X137000139Y-120500000D01*
X137062466Y-120633662D01*
X137062468Y-120633666D01*
X137189170Y-120814615D01*
X137189175Y-120814621D01*
X137345378Y-120970824D01*
X137345384Y-120970829D01*
X137526333Y-121097531D01*
X137526335Y-121097532D01*
X137526338Y-121097534D01*
X137603815Y-121133662D01*
X137655189Y-121157618D01*
X137707628Y-121203790D01*
X137726780Y-121270984D01*
X137706564Y-121337865D01*
X137655189Y-121382382D01*
X137526340Y-121442465D01*
X137526338Y-121442466D01*
X137345377Y-121569175D01*
X137189175Y-121725377D01*
X137062466Y-121906338D01*
X137062465Y-121906340D01*
X136969107Y-122106548D01*
X136969104Y-122106554D01*
X136911930Y-122319929D01*
X136911929Y-122319937D01*
X136892677Y-122539997D01*
X136892677Y-122540002D01*
X136911929Y-122760062D01*
X136911930Y-122760070D01*
X136969104Y-122973445D01*
X136969105Y-122973447D01*
X136969106Y-122973450D01*
X137050278Y-123147524D01*
X137062466Y-123173662D01*
X137062468Y-123173666D01*
X137189170Y-123354615D01*
X137189175Y-123354621D01*
X137345378Y-123510824D01*
X137345384Y-123510829D01*
X137526333Y-123637531D01*
X137526335Y-123637532D01*
X137526338Y-123637534D01*
X137645748Y-123693215D01*
X137655189Y-123697618D01*
X137707628Y-123743790D01*
X137726780Y-123810984D01*
X137706564Y-123877865D01*
X137655189Y-123922382D01*
X137526340Y-123982465D01*
X137526338Y-123982466D01*
X137345377Y-124109175D01*
X137189175Y-124265377D01*
X137062466Y-124446338D01*
X137062465Y-124446340D01*
X136969107Y-124646548D01*
X136969104Y-124646554D01*
X136911930Y-124859929D01*
X136911929Y-124859937D01*
X136892677Y-125079997D01*
X136892677Y-125080002D01*
X136911929Y-125300062D01*
X136911930Y-125300070D01*
X136969104Y-125513445D01*
X136969105Y-125513447D01*
X136969106Y-125513450D01*
X137027283Y-125638211D01*
X137062466Y-125713662D01*
X137062468Y-125713666D01*
X137189170Y-125894615D01*
X137189175Y-125894621D01*
X137345378Y-126050824D01*
X137345384Y-126050829D01*
X137526333Y-126177531D01*
X137526335Y-126177532D01*
X137526338Y-126177534D01*
X137645748Y-126233215D01*
X137655189Y-126237618D01*
X137707628Y-126283790D01*
X137726780Y-126350984D01*
X137706564Y-126417865D01*
X137655189Y-126462382D01*
X137526340Y-126522465D01*
X137526338Y-126522466D01*
X137345377Y-126649175D01*
X137189175Y-126805377D01*
X137062466Y-126986338D01*
X137062465Y-126986340D01*
X136969107Y-127186548D01*
X136969104Y-127186554D01*
X136911930Y-127399929D01*
X136911929Y-127399937D01*
X136892677Y-127619997D01*
X136892677Y-127620002D01*
X136911929Y-127840062D01*
X136911930Y-127840070D01*
X136969104Y-128053445D01*
X136969105Y-128053447D01*
X136969106Y-128053450D01*
X137059518Y-128247339D01*
X137062466Y-128253662D01*
X137062468Y-128253666D01*
X137189170Y-128434615D01*
X137189175Y-128434621D01*
X137345378Y-128590824D01*
X137345384Y-128590829D01*
X137526333Y-128717531D01*
X137526335Y-128717532D01*
X137526338Y-128717534D01*
X137588450Y-128746497D01*
X137655189Y-128777618D01*
X137707628Y-128823790D01*
X137726780Y-128890984D01*
X137706564Y-128957865D01*
X137655189Y-129002382D01*
X137526340Y-129062465D01*
X137526338Y-129062466D01*
X137345377Y-129189175D01*
X137189175Y-129345377D01*
X137062466Y-129526338D01*
X137062465Y-129526340D01*
X136969107Y-129726548D01*
X136969104Y-129726554D01*
X136911930Y-129939929D01*
X136911929Y-129939937D01*
X136892677Y-130159997D01*
X136892677Y-130160002D01*
X136911929Y-130380062D01*
X136911930Y-130380070D01*
X136969104Y-130593445D01*
X136969105Y-130593447D01*
X136969106Y-130593450D01*
X137050133Y-130767214D01*
X137062466Y-130793662D01*
X137062468Y-130793666D01*
X137189170Y-130974615D01*
X137189175Y-130974621D01*
X137345378Y-131130824D01*
X137345384Y-131130829D01*
X137526333Y-131257531D01*
X137526335Y-131257532D01*
X137526338Y-131257534D01*
X137726550Y-131350894D01*
X137939932Y-131408070D01*
X138097123Y-131421822D01*
X138159998Y-131427323D01*
X138160000Y-131427323D01*
X138160002Y-131427323D01*
X138215017Y-131422509D01*
X138380068Y-131408070D01*
X138593450Y-131350894D01*
X138793662Y-131257534D01*
X138974620Y-131130826D01*
X139130826Y-130974620D01*
X139257534Y-130793662D01*
X139350894Y-130593450D01*
X139408070Y-130380068D01*
X139427323Y-130160000D01*
X139426002Y-130144906D01*
X139408070Y-129939937D01*
X139408070Y-129939932D01*
X139350894Y-129726550D01*
X139257534Y-129526339D01*
X139177672Y-129412283D01*
X139130827Y-129345381D01*
X139085491Y-129300045D01*
X138974620Y-129189174D01*
X138974616Y-129189171D01*
X138974615Y-129189170D01*
X138793666Y-129062468D01*
X138793658Y-129062464D01*
X138664811Y-129002382D01*
X138612371Y-128956210D01*
X138593219Y-128889017D01*
X138613435Y-128822135D01*
X138664811Y-128777618D01*
X138670802Y-128774824D01*
X138793662Y-128717534D01*
X138974620Y-128590826D01*
X139130826Y-128434620D01*
X139257534Y-128253662D01*
X139350894Y-128053450D01*
X139408070Y-127840068D01*
X139423541Y-127663226D01*
X139427323Y-127620002D01*
X139427323Y-127619997D01*
X139408070Y-127399937D01*
X139408070Y-127399932D01*
X139350894Y-127186550D01*
X139257534Y-126986339D01*
X139141213Y-126820214D01*
X139130827Y-126805381D01*
X139105375Y-126779929D01*
X138974620Y-126649174D01*
X138974616Y-126649171D01*
X138974615Y-126649170D01*
X138793666Y-126522468D01*
X138793658Y-126522464D01*
X138664811Y-126462382D01*
X138612371Y-126416210D01*
X138593219Y-126349017D01*
X138613435Y-126282135D01*
X138664811Y-126237618D01*
X138670802Y-126234824D01*
X138793662Y-126177534D01*
X138974620Y-126050826D01*
X139130826Y-125894620D01*
X139257534Y-125713662D01*
X139350894Y-125513450D01*
X139408070Y-125300068D01*
X139427323Y-125080000D01*
X139408070Y-124859932D01*
X139350894Y-124646550D01*
X139257534Y-124446339D01*
X139130826Y-124265380D01*
X138974620Y-124109174D01*
X138974616Y-124109171D01*
X138974615Y-124109170D01*
X138793666Y-123982468D01*
X138793658Y-123982464D01*
X138664811Y-123922382D01*
X138612371Y-123876210D01*
X138593219Y-123809017D01*
X138613435Y-123742135D01*
X138664811Y-123697618D01*
X138670802Y-123694824D01*
X138793662Y-123637534D01*
X138974620Y-123510826D01*
X139130826Y-123354620D01*
X139257534Y-123173662D01*
X139350894Y-122973450D01*
X139408070Y-122760068D01*
X139427323Y-122540000D01*
X139408070Y-122319932D01*
X139350894Y-122106550D01*
X139257534Y-121906339D01*
X139130826Y-121725380D01*
X138974620Y-121569174D01*
X138974616Y-121569171D01*
X138974615Y-121569170D01*
X138793666Y-121442468D01*
X138793658Y-121442464D01*
X138664811Y-121382382D01*
X138612371Y-121336210D01*
X138593219Y-121269017D01*
X138613435Y-121202135D01*
X138664811Y-121157618D01*
X138716176Y-121133666D01*
X138793662Y-121097534D01*
X138974620Y-120970826D01*
X139130826Y-120814620D01*
X139257534Y-120633662D01*
X139350894Y-120433450D01*
X139408070Y-120220068D01*
X139427323Y-120000000D01*
X139408070Y-119779932D01*
X139350894Y-119566550D01*
X139257534Y-119366339D01*
X139194180Y-119275859D01*
X139130827Y-119185381D01*
X139067638Y-119122192D01*
X138974620Y-119029174D01*
X138974616Y-119029171D01*
X138974615Y-119029170D01*
X138793666Y-118902468D01*
X138793658Y-118902464D01*
X138664811Y-118842382D01*
X138612371Y-118796210D01*
X138593219Y-118729017D01*
X138613435Y-118662135D01*
X138664811Y-118617618D01*
X138670802Y-118614824D01*
X138793662Y-118557534D01*
X138974620Y-118430826D01*
X139130826Y-118274620D01*
X139257534Y-118093662D01*
X139350894Y-117893450D01*
X139408070Y-117680068D01*
X139427323Y-117460000D01*
X139408070Y-117239932D01*
X139350894Y-117026550D01*
X139257534Y-116826339D01*
X139130826Y-116645380D01*
X138974620Y-116489174D01*
X138974616Y-116489171D01*
X138974615Y-116489170D01*
X138793666Y-116362468D01*
X138793658Y-116362464D01*
X138664811Y-116302382D01*
X138612371Y-116256210D01*
X138593219Y-116189017D01*
X138613435Y-116122135D01*
X138664811Y-116077618D01*
X138670802Y-116074824D01*
X138793662Y-116017534D01*
X138974620Y-115890826D01*
X139130826Y-115734620D01*
X139257534Y-115553662D01*
X139350894Y-115353450D01*
X139408070Y-115140068D01*
X139427323Y-114920000D01*
X139408070Y-114699932D01*
X139350894Y-114486550D01*
X139257534Y-114286339D01*
X139130826Y-114105380D01*
X138974620Y-113949174D01*
X138974616Y-113949171D01*
X138974615Y-113949170D01*
X138793666Y-113822468D01*
X138793658Y-113822464D01*
X138664811Y-113762382D01*
X138612371Y-113716210D01*
X138593219Y-113649017D01*
X138613435Y-113582135D01*
X138664811Y-113537618D01*
X138670802Y-113534824D01*
X138793662Y-113477534D01*
X138974620Y-113350826D01*
X139130826Y-113194620D01*
X139257534Y-113013662D01*
X139350894Y-112813450D01*
X139408070Y-112600068D01*
X139427323Y-112380000D01*
X139425379Y-112357783D01*
X139408070Y-112159937D01*
X139408070Y-112159932D01*
X139350894Y-111946550D01*
X139257534Y-111746339D01*
X139130826Y-111565380D01*
X138974620Y-111409174D01*
X138974616Y-111409171D01*
X138974615Y-111409170D01*
X138793666Y-111282468D01*
X138793658Y-111282464D01*
X138664811Y-111222382D01*
X138612371Y-111176210D01*
X138593219Y-111109017D01*
X138613435Y-111042135D01*
X138664811Y-110997618D01*
X138670802Y-110994824D01*
X138793662Y-110937534D01*
X138974620Y-110810826D01*
X139130826Y-110654620D01*
X139257534Y-110473662D01*
X139350894Y-110273450D01*
X139408070Y-110060068D01*
X139427323Y-109840000D01*
X139408070Y-109619932D01*
X139350894Y-109406550D01*
X139257534Y-109206339D01*
X139130826Y-109025380D01*
X138974620Y-108869174D01*
X138974616Y-108869171D01*
X138974615Y-108869170D01*
X138793666Y-108742468D01*
X138793658Y-108742464D01*
X138664811Y-108682382D01*
X138612371Y-108636210D01*
X138593219Y-108569017D01*
X138613435Y-108502135D01*
X138664811Y-108457618D01*
X138670802Y-108454824D01*
X138793662Y-108397534D01*
X138974620Y-108270826D01*
X139130826Y-108114620D01*
X139257534Y-107933662D01*
X139350894Y-107733450D01*
X139408070Y-107520068D01*
X139427323Y-107300000D01*
X139408070Y-107079932D01*
X139350894Y-106866550D01*
X139257534Y-106666339D01*
X139130826Y-106485380D01*
X138974620Y-106329174D01*
X138974616Y-106329171D01*
X138974615Y-106329170D01*
X138793666Y-106202468D01*
X138793658Y-106202464D01*
X138664811Y-106142382D01*
X138612371Y-106096210D01*
X138593219Y-106029017D01*
X138613435Y-105962135D01*
X138664811Y-105917618D01*
X138670802Y-105914824D01*
X138793662Y-105857534D01*
X138974620Y-105730826D01*
X139118627Y-105586819D01*
X139179950Y-105553334D01*
X139206308Y-105550500D01*
X140008089Y-105550500D01*
X140075128Y-105570185D01*
X140080976Y-105574182D01*
X140172407Y-105640612D01*
X140335733Y-105713329D01*
X140510609Y-105750500D01*
X140510610Y-105750500D01*
X140689389Y-105750500D01*
X140689391Y-105750500D01*
X140864267Y-105713329D01*
X141027593Y-105640612D01*
X141172230Y-105535526D01*
X141291859Y-105402665D01*
X141381250Y-105247835D01*
X141436497Y-105077803D01*
X141455185Y-104900000D01*
X143204815Y-104900000D01*
X143223503Y-105077805D01*
X143223504Y-105077807D01*
X143278747Y-105247829D01*
X143278750Y-105247835D01*
X143368140Y-105402664D01*
X143381074Y-105417029D01*
X143411303Y-105480021D01*
X143402677Y-105549356D01*
X143381074Y-105582971D01*
X143368140Y-105597335D01*
X143278750Y-105752164D01*
X143278747Y-105752170D01*
X143223504Y-105922192D01*
X143223503Y-105922194D01*
X143204815Y-106100000D01*
X143223503Y-106277805D01*
X143223504Y-106277807D01*
X143278747Y-106447829D01*
X143278750Y-106447835D01*
X143368141Y-106602665D01*
X143409812Y-106648946D01*
X143487764Y-106735521D01*
X143487767Y-106735523D01*
X143487770Y-106735526D01*
X143632407Y-106840612D01*
X143795733Y-106913329D01*
X143970609Y-106950500D01*
X143970610Y-106950500D01*
X144149389Y-106950500D01*
X144149391Y-106950500D01*
X144324267Y-106913329D01*
X144487593Y-106840612D01*
X144579025Y-106774182D01*
X144644831Y-106750702D01*
X144651911Y-106750500D01*
X144908089Y-106750500D01*
X144975128Y-106770185D01*
X144980976Y-106774182D01*
X145072407Y-106840612D01*
X145235733Y-106913329D01*
X145410609Y-106950500D01*
X145410610Y-106950500D01*
X145589389Y-106950500D01*
X145589391Y-106950500D01*
X145764267Y-106913329D01*
X145927593Y-106840612D01*
X146072230Y-106735526D01*
X146191859Y-106602665D01*
X146281250Y-106447835D01*
X146336497Y-106277803D01*
X146355185Y-106100000D01*
X146336497Y-105922197D01*
X146281250Y-105752165D01*
X146246075Y-105691241D01*
X146229603Y-105623342D01*
X146252456Y-105557315D01*
X146270490Y-105537093D01*
X146272225Y-105535529D01*
X146272230Y-105535526D01*
X146391859Y-105402665D01*
X146481250Y-105247835D01*
X146536497Y-105077803D01*
X146555185Y-104900000D01*
X146536497Y-104722197D01*
X146481250Y-104552165D01*
X146391859Y-104397335D01*
X146345003Y-104345296D01*
X146272235Y-104264478D01*
X146272232Y-104264476D01*
X146272231Y-104264475D01*
X146272230Y-104264474D01*
X146127593Y-104159388D01*
X145964267Y-104086671D01*
X145964265Y-104086670D01*
X145836594Y-104059533D01*
X145789391Y-104049500D01*
X145610609Y-104049500D01*
X145579954Y-104056015D01*
X145435733Y-104086670D01*
X145435728Y-104086672D01*
X145272408Y-104159388D01*
X145272403Y-104159390D01*
X145180974Y-104225818D01*
X145115168Y-104249298D01*
X145108089Y-104249500D01*
X144651911Y-104249500D01*
X144584872Y-104229815D01*
X144579025Y-104225818D01*
X144563803Y-104214758D01*
X144487593Y-104159388D01*
X144324267Y-104086671D01*
X144324265Y-104086670D01*
X144196594Y-104059533D01*
X144149391Y-104049500D01*
X143970609Y-104049500D01*
X143939954Y-104056015D01*
X143795733Y-104086670D01*
X143795728Y-104086672D01*
X143632408Y-104159387D01*
X143487768Y-104264475D01*
X143368140Y-104397336D01*
X143278750Y-104552164D01*
X143278747Y-104552170D01*
X143223504Y-104722192D01*
X143223503Y-104722194D01*
X143204815Y-104900000D01*
X141455185Y-104900000D01*
X141436497Y-104722197D01*
X141381250Y-104552165D01*
X141291859Y-104397335D01*
X141245003Y-104345296D01*
X141172235Y-104264478D01*
X141172232Y-104264476D01*
X141172231Y-104264475D01*
X141172230Y-104264474D01*
X141027593Y-104159388D01*
X140864267Y-104086671D01*
X140864265Y-104086670D01*
X140736594Y-104059533D01*
X140689391Y-104049500D01*
X140510609Y-104049500D01*
X140479954Y-104056015D01*
X140335733Y-104086670D01*
X140335728Y-104086672D01*
X140172408Y-104159388D01*
X140172403Y-104159390D01*
X140080974Y-104225818D01*
X140015168Y-104249298D01*
X140008089Y-104249500D01*
X139393961Y-104249500D01*
X139326922Y-104229815D01*
X139281579Y-104177904D01*
X139272945Y-104159388D01*
X139257534Y-104126339D01*
X139130826Y-103945380D01*
X138974620Y-103789174D01*
X138974616Y-103789171D01*
X138974615Y-103789170D01*
X138793666Y-103662468D01*
X138793658Y-103662464D01*
X138664811Y-103602382D01*
X138612371Y-103556210D01*
X138593219Y-103489017D01*
X138613435Y-103422135D01*
X138664811Y-103377618D01*
X138670802Y-103374824D01*
X138793662Y-103317534D01*
X138974620Y-103190826D01*
X139130826Y-103034620D01*
X139257534Y-102853662D01*
X139350894Y-102653450D01*
X139408070Y-102440068D01*
X139427323Y-102220000D01*
X139408070Y-101999932D01*
X139350894Y-101786550D01*
X139257534Y-101586339D01*
X139156576Y-101442155D01*
X139130827Y-101405381D01*
X139104916Y-101379470D01*
X138974620Y-101249174D01*
X138974616Y-101249171D01*
X138974615Y-101249170D01*
X138793666Y-101122468D01*
X138793658Y-101122464D01*
X138664811Y-101062382D01*
X138612371Y-101016210D01*
X138593219Y-100949017D01*
X138613435Y-100882135D01*
X138664811Y-100837618D01*
X138670802Y-100834824D01*
X138793662Y-100777534D01*
X138974620Y-100650826D01*
X139130826Y-100494620D01*
X139257534Y-100313662D01*
X139350894Y-100113450D01*
X139408070Y-99900068D01*
X139416825Y-99799999D01*
X140864341Y-99799999D01*
X140864341Y-99800000D01*
X140884936Y-100035403D01*
X140884938Y-100035413D01*
X140946094Y-100263655D01*
X140946096Y-100263659D01*
X140946097Y-100263663D01*
X140950000Y-100272032D01*
X141045965Y-100477830D01*
X141045967Y-100477834D01*
X141154281Y-100632521D01*
X141181501Y-100671396D01*
X141181506Y-100671402D01*
X141303818Y-100793714D01*
X141337303Y-100855037D01*
X141332319Y-100924729D01*
X141290447Y-100980662D01*
X141259471Y-100997577D01*
X141127912Y-101046646D01*
X141127906Y-101046649D01*
X141012812Y-101132809D01*
X141012809Y-101132812D01*
X140926649Y-101247906D01*
X140926645Y-101247913D01*
X140876403Y-101382620D01*
X140876401Y-101382627D01*
X140870000Y-101442155D01*
X140870000Y-102090000D01*
X141786988Y-102090000D01*
X141754075Y-102147007D01*
X141720000Y-102274174D01*
X141720000Y-102405826D01*
X141754075Y-102532993D01*
X141786988Y-102590000D01*
X140870000Y-102590000D01*
X140870000Y-103237844D01*
X140876401Y-103297372D01*
X140876403Y-103297379D01*
X140926645Y-103432086D01*
X140926649Y-103432093D01*
X141012809Y-103547187D01*
X141012812Y-103547190D01*
X141127906Y-103633350D01*
X141127913Y-103633354D01*
X141262620Y-103683596D01*
X141262627Y-103683598D01*
X141322155Y-103689999D01*
X141322172Y-103690000D01*
X141970000Y-103690000D01*
X141970000Y-102773012D01*
X142027007Y-102805925D01*
X142154174Y-102840000D01*
X142285826Y-102840000D01*
X142412993Y-102805925D01*
X142470000Y-102773012D01*
X142470000Y-103690000D01*
X143117828Y-103690000D01*
X143117844Y-103689999D01*
X143177372Y-103683598D01*
X143177379Y-103683596D01*
X143312086Y-103633354D01*
X143312093Y-103633350D01*
X143427187Y-103547190D01*
X143427190Y-103547187D01*
X143513350Y-103432093D01*
X143513354Y-103432086D01*
X143562422Y-103300529D01*
X143604293Y-103244595D01*
X143669757Y-103220178D01*
X143738030Y-103235030D01*
X143766285Y-103256181D01*
X143888599Y-103378495D01*
X143953287Y-103423790D01*
X144082165Y-103514032D01*
X144082167Y-103514033D01*
X144082170Y-103514035D01*
X144296337Y-103613903D01*
X144524592Y-103675063D01*
X144695319Y-103690000D01*
X144759999Y-103695659D01*
X144760000Y-103695659D01*
X144760001Y-103695659D01*
X144824681Y-103690000D01*
X144995408Y-103675063D01*
X145223663Y-103613903D01*
X145437830Y-103514035D01*
X145631401Y-103378495D01*
X145798495Y-103211401D01*
X145928425Y-103025842D01*
X145983002Y-102982217D01*
X146052500Y-102975023D01*
X146114855Y-103006546D01*
X146131575Y-103025842D01*
X146261500Y-103211395D01*
X146261505Y-103211401D01*
X146428599Y-103378495D01*
X146493287Y-103423790D01*
X146622165Y-103514032D01*
X146622167Y-103514033D01*
X146622170Y-103514035D01*
X146836337Y-103613903D01*
X147064592Y-103675063D01*
X147235319Y-103690000D01*
X147299999Y-103695659D01*
X147300000Y-103695659D01*
X147300001Y-103695659D01*
X147364681Y-103690000D01*
X147535408Y-103675063D01*
X147763663Y-103613903D01*
X147977830Y-103514035D01*
X148171401Y-103378495D01*
X148338495Y-103211401D01*
X148468425Y-103025842D01*
X148523002Y-102982217D01*
X148592500Y-102975023D01*
X148654855Y-103006546D01*
X148671575Y-103025842D01*
X148801500Y-103211395D01*
X148801505Y-103211401D01*
X148968599Y-103378495D01*
X149033287Y-103423790D01*
X149162165Y-103514032D01*
X149162167Y-103514033D01*
X149162170Y-103514035D01*
X149376337Y-103613903D01*
X149604592Y-103675063D01*
X149775319Y-103690000D01*
X149839999Y-103695659D01*
X149840000Y-103695659D01*
X149840001Y-103695659D01*
X149904681Y-103690000D01*
X150075408Y-103675063D01*
X150303663Y-103613903D01*
X150517830Y-103514035D01*
X150711401Y-103378495D01*
X150878495Y-103211401D01*
X151014035Y-103017830D01*
X151113903Y-102803663D01*
X151175063Y-102575408D01*
X151195659Y-102340000D01*
X151175063Y-102104592D01*
X151128626Y-101931285D01*
X151113905Y-101876344D01*
X151113904Y-101876343D01*
X151113903Y-101876337D01*
X151014035Y-101662171D01*
X151008425Y-101654158D01*
X150878494Y-101468597D01*
X150711401Y-101301505D01*
X150711396Y-101301501D01*
X150525842Y-101171575D01*
X150482217Y-101116998D01*
X150475023Y-101047500D01*
X150506546Y-100985145D01*
X150525842Y-100968425D01*
X150646713Y-100883790D01*
X150711401Y-100838495D01*
X150878495Y-100671401D01*
X151014035Y-100477830D01*
X151113903Y-100263663D01*
X151175063Y-100035408D01*
X151195659Y-99800000D01*
X151175063Y-99564592D01*
X151113903Y-99336337D01*
X151014035Y-99122171D01*
X151008425Y-99114158D01*
X150878494Y-98928597D01*
X150711402Y-98761506D01*
X150711395Y-98761501D01*
X150517834Y-98625967D01*
X150517830Y-98625965D01*
X150517828Y-98625964D01*
X150303663Y-98526097D01*
X150303659Y-98526096D01*
X150303655Y-98526094D01*
X150075413Y-98464938D01*
X150075403Y-98464936D01*
X149840001Y-98444341D01*
X149839999Y-98444341D01*
X149604596Y-98464936D01*
X149604586Y-98464938D01*
X149376344Y-98526094D01*
X149376335Y-98526098D01*
X149162171Y-98625964D01*
X149162169Y-98625965D01*
X148968597Y-98761505D01*
X148801505Y-98928597D01*
X148671575Y-99114158D01*
X148616998Y-99157783D01*
X148547500Y-99164977D01*
X148485145Y-99133454D01*
X148468425Y-99114158D01*
X148338494Y-98928597D01*
X148171402Y-98761506D01*
X148171395Y-98761501D01*
X147977834Y-98625967D01*
X147977830Y-98625965D01*
X147977828Y-98625964D01*
X147763663Y-98526097D01*
X147763659Y-98526096D01*
X147763655Y-98526094D01*
X147535413Y-98464938D01*
X147535403Y-98464936D01*
X147300001Y-98444341D01*
X147299999Y-98444341D01*
X147064596Y-98464936D01*
X147064586Y-98464938D01*
X146836344Y-98526094D01*
X146836335Y-98526098D01*
X146622171Y-98625964D01*
X146622169Y-98625965D01*
X146428597Y-98761505D01*
X146261505Y-98928597D01*
X146131575Y-99114158D01*
X146076998Y-99157783D01*
X146007500Y-99164977D01*
X145945145Y-99133454D01*
X145928425Y-99114158D01*
X145798494Y-98928597D01*
X145631402Y-98761506D01*
X145631395Y-98761501D01*
X145437834Y-98625967D01*
X145437830Y-98625965D01*
X145437828Y-98625964D01*
X145223663Y-98526097D01*
X145223659Y-98526096D01*
X145223655Y-98526094D01*
X144995413Y-98464938D01*
X144995403Y-98464936D01*
X144760001Y-98444341D01*
X144759999Y-98444341D01*
X144524596Y-98464936D01*
X144524586Y-98464938D01*
X144296344Y-98526094D01*
X144296335Y-98526098D01*
X144082171Y-98625964D01*
X144082169Y-98625965D01*
X143888597Y-98761505D01*
X143721505Y-98928597D01*
X143591575Y-99114158D01*
X143536998Y-99157783D01*
X143467500Y-99164977D01*
X143405145Y-99133454D01*
X143388425Y-99114158D01*
X143258494Y-98928597D01*
X143091402Y-98761506D01*
X143091395Y-98761501D01*
X142897834Y-98625967D01*
X142897830Y-98625965D01*
X142897828Y-98625964D01*
X142683663Y-98526097D01*
X142683659Y-98526096D01*
X142683655Y-98526094D01*
X142455413Y-98464938D01*
X142455403Y-98464936D01*
X142220001Y-98444341D01*
X142219999Y-98444341D01*
X141984596Y-98464936D01*
X141984586Y-98464938D01*
X141756344Y-98526094D01*
X141756335Y-98526098D01*
X141542171Y-98625964D01*
X141542169Y-98625965D01*
X141348597Y-98761505D01*
X141181505Y-98928597D01*
X141045965Y-99122169D01*
X141045964Y-99122171D01*
X140946098Y-99336335D01*
X140946094Y-99336344D01*
X140884938Y-99564586D01*
X140884936Y-99564596D01*
X140864341Y-99799999D01*
X139416825Y-99799999D01*
X139427323Y-99680000D01*
X139408070Y-99459932D01*
X139350894Y-99246550D01*
X139257534Y-99046339D01*
X139130826Y-98865380D01*
X138974620Y-98709174D01*
X138974616Y-98709171D01*
X138974615Y-98709170D01*
X138793666Y-98582468D01*
X138793658Y-98582464D01*
X138664811Y-98522382D01*
X138612371Y-98476210D01*
X138593219Y-98409017D01*
X138613435Y-98342135D01*
X138664811Y-98297618D01*
X138670802Y-98294824D01*
X138793662Y-98237534D01*
X138974620Y-98110826D01*
X139130826Y-97954620D01*
X139257534Y-97773662D01*
X139350894Y-97573450D01*
X139408070Y-97360068D01*
X139427323Y-97140000D01*
X139408070Y-96919932D01*
X139350894Y-96706550D01*
X139257534Y-96506339D01*
X139130826Y-96325380D01*
X138974620Y-96169174D01*
X138974616Y-96169171D01*
X138974615Y-96169170D01*
X138793666Y-96042468D01*
X138793658Y-96042464D01*
X138664811Y-95982382D01*
X138612371Y-95936210D01*
X138593219Y-95869017D01*
X138613435Y-95802135D01*
X138664811Y-95757618D01*
X138670802Y-95754824D01*
X138793662Y-95697534D01*
X138974620Y-95570826D01*
X139130826Y-95414620D01*
X139257534Y-95233662D01*
X139350894Y-95033450D01*
X139408070Y-94820068D01*
X139418574Y-94700000D01*
X141244815Y-94700000D01*
X141263503Y-94877805D01*
X141263504Y-94877807D01*
X141318747Y-95047829D01*
X141318748Y-95047830D01*
X141318750Y-95047835D01*
X141332887Y-95072322D01*
X141349500Y-95134320D01*
X141349500Y-96473918D01*
X141349500Y-96473920D01*
X141349499Y-96473920D01*
X141378340Y-96618907D01*
X141378341Y-96618909D01*
X141378342Y-96618913D01*
X141389535Y-96645936D01*
X141397004Y-96715403D01*
X141392905Y-96731704D01*
X141363505Y-96822190D01*
X141363503Y-96822195D01*
X141344815Y-97000000D01*
X141363503Y-97177805D01*
X141363504Y-97177807D01*
X141418747Y-97347829D01*
X141418750Y-97347835D01*
X141508141Y-97502665D01*
X141549812Y-97548946D01*
X141627764Y-97635521D01*
X141627767Y-97635523D01*
X141627770Y-97635526D01*
X141772407Y-97740612D01*
X141935733Y-97813329D01*
X142110609Y-97850500D01*
X142110610Y-97850500D01*
X142289389Y-97850500D01*
X142289391Y-97850500D01*
X142464267Y-97813329D01*
X142627593Y-97740612D01*
X142772230Y-97635526D01*
X142891859Y-97502665D01*
X142981250Y-97347835D01*
X143036497Y-97177803D01*
X143055185Y-97000000D01*
X143036497Y-96822197D01*
X142981250Y-96652165D01*
X142967113Y-96627678D01*
X142950500Y-96565678D01*
X142950500Y-96426079D01*
X142921659Y-96281092D01*
X142921658Y-96281091D01*
X142921658Y-96281087D01*
X142865084Y-96144505D01*
X142865083Y-96144504D01*
X142862753Y-96138878D01*
X142863614Y-96138520D01*
X142850500Y-96086160D01*
X142850500Y-95134320D01*
X142867112Y-95072322D01*
X142881250Y-95047835D01*
X142936497Y-94877803D01*
X142955185Y-94700000D01*
X142936497Y-94522197D01*
X142881250Y-94352165D01*
X142791859Y-94197335D01*
X142745003Y-94145296D01*
X142672235Y-94064478D01*
X142672232Y-94064476D01*
X142672231Y-94064475D01*
X142672230Y-94064474D01*
X142527593Y-93959388D01*
X142364267Y-93886671D01*
X142364265Y-93886670D01*
X142236594Y-93859533D01*
X142189391Y-93849500D01*
X142010609Y-93849500D01*
X141979954Y-93856015D01*
X141835733Y-93886670D01*
X141835728Y-93886672D01*
X141672408Y-93959387D01*
X141527768Y-94064475D01*
X141408140Y-94197336D01*
X141318750Y-94352164D01*
X141318747Y-94352170D01*
X141263504Y-94522192D01*
X141263503Y-94522194D01*
X141244815Y-94700000D01*
X139418574Y-94700000D01*
X139427323Y-94600000D01*
X139408070Y-94379932D01*
X139350894Y-94166550D01*
X139257534Y-93966339D01*
X139130826Y-93785380D01*
X138974620Y-93629174D01*
X138974616Y-93629171D01*
X138974615Y-93629170D01*
X138793666Y-93502468D01*
X138793658Y-93502464D01*
X138664811Y-93442382D01*
X138612371Y-93396210D01*
X138593219Y-93329017D01*
X138613435Y-93262135D01*
X138664811Y-93217618D01*
X138670802Y-93214824D01*
X138793662Y-93157534D01*
X138974620Y-93030826D01*
X139130826Y-92874620D01*
X139257534Y-92693662D01*
X139350894Y-92493450D01*
X139408070Y-92280068D01*
X139427323Y-92060000D01*
X139408070Y-91839932D01*
X139350894Y-91626550D01*
X139257534Y-91426339D01*
X139130826Y-91245380D01*
X138974620Y-91089174D01*
X138974616Y-91089171D01*
X138974615Y-91089170D01*
X138793666Y-90962468D01*
X138793658Y-90962464D01*
X138664811Y-90902382D01*
X138612371Y-90856210D01*
X138593219Y-90789017D01*
X138613435Y-90722135D01*
X138664811Y-90677618D01*
X138670802Y-90674824D01*
X138793662Y-90617534D01*
X138974620Y-90490826D01*
X139130826Y-90334620D01*
X139257534Y-90153662D01*
X139350894Y-89953450D01*
X139408070Y-89740068D01*
X139427323Y-89520000D01*
X139408070Y-89299932D01*
X139350894Y-89086550D01*
X139257534Y-88886339D01*
X139130826Y-88705380D01*
X138974620Y-88549174D01*
X138974616Y-88549171D01*
X138974615Y-88549170D01*
X138793666Y-88422468D01*
X138793658Y-88422464D01*
X138664811Y-88362382D01*
X138612371Y-88316210D01*
X138593219Y-88249017D01*
X138613435Y-88182135D01*
X138664811Y-88137618D01*
X138670802Y-88134824D01*
X138793662Y-88077534D01*
X138974620Y-87950826D01*
X139130826Y-87794620D01*
X139257534Y-87613662D01*
X139350894Y-87413450D01*
X139408070Y-87200068D01*
X139427323Y-86980000D01*
X139408070Y-86759932D01*
X139350894Y-86546550D01*
X139257534Y-86346339D01*
X139130826Y-86165380D01*
X138974620Y-86009174D01*
X138974616Y-86009171D01*
X138974615Y-86009170D01*
X138793666Y-85882468D01*
X138793662Y-85882466D01*
X138664218Y-85822105D01*
X138611779Y-85775932D01*
X138592627Y-85708739D01*
X138612843Y-85641858D01*
X138664219Y-85597340D01*
X138793416Y-85537095D01*
X138793417Y-85537094D01*
X138858188Y-85491741D01*
X138248585Y-84882137D01*
X138333694Y-84859333D01*
X138436306Y-84800090D01*
X138520090Y-84716306D01*
X138579333Y-84613694D01*
X138602138Y-84528585D01*
X139211741Y-85138188D01*
X139257094Y-85073417D01*
X139257100Y-85073407D01*
X139350419Y-84873284D01*
X139350424Y-84873270D01*
X139407573Y-84659986D01*
X139407575Y-84659976D01*
X139426821Y-84440000D01*
X139426821Y-84439999D01*
X139407575Y-84220023D01*
X139407573Y-84220013D01*
X139350424Y-84006729D01*
X139350420Y-84006720D01*
X139257096Y-83806586D01*
X139211741Y-83741811D01*
X139211740Y-83741810D01*
X138602137Y-84351413D01*
X138579333Y-84266306D01*
X138520090Y-84163694D01*
X138436306Y-84079910D01*
X138333694Y-84020667D01*
X138248585Y-83997862D01*
X138858188Y-83388259D01*
X138858187Y-83388258D01*
X138793411Y-83342901D01*
X138793405Y-83342898D01*
X138664219Y-83282658D01*
X138611779Y-83236486D01*
X138592627Y-83169293D01*
X138612843Y-83102411D01*
X138664219Y-83057894D01*
X138694538Y-83043756D01*
X138793662Y-82997534D01*
X138974620Y-82870826D01*
X139130826Y-82714620D01*
X139257534Y-82533662D01*
X139350894Y-82333450D01*
X139408070Y-82120068D01*
X139427323Y-81900000D01*
X139427323Y-81899997D01*
X152132677Y-81899997D01*
X152132677Y-81900002D01*
X152151929Y-82120062D01*
X152151930Y-82120070D01*
X152209104Y-82333445D01*
X152209105Y-82333447D01*
X152209106Y-82333450D01*
X152258694Y-82439792D01*
X152302466Y-82533662D01*
X152302468Y-82533666D01*
X152429170Y-82714615D01*
X152429175Y-82714621D01*
X152585378Y-82870824D01*
X152585384Y-82870829D01*
X152766333Y-82997531D01*
X152766335Y-82997532D01*
X152766338Y-82997534D01*
X152865462Y-83043756D01*
X152895189Y-83057618D01*
X152947628Y-83103790D01*
X152966780Y-83170984D01*
X152946564Y-83237865D01*
X152895189Y-83282382D01*
X152766340Y-83342465D01*
X152766338Y-83342466D01*
X152585377Y-83469175D01*
X152429175Y-83625377D01*
X152302466Y-83806338D01*
X152302465Y-83806340D01*
X152209107Y-84006548D01*
X152209104Y-84006554D01*
X152151930Y-84219929D01*
X152151929Y-84219937D01*
X152132677Y-84439997D01*
X152132677Y-84440002D01*
X152151929Y-84660062D01*
X152151930Y-84660070D01*
X152209104Y-84873445D01*
X152209105Y-84873447D01*
X152209106Y-84873450D01*
X152228388Y-84914800D01*
X152302466Y-85073662D01*
X152302468Y-85073666D01*
X152429170Y-85254615D01*
X152429175Y-85254621D01*
X152585378Y-85410824D01*
X152585384Y-85410829D01*
X152766333Y-85537531D01*
X152766335Y-85537532D01*
X152766338Y-85537534D01*
X152885748Y-85593215D01*
X152895189Y-85597618D01*
X152947628Y-85643790D01*
X152966780Y-85710984D01*
X152946564Y-85777865D01*
X152895189Y-85822382D01*
X152766340Y-85882465D01*
X152766338Y-85882466D01*
X152585377Y-86009175D01*
X152429175Y-86165377D01*
X152302466Y-86346338D01*
X152302465Y-86346340D01*
X152209107Y-86546548D01*
X152209104Y-86546554D01*
X152151930Y-86759929D01*
X152151929Y-86759937D01*
X152132677Y-86979997D01*
X152132677Y-86980002D01*
X152151929Y-87200062D01*
X152151930Y-87200070D01*
X152209104Y-87413445D01*
X152209105Y-87413447D01*
X152209106Y-87413450D01*
X152302466Y-87613662D01*
X152302468Y-87613666D01*
X152429170Y-87794615D01*
X152429175Y-87794621D01*
X152585378Y-87950824D01*
X152585384Y-87950829D01*
X152766333Y-88077531D01*
X152766335Y-88077532D01*
X152766338Y-88077534D01*
X152885748Y-88133215D01*
X152895189Y-88137618D01*
X152947628Y-88183790D01*
X152966780Y-88250984D01*
X152946564Y-88317865D01*
X152895189Y-88362382D01*
X152766340Y-88422465D01*
X152766338Y-88422466D01*
X152585377Y-88549175D01*
X152429175Y-88705377D01*
X152302466Y-88886338D01*
X152302465Y-88886340D01*
X152209107Y-89086548D01*
X152209104Y-89086554D01*
X152151930Y-89299929D01*
X152151929Y-89299937D01*
X152132677Y-89519997D01*
X152132677Y-89520002D01*
X152151929Y-89740062D01*
X152151930Y-89740070D01*
X152209104Y-89953445D01*
X152209105Y-89953447D01*
X152209106Y-89953450D01*
X152302466Y-90153662D01*
X152302468Y-90153666D01*
X152429170Y-90334615D01*
X152429175Y-90334621D01*
X152585378Y-90490824D01*
X152585384Y-90490829D01*
X152766333Y-90617531D01*
X152766335Y-90617532D01*
X152766338Y-90617534D01*
X152885748Y-90673215D01*
X152895189Y-90677618D01*
X152947628Y-90723790D01*
X152966780Y-90790984D01*
X152946564Y-90857865D01*
X152895189Y-90902382D01*
X152766340Y-90962465D01*
X152766338Y-90962466D01*
X152585377Y-91089175D01*
X152429175Y-91245377D01*
X152302466Y-91426338D01*
X152302465Y-91426340D01*
X152209107Y-91626548D01*
X152209104Y-91626554D01*
X152151930Y-91839929D01*
X152151929Y-91839937D01*
X152132677Y-92059997D01*
X152132677Y-92060002D01*
X152151929Y-92280062D01*
X152151930Y-92280070D01*
X152209104Y-92493445D01*
X152209105Y-92493447D01*
X152209106Y-92493450D01*
X152302466Y-92693662D01*
X152302468Y-92693666D01*
X152429170Y-92874615D01*
X152429175Y-92874621D01*
X152585378Y-93030824D01*
X152585384Y-93030829D01*
X152766333Y-93157531D01*
X152766335Y-93157532D01*
X152766338Y-93157534D01*
X152885748Y-93213215D01*
X152895189Y-93217618D01*
X152947628Y-93263790D01*
X152966780Y-93330984D01*
X152946564Y-93397865D01*
X152895189Y-93442382D01*
X152766340Y-93502465D01*
X152766338Y-93502466D01*
X152585377Y-93629175D01*
X152429175Y-93785377D01*
X152302466Y-93966338D01*
X152302465Y-93966340D01*
X152209107Y-94166548D01*
X152209104Y-94166554D01*
X152151930Y-94379929D01*
X152151929Y-94379937D01*
X152132677Y-94599997D01*
X152132677Y-94600002D01*
X152151929Y-94820062D01*
X152151930Y-94820070D01*
X152209104Y-95033445D01*
X152209105Y-95033447D01*
X152209106Y-95033450D01*
X152302466Y-95233662D01*
X152302468Y-95233666D01*
X152429170Y-95414615D01*
X152429175Y-95414621D01*
X152585378Y-95570824D01*
X152585384Y-95570829D01*
X152766333Y-95697531D01*
X152766335Y-95697532D01*
X152766338Y-95697534D01*
X152885748Y-95753215D01*
X152895189Y-95757618D01*
X152947628Y-95803790D01*
X152966780Y-95870984D01*
X152946564Y-95937865D01*
X152895189Y-95982382D01*
X152766340Y-96042465D01*
X152766338Y-96042466D01*
X152585377Y-96169175D01*
X152429175Y-96325377D01*
X152302466Y-96506338D01*
X152302465Y-96506340D01*
X152209107Y-96706548D01*
X152209104Y-96706554D01*
X152151930Y-96919929D01*
X152151929Y-96919937D01*
X152132677Y-97139997D01*
X152132677Y-97140002D01*
X152151929Y-97360062D01*
X152151930Y-97360070D01*
X152209104Y-97573445D01*
X152209105Y-97573447D01*
X152209106Y-97573450D01*
X152287054Y-97740610D01*
X152302466Y-97773662D01*
X152302468Y-97773666D01*
X152429170Y-97954615D01*
X152429175Y-97954621D01*
X152585378Y-98110824D01*
X152585384Y-98110829D01*
X152766333Y-98237531D01*
X152766335Y-98237532D01*
X152766338Y-98237534D01*
X152885748Y-98293215D01*
X152895189Y-98297618D01*
X152947628Y-98343790D01*
X152966780Y-98410984D01*
X152946564Y-98477865D01*
X152895189Y-98522382D01*
X152766340Y-98582465D01*
X152766338Y-98582466D01*
X152585377Y-98709175D01*
X152429175Y-98865377D01*
X152302466Y-99046338D01*
X152302465Y-99046340D01*
X152209107Y-99246548D01*
X152209104Y-99246554D01*
X152151930Y-99459929D01*
X152151929Y-99459937D01*
X152132677Y-99679997D01*
X152132677Y-99680002D01*
X152151929Y-99900062D01*
X152151930Y-99900070D01*
X152209104Y-100113445D01*
X152209105Y-100113447D01*
X152209106Y-100113450D01*
X152279151Y-100263663D01*
X152302466Y-100313662D01*
X152302468Y-100313666D01*
X152429170Y-100494615D01*
X152429175Y-100494621D01*
X152585378Y-100650824D01*
X152585384Y-100650829D01*
X152766333Y-100777531D01*
X152766335Y-100777532D01*
X152766338Y-100777534D01*
X152885748Y-100833215D01*
X152895189Y-100837618D01*
X152947628Y-100883790D01*
X152966780Y-100950984D01*
X152946564Y-101017865D01*
X152895189Y-101062382D01*
X152766340Y-101122465D01*
X152766338Y-101122466D01*
X152585377Y-101249175D01*
X152429175Y-101405377D01*
X152302466Y-101586338D01*
X152302465Y-101586340D01*
X152209107Y-101786548D01*
X152209104Y-101786554D01*
X152151930Y-101999929D01*
X152151929Y-101999937D01*
X152132677Y-102219997D01*
X152132677Y-102220002D01*
X152151929Y-102440062D01*
X152151930Y-102440070D01*
X152209104Y-102653445D01*
X152209105Y-102653447D01*
X152209106Y-102653450D01*
X152279151Y-102803663D01*
X152302466Y-102853662D01*
X152302468Y-102853666D01*
X152429170Y-103034615D01*
X152429175Y-103034621D01*
X152585378Y-103190824D01*
X152585384Y-103190829D01*
X152766333Y-103317531D01*
X152766335Y-103317532D01*
X152766338Y-103317534D01*
X152885748Y-103373215D01*
X152895189Y-103377618D01*
X152947628Y-103423790D01*
X152966780Y-103490984D01*
X152946564Y-103557865D01*
X152895189Y-103602382D01*
X152766340Y-103662465D01*
X152766338Y-103662466D01*
X152585377Y-103789175D01*
X152429175Y-103945377D01*
X152302466Y-104126338D01*
X152302465Y-104126340D01*
X152209107Y-104326548D01*
X152209104Y-104326554D01*
X152151930Y-104539929D01*
X152151929Y-104539937D01*
X152132677Y-104759997D01*
X152132677Y-104760002D01*
X152151929Y-104980062D01*
X152151930Y-104980070D01*
X152209104Y-105193445D01*
X152209105Y-105193447D01*
X152209106Y-105193450D01*
X152234466Y-105247835D01*
X152302466Y-105393662D01*
X152302468Y-105393666D01*
X152429170Y-105574615D01*
X152429175Y-105574621D01*
X152585378Y-105730824D01*
X152585384Y-105730829D01*
X152766333Y-105857531D01*
X152766335Y-105857532D01*
X152766338Y-105857534D01*
X152885748Y-105913215D01*
X152895189Y-105917618D01*
X152947628Y-105963790D01*
X152966780Y-106030984D01*
X152946564Y-106097865D01*
X152895189Y-106142382D01*
X152766340Y-106202465D01*
X152766338Y-106202466D01*
X152585377Y-106329175D01*
X152429175Y-106485377D01*
X152302466Y-106666338D01*
X152302465Y-106666340D01*
X152209107Y-106866548D01*
X152209104Y-106866554D01*
X152151930Y-107079929D01*
X152151929Y-107079937D01*
X152132677Y-107299997D01*
X152132677Y-107300002D01*
X152151929Y-107520062D01*
X152151930Y-107520070D01*
X152209104Y-107733445D01*
X152209105Y-107733447D01*
X152209106Y-107733450D01*
X152302466Y-107933662D01*
X152302468Y-107933666D01*
X152429170Y-108114615D01*
X152429175Y-108114621D01*
X152585378Y-108270824D01*
X152585384Y-108270829D01*
X152766333Y-108397531D01*
X152766335Y-108397532D01*
X152766338Y-108397534D01*
X152885748Y-108453215D01*
X152895189Y-108457618D01*
X152947628Y-108503790D01*
X152966780Y-108570984D01*
X152946564Y-108637865D01*
X152895189Y-108682382D01*
X152766340Y-108742465D01*
X152766338Y-108742466D01*
X152585377Y-108869175D01*
X152429175Y-109025377D01*
X152302466Y-109206338D01*
X152302465Y-109206340D01*
X152209107Y-109406548D01*
X152209104Y-109406554D01*
X152151930Y-109619929D01*
X152151929Y-109619937D01*
X152132677Y-109839997D01*
X152132677Y-109840002D01*
X152151929Y-110060062D01*
X152151930Y-110060070D01*
X152209104Y-110273445D01*
X152209105Y-110273447D01*
X152209106Y-110273450D01*
X152284998Y-110436202D01*
X152302466Y-110473662D01*
X152302468Y-110473666D01*
X152429170Y-110654615D01*
X152429175Y-110654621D01*
X152585378Y-110810824D01*
X152585384Y-110810829D01*
X152766333Y-110937531D01*
X152766335Y-110937532D01*
X152766338Y-110937534D01*
X152885748Y-110993215D01*
X152895189Y-110997618D01*
X152947628Y-111043790D01*
X152966780Y-111110984D01*
X152946564Y-111177865D01*
X152895189Y-111222382D01*
X152766340Y-111282465D01*
X152766338Y-111282466D01*
X152585377Y-111409175D01*
X152429175Y-111565377D01*
X152302466Y-111746338D01*
X152302465Y-111746340D01*
X152209107Y-111946548D01*
X152209104Y-111946554D01*
X152151930Y-112159929D01*
X152151929Y-112159937D01*
X152132677Y-112379997D01*
X152132677Y-112380002D01*
X152151929Y-112600062D01*
X152151930Y-112600070D01*
X152209104Y-112813445D01*
X152209105Y-112813447D01*
X152209106Y-112813450D01*
X152266972Y-112937544D01*
X152302466Y-113013662D01*
X152302468Y-113013666D01*
X152429170Y-113194615D01*
X152429175Y-113194621D01*
X152585378Y-113350824D01*
X152585384Y-113350829D01*
X152766333Y-113477531D01*
X152766335Y-113477532D01*
X152766338Y-113477534D01*
X152814517Y-113500000D01*
X152895189Y-113537618D01*
X152947628Y-113583790D01*
X152966780Y-113650984D01*
X152946564Y-113717865D01*
X152895189Y-113762382D01*
X152766340Y-113822465D01*
X152766338Y-113822466D01*
X152585377Y-113949175D01*
X152429175Y-114105377D01*
X152302466Y-114286338D01*
X152302465Y-114286340D01*
X152209107Y-114486548D01*
X152209104Y-114486554D01*
X152151930Y-114699929D01*
X152151929Y-114699937D01*
X152132677Y-114919997D01*
X152132677Y-114920002D01*
X152151929Y-115140062D01*
X152151930Y-115140070D01*
X152209104Y-115353445D01*
X152209105Y-115353447D01*
X152209106Y-115353450D01*
X152297694Y-115543429D01*
X152302466Y-115553662D01*
X152302468Y-115553666D01*
X152429170Y-115734615D01*
X152429175Y-115734621D01*
X152585378Y-115890824D01*
X152585384Y-115890829D01*
X152766333Y-116017531D01*
X152766335Y-116017532D01*
X152766338Y-116017534D01*
X152885748Y-116073215D01*
X152895189Y-116077618D01*
X152947628Y-116123790D01*
X152966780Y-116190984D01*
X152946564Y-116257865D01*
X152895189Y-116302382D01*
X152766340Y-116362465D01*
X152766338Y-116362466D01*
X152585377Y-116489175D01*
X152429175Y-116645377D01*
X152302466Y-116826338D01*
X152302465Y-116826340D01*
X152209107Y-117026548D01*
X152209104Y-117026554D01*
X152151930Y-117239929D01*
X152151929Y-117239937D01*
X152132677Y-117459997D01*
X152132677Y-117460002D01*
X152151929Y-117680062D01*
X152151930Y-117680070D01*
X152209104Y-117893445D01*
X152209105Y-117893447D01*
X152209106Y-117893450D01*
X152237109Y-117953502D01*
X152302466Y-118093662D01*
X152302468Y-118093666D01*
X152429170Y-118274615D01*
X152429175Y-118274621D01*
X152585378Y-118430824D01*
X152585384Y-118430829D01*
X152766333Y-118557531D01*
X152766335Y-118557532D01*
X152766338Y-118557534D01*
X152885748Y-118613215D01*
X152895189Y-118617618D01*
X152947628Y-118663790D01*
X152966780Y-118730984D01*
X152946564Y-118797865D01*
X152895189Y-118842382D01*
X152766340Y-118902465D01*
X152766338Y-118902466D01*
X152585377Y-119029175D01*
X152429175Y-119185377D01*
X152302466Y-119366338D01*
X152302465Y-119366340D01*
X152209107Y-119566548D01*
X152209104Y-119566554D01*
X152151930Y-119779929D01*
X152151929Y-119779937D01*
X152132677Y-119999997D01*
X152132677Y-120000002D01*
X152151929Y-120220062D01*
X152151930Y-120220070D01*
X152209104Y-120433445D01*
X152209105Y-120433447D01*
X152209106Y-120433450D01*
X152240139Y-120500000D01*
X152302466Y-120633662D01*
X152302468Y-120633666D01*
X152429170Y-120814615D01*
X152429175Y-120814621D01*
X152585378Y-120970824D01*
X152585384Y-120970829D01*
X152766333Y-121097531D01*
X152766335Y-121097532D01*
X152766338Y-121097534D01*
X152843815Y-121133662D01*
X152895189Y-121157618D01*
X152947628Y-121203790D01*
X152966780Y-121270984D01*
X152946564Y-121337865D01*
X152895189Y-121382382D01*
X152766340Y-121442465D01*
X152766338Y-121442466D01*
X152585377Y-121569175D01*
X152429175Y-121725377D01*
X152302466Y-121906338D01*
X152302465Y-121906340D01*
X152209107Y-122106548D01*
X152209104Y-122106554D01*
X152151930Y-122319929D01*
X152151929Y-122319937D01*
X152132677Y-122539997D01*
X152132677Y-122540002D01*
X152151929Y-122760062D01*
X152151930Y-122760070D01*
X152209104Y-122973445D01*
X152209105Y-122973447D01*
X152209106Y-122973450D01*
X152290278Y-123147524D01*
X152302466Y-123173662D01*
X152302468Y-123173666D01*
X152429170Y-123354615D01*
X152429175Y-123354621D01*
X152585378Y-123510824D01*
X152585384Y-123510829D01*
X152766333Y-123637531D01*
X152766335Y-123637532D01*
X152766338Y-123637534D01*
X152885748Y-123693215D01*
X152895189Y-123697618D01*
X152947628Y-123743790D01*
X152966780Y-123810984D01*
X152946564Y-123877865D01*
X152895189Y-123922382D01*
X152766340Y-123982465D01*
X152766338Y-123982466D01*
X152585377Y-124109175D01*
X152429175Y-124265377D01*
X152302466Y-124446338D01*
X152302465Y-124446340D01*
X152209107Y-124646548D01*
X152209104Y-124646554D01*
X152151930Y-124859929D01*
X152151929Y-124859937D01*
X152132677Y-125079997D01*
X152132677Y-125080002D01*
X152151929Y-125300062D01*
X152151930Y-125300070D01*
X152209104Y-125513445D01*
X152209105Y-125513447D01*
X152209106Y-125513450D01*
X152267283Y-125638211D01*
X152302466Y-125713662D01*
X152302468Y-125713666D01*
X152429170Y-125894615D01*
X152429175Y-125894621D01*
X152585378Y-126050824D01*
X152585384Y-126050829D01*
X152766333Y-126177531D01*
X152766335Y-126177532D01*
X152766338Y-126177534D01*
X152895189Y-126237618D01*
X152895781Y-126237894D01*
X152948220Y-126284066D01*
X152967372Y-126351260D01*
X152947156Y-126418141D01*
X152895781Y-126462658D01*
X152766590Y-126522901D01*
X152701811Y-126568258D01*
X153311414Y-127177861D01*
X153226306Y-127200667D01*
X153123694Y-127259910D01*
X153039910Y-127343694D01*
X152980667Y-127446306D01*
X152957861Y-127531414D01*
X152348258Y-126921811D01*
X152302901Y-126986590D01*
X152209579Y-127186720D01*
X152209575Y-127186729D01*
X152152426Y-127400013D01*
X152152424Y-127400023D01*
X152133179Y-127619999D01*
X152133179Y-127620000D01*
X152152424Y-127839976D01*
X152152426Y-127839986D01*
X152209575Y-128053270D01*
X152209580Y-128053284D01*
X152302898Y-128253405D01*
X152302901Y-128253411D01*
X152348258Y-128318187D01*
X152348259Y-128318188D01*
X152957861Y-127708585D01*
X152980667Y-127793694D01*
X153039910Y-127896306D01*
X153123694Y-127980090D01*
X153226306Y-128039333D01*
X153311414Y-128062137D01*
X152701810Y-128671740D01*
X152766589Y-128717098D01*
X152896373Y-128777618D01*
X152948812Y-128823790D01*
X152967964Y-128890984D01*
X152947748Y-128957865D01*
X152896373Y-129002382D01*
X152766590Y-129062901D01*
X152701811Y-129108258D01*
X153311414Y-129717861D01*
X153226306Y-129740667D01*
X153123694Y-129799910D01*
X153039910Y-129883694D01*
X152980667Y-129986306D01*
X152957861Y-130071414D01*
X152348258Y-129461811D01*
X152302901Y-129526590D01*
X152209579Y-129726720D01*
X152209575Y-129726729D01*
X152152426Y-129940013D01*
X152152424Y-129940023D01*
X152133179Y-130159999D01*
X152133179Y-130160000D01*
X152152424Y-130379976D01*
X152152426Y-130379986D01*
X152209575Y-130593270D01*
X152209580Y-130593284D01*
X152302898Y-130793405D01*
X152302901Y-130793411D01*
X152348258Y-130858187D01*
X152348259Y-130858188D01*
X152957861Y-130248585D01*
X152980667Y-130333694D01*
X153039910Y-130436306D01*
X153123694Y-130520090D01*
X153226306Y-130579333D01*
X153311414Y-130602137D01*
X152701810Y-131211740D01*
X152766590Y-131257099D01*
X152766592Y-131257100D01*
X152966715Y-131350419D01*
X152966729Y-131350424D01*
X153180013Y-131407573D01*
X153180023Y-131407575D01*
X153399999Y-131426821D01*
X153400001Y-131426821D01*
X153619976Y-131407575D01*
X153619986Y-131407573D01*
X153833270Y-131350424D01*
X153833284Y-131350419D01*
X154033407Y-131257100D01*
X154033417Y-131257094D01*
X154098188Y-131211741D01*
X153488585Y-130602137D01*
X153573694Y-130579333D01*
X153676306Y-130520090D01*
X153760090Y-130436306D01*
X153819333Y-130333694D01*
X153842138Y-130248585D01*
X154451741Y-130858188D01*
X154497094Y-130793417D01*
X154497100Y-130793407D01*
X154590419Y-130593284D01*
X154590424Y-130593270D01*
X154647573Y-130379986D01*
X154647575Y-130379976D01*
X154666821Y-130160000D01*
X154666821Y-130159999D01*
X154647575Y-129940023D01*
X154647573Y-129940013D01*
X154590424Y-129726729D01*
X154590420Y-129726720D01*
X154497096Y-129526586D01*
X154451741Y-129461811D01*
X154451740Y-129461810D01*
X153842137Y-130071413D01*
X153819333Y-129986306D01*
X153760090Y-129883694D01*
X153676306Y-129799910D01*
X153573694Y-129740667D01*
X153488585Y-129717862D01*
X154098188Y-129108259D01*
X154098187Y-129108258D01*
X154033411Y-129062901D01*
X154033405Y-129062898D01*
X153903627Y-129002382D01*
X153851187Y-128956210D01*
X153832035Y-128889017D01*
X153852251Y-128822135D01*
X153903627Y-128777618D01*
X154033407Y-128717100D01*
X154033417Y-128717094D01*
X154098188Y-128671741D01*
X153488585Y-128062137D01*
X153573694Y-128039333D01*
X153676306Y-127980090D01*
X153760090Y-127896306D01*
X153819333Y-127793694D01*
X153842138Y-127708585D01*
X154451741Y-128318188D01*
X154497094Y-128253417D01*
X154497100Y-128253407D01*
X154590419Y-128053284D01*
X154590424Y-128053270D01*
X154647573Y-127839986D01*
X154647575Y-127839976D01*
X154666821Y-127620000D01*
X154666821Y-127619999D01*
X154647575Y-127400023D01*
X154647573Y-127400013D01*
X154590424Y-127186729D01*
X154590420Y-127186720D01*
X154503350Y-126999997D01*
X176732677Y-126999997D01*
X176732677Y-127000002D01*
X176751929Y-127220062D01*
X176751930Y-127220070D01*
X176809104Y-127433445D01*
X176809105Y-127433447D01*
X176809106Y-127433450D01*
X176815101Y-127446306D01*
X176902466Y-127633662D01*
X176902468Y-127633666D01*
X177029170Y-127814615D01*
X177029175Y-127814621D01*
X177185378Y-127970824D01*
X177185384Y-127970829D01*
X177366333Y-128097531D01*
X177366335Y-128097532D01*
X177366338Y-128097534D01*
X177566550Y-128190894D01*
X177779932Y-128248070D01*
X177937123Y-128261822D01*
X177999998Y-128267323D01*
X178000000Y-128267323D01*
X178000002Y-128267323D01*
X178055017Y-128262509D01*
X178220068Y-128248070D01*
X178433450Y-128190894D01*
X178633662Y-128097534D01*
X178814620Y-127970826D01*
X178970826Y-127814620D01*
X179097534Y-127633662D01*
X179190894Y-127433450D01*
X179248070Y-127220068D01*
X179267323Y-127000000D01*
X179266149Y-126986586D01*
X179248070Y-126779937D01*
X179248070Y-126779932D01*
X179190894Y-126566550D01*
X179097534Y-126366339D01*
X179030703Y-126270894D01*
X178970827Y-126185381D01*
X178906734Y-126121288D01*
X178814620Y-126029174D01*
X178814616Y-126029171D01*
X178814615Y-126029170D01*
X178633666Y-125902468D01*
X178633662Y-125902466D01*
X178582719Y-125878711D01*
X187149500Y-125878711D01*
X187149500Y-126121288D01*
X187179775Y-126351260D01*
X187181162Y-126361789D01*
X187183879Y-126371930D01*
X187243947Y-126596104D01*
X187330631Y-126805377D01*
X187336776Y-126820212D01*
X187458064Y-127030289D01*
X187458066Y-127030292D01*
X187458067Y-127030293D01*
X187605733Y-127222736D01*
X187605739Y-127222743D01*
X187777256Y-127394260D01*
X187777262Y-127394265D01*
X187969711Y-127541936D01*
X188179788Y-127663224D01*
X188403900Y-127756054D01*
X188638211Y-127818838D01*
X188798773Y-127839976D01*
X188878711Y-127850500D01*
X188878712Y-127850500D01*
X189121289Y-127850500D01*
X189169388Y-127844167D01*
X189361789Y-127818838D01*
X189596100Y-127756054D01*
X189820212Y-127663224D01*
X190030289Y-127541936D01*
X190222738Y-127394265D01*
X190394265Y-127222738D01*
X190541936Y-127030289D01*
X190663224Y-126820212D01*
X190756054Y-126596100D01*
X190818838Y-126361789D01*
X190850500Y-126121288D01*
X190850500Y-125878712D01*
X190818838Y-125638211D01*
X190756054Y-125403900D01*
X190663224Y-125179788D01*
X190541936Y-124969711D01*
X190457700Y-124859932D01*
X190394266Y-124777263D01*
X190394260Y-124777256D01*
X190222743Y-124605739D01*
X190222736Y-124605733D01*
X190030293Y-124458067D01*
X190030292Y-124458066D01*
X190030289Y-124458064D01*
X189820212Y-124336776D01*
X189820205Y-124336773D01*
X189596104Y-124243947D01*
X189361785Y-124181161D01*
X189121289Y-124149500D01*
X189121288Y-124149500D01*
X188878712Y-124149500D01*
X188878711Y-124149500D01*
X188638214Y-124181161D01*
X188403895Y-124243947D01*
X188179794Y-124336773D01*
X188179785Y-124336777D01*
X187969706Y-124458067D01*
X187777263Y-124605733D01*
X187777256Y-124605739D01*
X187605739Y-124777256D01*
X187605733Y-124777263D01*
X187458067Y-124969706D01*
X187336777Y-125179785D01*
X187336773Y-125179794D01*
X187243947Y-125403895D01*
X187181161Y-125638214D01*
X187149500Y-125878711D01*
X178582719Y-125878711D01*
X178557729Y-125867058D01*
X178433450Y-125809106D01*
X178433447Y-125809105D01*
X178433445Y-125809104D01*
X178220070Y-125751930D01*
X178220062Y-125751929D01*
X178000002Y-125732677D01*
X177999998Y-125732677D01*
X177779937Y-125751929D01*
X177779929Y-125751930D01*
X177566554Y-125809104D01*
X177566548Y-125809107D01*
X177366340Y-125902465D01*
X177366338Y-125902466D01*
X177185377Y-126029175D01*
X177029175Y-126185377D01*
X176902466Y-126366338D01*
X176902465Y-126366340D01*
X176809107Y-126566548D01*
X176809104Y-126566554D01*
X176751930Y-126779929D01*
X176751929Y-126779937D01*
X176732677Y-126999997D01*
X154503350Y-126999997D01*
X154497096Y-126986586D01*
X154451741Y-126921811D01*
X154451740Y-126921810D01*
X153842137Y-127531413D01*
X153819333Y-127446306D01*
X153760090Y-127343694D01*
X153676306Y-127259910D01*
X153573694Y-127200667D01*
X153488585Y-127177862D01*
X154098188Y-126568259D01*
X154098187Y-126568258D01*
X154033411Y-126522901D01*
X154033405Y-126522898D01*
X153904219Y-126462658D01*
X153851779Y-126416486D01*
X153832627Y-126349293D01*
X153852843Y-126282411D01*
X153904219Y-126237894D01*
X153904811Y-126237618D01*
X154033662Y-126177534D01*
X154214620Y-126050826D01*
X154370826Y-125894620D01*
X154497534Y-125713662D01*
X154590894Y-125513450D01*
X154648070Y-125300068D01*
X154667323Y-125080000D01*
X154648070Y-124859932D01*
X154590894Y-124646550D01*
X154497534Y-124446339D01*
X154370826Y-124265380D01*
X154214620Y-124109174D01*
X154214616Y-124109171D01*
X154214615Y-124109170D01*
X154033666Y-123982468D01*
X154033658Y-123982464D01*
X153904811Y-123922382D01*
X153852371Y-123876210D01*
X153833219Y-123809017D01*
X153853435Y-123742135D01*
X153904811Y-123697618D01*
X153910802Y-123694824D01*
X154033662Y-123637534D01*
X154214620Y-123510826D01*
X154370826Y-123354620D01*
X154497534Y-123173662D01*
X154590894Y-122973450D01*
X154648070Y-122760068D01*
X154667323Y-122540000D01*
X154648070Y-122319932D01*
X154590894Y-122106550D01*
X154497534Y-121906339D01*
X154370826Y-121725380D01*
X154214620Y-121569174D01*
X154214616Y-121569171D01*
X154214615Y-121569170D01*
X154033666Y-121442468D01*
X154033658Y-121442464D01*
X153904811Y-121382382D01*
X153852371Y-121336210D01*
X153833219Y-121269017D01*
X153853435Y-121202135D01*
X153904811Y-121157618D01*
X153956176Y-121133666D01*
X154033662Y-121097534D01*
X154214620Y-120970826D01*
X154370826Y-120814620D01*
X154497534Y-120633662D01*
X154559863Y-120499997D01*
X176732677Y-120499997D01*
X176732677Y-120500002D01*
X176751929Y-120720062D01*
X176751930Y-120720070D01*
X176809104Y-120933445D01*
X176809105Y-120933447D01*
X176809106Y-120933450D01*
X176826534Y-120970824D01*
X176902466Y-121133662D01*
X176902468Y-121133666D01*
X177029170Y-121314615D01*
X177029175Y-121314621D01*
X177185378Y-121470824D01*
X177185384Y-121470829D01*
X177366333Y-121597531D01*
X177366335Y-121597532D01*
X177366338Y-121597534D01*
X177566550Y-121690894D01*
X177779932Y-121748070D01*
X177937123Y-121761822D01*
X177999998Y-121767323D01*
X178000000Y-121767323D01*
X178000002Y-121767323D01*
X178055017Y-121762509D01*
X178220068Y-121748070D01*
X178433450Y-121690894D01*
X178633662Y-121597534D01*
X178814620Y-121470826D01*
X178970826Y-121314620D01*
X179097534Y-121133662D01*
X179190894Y-120933450D01*
X179248070Y-120720068D01*
X179267323Y-120500000D01*
X179248070Y-120279932D01*
X179190894Y-120066550D01*
X179097534Y-119866339D01*
X178970826Y-119685380D01*
X178814620Y-119529174D01*
X178814616Y-119529171D01*
X178814615Y-119529170D01*
X178633666Y-119402468D01*
X178633662Y-119402466D01*
X178556187Y-119366339D01*
X178433450Y-119309106D01*
X178433447Y-119309105D01*
X178433445Y-119309104D01*
X178220070Y-119251930D01*
X178220062Y-119251929D01*
X178000002Y-119232677D01*
X177999998Y-119232677D01*
X177779937Y-119251929D01*
X177779929Y-119251930D01*
X177566554Y-119309104D01*
X177566548Y-119309107D01*
X177366340Y-119402465D01*
X177366338Y-119402466D01*
X177185377Y-119529175D01*
X177029175Y-119685377D01*
X176902466Y-119866338D01*
X176902465Y-119866340D01*
X176809107Y-120066548D01*
X176809104Y-120066554D01*
X176751930Y-120279929D01*
X176751929Y-120279937D01*
X176732677Y-120499997D01*
X154559863Y-120499997D01*
X154590894Y-120433450D01*
X154648070Y-120220068D01*
X154667323Y-120000000D01*
X154648070Y-119779932D01*
X154590894Y-119566550D01*
X154497534Y-119366339D01*
X154434180Y-119275859D01*
X154370827Y-119185381D01*
X154307638Y-119122192D01*
X154214620Y-119029174D01*
X154214616Y-119029171D01*
X154214615Y-119029170D01*
X154033666Y-118902468D01*
X154033658Y-118902464D01*
X153904811Y-118842382D01*
X153852371Y-118796210D01*
X153833219Y-118729017D01*
X153853435Y-118662135D01*
X153904811Y-118617618D01*
X153910802Y-118614824D01*
X154033662Y-118557534D01*
X154214620Y-118430826D01*
X154245448Y-118399998D01*
X159614532Y-118399998D01*
X159614532Y-118400001D01*
X159634364Y-118626686D01*
X159634366Y-118626697D01*
X159693258Y-118846488D01*
X159693261Y-118846497D01*
X159789431Y-119052732D01*
X159789432Y-119052734D01*
X159919954Y-119239141D01*
X160080858Y-119400045D01*
X160127693Y-119432839D01*
X160267266Y-119530568D01*
X160473504Y-119626739D01*
X160693308Y-119685635D01*
X160855230Y-119699801D01*
X160919998Y-119705468D01*
X160920000Y-119705468D01*
X160920002Y-119705468D01*
X160976673Y-119700509D01*
X161146692Y-119685635D01*
X161366496Y-119626739D01*
X161572734Y-119530568D01*
X161759139Y-119400047D01*
X161920047Y-119239139D01*
X162050568Y-119052734D01*
X162146739Y-118846496D01*
X162205635Y-118626692D01*
X162225468Y-118400000D01*
X162225468Y-118399998D01*
X169774532Y-118399998D01*
X169774532Y-118400001D01*
X169794364Y-118626686D01*
X169794366Y-118626697D01*
X169853258Y-118846488D01*
X169853261Y-118846497D01*
X169949431Y-119052732D01*
X169949432Y-119052734D01*
X170079954Y-119239141D01*
X170240858Y-119400045D01*
X170287693Y-119432839D01*
X170427266Y-119530568D01*
X170633504Y-119626739D01*
X170853308Y-119685635D01*
X171015230Y-119699801D01*
X171079998Y-119705468D01*
X171080000Y-119705468D01*
X171080002Y-119705468D01*
X171136673Y-119700509D01*
X171306692Y-119685635D01*
X171526496Y-119626739D01*
X171732734Y-119530568D01*
X171919139Y-119400047D01*
X172080047Y-119239139D01*
X172210568Y-119052734D01*
X172306739Y-118846496D01*
X172365635Y-118626692D01*
X172385468Y-118400000D01*
X172365635Y-118173308D01*
X172306739Y-117953504D01*
X172210568Y-117747266D01*
X172080047Y-117560861D01*
X172080045Y-117560858D01*
X171919141Y-117399954D01*
X171732734Y-117269432D01*
X171732732Y-117269431D01*
X171526497Y-117173261D01*
X171526488Y-117173258D01*
X171306697Y-117114366D01*
X171306693Y-117114365D01*
X171306692Y-117114365D01*
X171306691Y-117114364D01*
X171306686Y-117114364D01*
X171080002Y-117094532D01*
X171079998Y-117094532D01*
X170853313Y-117114364D01*
X170853302Y-117114366D01*
X170633511Y-117173258D01*
X170633502Y-117173261D01*
X170427267Y-117269431D01*
X170427265Y-117269432D01*
X170240858Y-117399954D01*
X170079954Y-117560858D01*
X169949432Y-117747265D01*
X169949431Y-117747267D01*
X169853261Y-117953502D01*
X169853258Y-117953511D01*
X169794366Y-118173302D01*
X169794364Y-118173313D01*
X169774532Y-118399998D01*
X162225468Y-118399998D01*
X162205635Y-118173308D01*
X162146739Y-117953504D01*
X162050568Y-117747266D01*
X161920047Y-117560861D01*
X161920045Y-117560858D01*
X161759141Y-117399954D01*
X161572734Y-117269432D01*
X161572732Y-117269431D01*
X161366497Y-117173261D01*
X161366488Y-117173258D01*
X161146697Y-117114366D01*
X161146693Y-117114365D01*
X161146692Y-117114365D01*
X161146691Y-117114364D01*
X161146686Y-117114364D01*
X160920002Y-117094532D01*
X160919998Y-117094532D01*
X160693313Y-117114364D01*
X160693302Y-117114366D01*
X160473511Y-117173258D01*
X160473502Y-117173261D01*
X160267267Y-117269431D01*
X160267265Y-117269432D01*
X160080858Y-117399954D01*
X159919954Y-117560858D01*
X159789432Y-117747265D01*
X159789431Y-117747267D01*
X159693261Y-117953502D01*
X159693258Y-117953511D01*
X159634366Y-118173302D01*
X159634364Y-118173313D01*
X159614532Y-118399998D01*
X154245448Y-118399998D01*
X154370826Y-118274620D01*
X154497534Y-118093662D01*
X154590894Y-117893450D01*
X154648070Y-117680068D01*
X154667323Y-117460000D01*
X154648070Y-117239932D01*
X154590894Y-117026550D01*
X154497534Y-116826339D01*
X154370826Y-116645380D01*
X154214620Y-116489174D01*
X154214616Y-116489171D01*
X154214615Y-116489170D01*
X154033666Y-116362468D01*
X154033658Y-116362464D01*
X153904811Y-116302382D01*
X153852371Y-116256210D01*
X153833219Y-116189017D01*
X153853435Y-116122135D01*
X153904811Y-116077618D01*
X153910802Y-116074824D01*
X154033662Y-116017534D01*
X154214620Y-115890826D01*
X154370826Y-115734620D01*
X154497534Y-115553662D01*
X154590894Y-115353450D01*
X154648070Y-115140068D01*
X154667323Y-114920000D01*
X154648070Y-114699932D01*
X154590894Y-114486550D01*
X154497534Y-114286339D01*
X154370826Y-114105380D01*
X154214620Y-113949174D01*
X154214616Y-113949171D01*
X154214615Y-113949170D01*
X154033666Y-113822468D01*
X154033658Y-113822464D01*
X153904811Y-113762382D01*
X153852371Y-113716210D01*
X153833219Y-113649017D01*
X153853435Y-113582135D01*
X153904811Y-113537618D01*
X153910802Y-113534824D01*
X154033662Y-113477534D01*
X154214620Y-113350826D01*
X154370826Y-113194620D01*
X154497534Y-113013662D01*
X154503905Y-112999999D01*
X160484341Y-112999999D01*
X160484341Y-113000000D01*
X160504936Y-113235403D01*
X160504938Y-113235413D01*
X160566094Y-113463655D01*
X160566096Y-113463659D01*
X160566097Y-113463663D01*
X160654236Y-113652677D01*
X160665965Y-113677830D01*
X160665967Y-113677834D01*
X160725169Y-113762382D01*
X160801505Y-113871401D01*
X160968599Y-114038495D01*
X161023600Y-114077007D01*
X161162165Y-114174032D01*
X161162167Y-114174033D01*
X161162170Y-114174035D01*
X161376337Y-114273903D01*
X161604592Y-114335063D01*
X161775319Y-114350000D01*
X161839999Y-114355659D01*
X161840000Y-114355659D01*
X161840001Y-114355659D01*
X161904681Y-114350000D01*
X162075408Y-114335063D01*
X162303663Y-114273903D01*
X162517830Y-114174035D01*
X162711401Y-114038495D01*
X162878495Y-113871401D01*
X163008425Y-113685842D01*
X163063002Y-113642217D01*
X163132500Y-113635023D01*
X163194855Y-113666546D01*
X163211575Y-113685842D01*
X163341500Y-113871395D01*
X163341505Y-113871401D01*
X163508599Y-114038495D01*
X163563600Y-114077007D01*
X163702165Y-114174032D01*
X163702167Y-114174033D01*
X163702170Y-114174035D01*
X163916337Y-114273903D01*
X164144592Y-114335063D01*
X164315319Y-114350000D01*
X164379999Y-114355659D01*
X164380000Y-114355659D01*
X164380001Y-114355659D01*
X164444681Y-114350000D01*
X164615408Y-114335063D01*
X164843663Y-114273903D01*
X165057830Y-114174035D01*
X165251401Y-114038495D01*
X165418495Y-113871401D01*
X165548425Y-113685842D01*
X165603002Y-113642217D01*
X165672500Y-113635023D01*
X165734855Y-113666546D01*
X165751575Y-113685842D01*
X165881500Y-113871395D01*
X165881505Y-113871401D01*
X166048599Y-114038495D01*
X166103600Y-114077007D01*
X166242165Y-114174032D01*
X166242167Y-114174033D01*
X166242170Y-114174035D01*
X166456337Y-114273903D01*
X166684592Y-114335063D01*
X166855319Y-114350000D01*
X166919999Y-114355659D01*
X166920000Y-114355659D01*
X166920001Y-114355659D01*
X166984681Y-114350000D01*
X167155408Y-114335063D01*
X167383663Y-114273903D01*
X167597830Y-114174035D01*
X167791401Y-114038495D01*
X167958495Y-113871401D01*
X168088425Y-113685842D01*
X168143002Y-113642217D01*
X168212500Y-113635023D01*
X168274855Y-113666546D01*
X168291575Y-113685842D01*
X168421500Y-113871395D01*
X168421505Y-113871401D01*
X168588599Y-114038495D01*
X168643600Y-114077007D01*
X168782165Y-114174032D01*
X168782167Y-114174033D01*
X168782170Y-114174035D01*
X168996337Y-114273903D01*
X169224592Y-114335063D01*
X169395319Y-114350000D01*
X169459999Y-114355659D01*
X169460000Y-114355659D01*
X169460001Y-114355659D01*
X169524681Y-114350000D01*
X169695408Y-114335063D01*
X169923663Y-114273903D01*
X170137830Y-114174035D01*
X170331401Y-114038495D01*
X170453717Y-113916178D01*
X170515036Y-113882696D01*
X170584728Y-113887680D01*
X170640662Y-113929551D01*
X170657577Y-113960528D01*
X170706646Y-114092088D01*
X170706649Y-114092093D01*
X170792809Y-114207187D01*
X170792812Y-114207190D01*
X170907906Y-114293350D01*
X170907913Y-114293354D01*
X171042620Y-114343596D01*
X171042627Y-114343598D01*
X171102155Y-114349999D01*
X171102172Y-114350000D01*
X171750000Y-114350000D01*
X171750000Y-113433012D01*
X171807007Y-113465925D01*
X171934174Y-113500000D01*
X172065826Y-113500000D01*
X172192993Y-113465925D01*
X172250000Y-113433012D01*
X172250000Y-114350000D01*
X172897828Y-114350000D01*
X172897844Y-114349999D01*
X172957372Y-114343598D01*
X172957379Y-114343596D01*
X173092086Y-114293354D01*
X173092093Y-114293350D01*
X173207187Y-114207190D01*
X173207190Y-114207187D01*
X173293350Y-114092093D01*
X173293354Y-114092086D01*
X173343596Y-113957379D01*
X173343598Y-113957372D01*
X173349999Y-113897844D01*
X173350000Y-113897827D01*
X173350000Y-113250000D01*
X172433012Y-113250000D01*
X172465925Y-113192993D01*
X172500000Y-113065826D01*
X172500000Y-112934174D01*
X172465925Y-112807007D01*
X172433012Y-112750000D01*
X173350000Y-112750000D01*
X173350000Y-112102172D01*
X173349999Y-112102155D01*
X173343598Y-112042627D01*
X173343596Y-112042620D01*
X173293354Y-111907913D01*
X173293350Y-111907906D01*
X173207190Y-111792812D01*
X173207187Y-111792809D01*
X173092093Y-111706649D01*
X173092086Y-111706645D01*
X172957379Y-111656403D01*
X172957372Y-111656401D01*
X172897844Y-111650000D01*
X172250000Y-111650000D01*
X172250000Y-112566988D01*
X172192993Y-112534075D01*
X172065826Y-112500000D01*
X171934174Y-112500000D01*
X171807007Y-112534075D01*
X171750000Y-112566988D01*
X171750000Y-111650000D01*
X171102155Y-111650000D01*
X171042627Y-111656401D01*
X171042620Y-111656403D01*
X170907913Y-111706645D01*
X170907906Y-111706649D01*
X170792812Y-111792809D01*
X170792809Y-111792812D01*
X170706649Y-111907906D01*
X170706645Y-111907913D01*
X170657578Y-112039470D01*
X170615707Y-112095404D01*
X170550242Y-112119821D01*
X170481969Y-112104969D01*
X170453715Y-112083819D01*
X170409366Y-112039470D01*
X170331401Y-111961505D01*
X170331397Y-111961502D01*
X170331396Y-111961501D01*
X170137834Y-111825967D01*
X170137830Y-111825965D01*
X170066727Y-111792809D01*
X169923663Y-111726097D01*
X169923659Y-111726096D01*
X169923655Y-111726094D01*
X169695413Y-111664938D01*
X169695403Y-111664936D01*
X169460001Y-111644341D01*
X169459999Y-111644341D01*
X169224596Y-111664936D01*
X169224586Y-111664938D01*
X168996344Y-111726094D01*
X168996335Y-111726098D01*
X168782171Y-111825964D01*
X168782169Y-111825965D01*
X168588597Y-111961505D01*
X168421505Y-112128597D01*
X168291575Y-112314158D01*
X168236998Y-112357783D01*
X168167500Y-112364977D01*
X168105145Y-112333454D01*
X168088425Y-112314158D01*
X167958494Y-112128597D01*
X167791402Y-111961506D01*
X167791395Y-111961501D01*
X167597834Y-111825967D01*
X167597830Y-111825965D01*
X167526727Y-111792809D01*
X167383663Y-111726097D01*
X167383659Y-111726096D01*
X167383655Y-111726094D01*
X167155413Y-111664938D01*
X167155403Y-111664936D01*
X166920001Y-111644341D01*
X166919999Y-111644341D01*
X166684596Y-111664936D01*
X166684586Y-111664938D01*
X166456344Y-111726094D01*
X166456335Y-111726098D01*
X166242171Y-111825964D01*
X166242169Y-111825965D01*
X166048597Y-111961505D01*
X165881505Y-112128597D01*
X165751575Y-112314158D01*
X165696998Y-112357783D01*
X165627500Y-112364977D01*
X165565145Y-112333454D01*
X165548425Y-112314158D01*
X165418494Y-112128597D01*
X165251402Y-111961506D01*
X165251395Y-111961501D01*
X165057834Y-111825967D01*
X165057830Y-111825965D01*
X164986727Y-111792809D01*
X164843663Y-111726097D01*
X164843659Y-111726096D01*
X164843655Y-111726094D01*
X164615413Y-111664938D01*
X164615403Y-111664936D01*
X164380001Y-111644341D01*
X164379999Y-111644341D01*
X164144596Y-111664936D01*
X164144586Y-111664938D01*
X163916344Y-111726094D01*
X163916335Y-111726098D01*
X163702171Y-111825964D01*
X163702169Y-111825965D01*
X163508597Y-111961505D01*
X163341505Y-112128597D01*
X163211575Y-112314158D01*
X163156998Y-112357783D01*
X163087500Y-112364977D01*
X163025145Y-112333454D01*
X163008425Y-112314158D01*
X162878494Y-112128597D01*
X162711402Y-111961506D01*
X162711395Y-111961501D01*
X162517834Y-111825967D01*
X162517830Y-111825965D01*
X162446727Y-111792809D01*
X162303663Y-111726097D01*
X162303659Y-111726096D01*
X162303655Y-111726094D01*
X162075413Y-111664938D01*
X162075403Y-111664936D01*
X161840001Y-111644341D01*
X161839999Y-111644341D01*
X161604596Y-111664936D01*
X161604586Y-111664938D01*
X161376344Y-111726094D01*
X161376335Y-111726098D01*
X161162171Y-111825964D01*
X161162169Y-111825965D01*
X160968597Y-111961505D01*
X160801505Y-112128597D01*
X160665965Y-112322169D01*
X160665964Y-112322171D01*
X160566098Y-112536335D01*
X160566094Y-112536344D01*
X160504938Y-112764586D01*
X160504936Y-112764596D01*
X160484341Y-112999999D01*
X154503905Y-112999999D01*
X154590894Y-112813450D01*
X154648070Y-112600068D01*
X154667323Y-112380000D01*
X154665379Y-112357783D01*
X154648070Y-112159937D01*
X154648070Y-112159932D01*
X154590894Y-111946550D01*
X154497534Y-111746339D01*
X154370826Y-111565380D01*
X154214620Y-111409174D01*
X154214616Y-111409171D01*
X154214615Y-111409170D01*
X154033666Y-111282468D01*
X154033658Y-111282464D01*
X153904811Y-111222382D01*
X153852371Y-111176210D01*
X153833219Y-111109017D01*
X153853435Y-111042135D01*
X153904811Y-110997618D01*
X153910802Y-110994824D01*
X154033662Y-110937534D01*
X154214620Y-110810826D01*
X154370826Y-110654620D01*
X154497534Y-110473662D01*
X154590894Y-110273450D01*
X154648070Y-110060068D01*
X154667323Y-109840000D01*
X154648070Y-109619932D01*
X154590894Y-109406550D01*
X154497534Y-109206339D01*
X154370826Y-109025380D01*
X154214620Y-108869174D01*
X154214616Y-108869171D01*
X154214615Y-108869170D01*
X154033666Y-108742468D01*
X154033658Y-108742464D01*
X153904811Y-108682382D01*
X153852371Y-108636210D01*
X153833219Y-108569017D01*
X153853435Y-108502135D01*
X153904811Y-108457618D01*
X153910802Y-108454824D01*
X154033662Y-108397534D01*
X154214620Y-108270826D01*
X154370826Y-108114620D01*
X154497534Y-107933662D01*
X154590894Y-107733450D01*
X154648070Y-107520068D01*
X154667323Y-107300000D01*
X154648070Y-107079932D01*
X154590894Y-106866550D01*
X154497534Y-106666339D01*
X154370826Y-106485380D01*
X154214620Y-106329174D01*
X154214616Y-106329171D01*
X154214615Y-106329170D01*
X154033666Y-106202468D01*
X154033658Y-106202464D01*
X153904811Y-106142382D01*
X153852371Y-106096210D01*
X153833219Y-106029017D01*
X153853435Y-105962135D01*
X153904811Y-105917618D01*
X153910802Y-105914824D01*
X154033662Y-105857534D01*
X154214620Y-105730826D01*
X154370826Y-105574620D01*
X154497534Y-105393662D01*
X154590894Y-105193450D01*
X154648070Y-104980068D01*
X154667323Y-104760000D01*
X154664015Y-104722194D01*
X154663320Y-104714246D01*
X154648070Y-104539932D01*
X154643765Y-104523866D01*
X154645424Y-104454017D01*
X154675855Y-104404089D01*
X156358455Y-102721489D01*
X156419776Y-102688006D01*
X156489468Y-102692990D01*
X156496570Y-102695893D01*
X156535728Y-102713327D01*
X156535733Y-102713329D01*
X156710609Y-102750500D01*
X156710610Y-102750500D01*
X156889389Y-102750500D01*
X156889391Y-102750500D01*
X156891743Y-102750000D01*
X161200602Y-102750000D01*
X161219307Y-102987681D01*
X161219307Y-102987684D01*
X161219308Y-102987686D01*
X161273016Y-103211395D01*
X161274968Y-103219523D01*
X161274971Y-103219531D01*
X161366203Y-103439788D01*
X161366205Y-103439791D01*
X161490777Y-103643075D01*
X161490778Y-103643077D01*
X161530854Y-103690000D01*
X161645623Y-103824377D01*
X161719777Y-103887710D01*
X161826922Y-103979221D01*
X161826924Y-103979222D01*
X162030208Y-104103794D01*
X162030211Y-104103796D01*
X162242217Y-104191610D01*
X162250480Y-104195033D01*
X162482314Y-104250692D01*
X162720000Y-104269398D01*
X162957686Y-104250692D01*
X163189520Y-104195033D01*
X163355361Y-104126340D01*
X163409788Y-104103796D01*
X163409789Y-104103795D01*
X163409792Y-104103794D01*
X163613080Y-103979219D01*
X163794377Y-103824377D01*
X163949219Y-103643080D01*
X164073794Y-103439792D01*
X164165033Y-103219520D01*
X164220692Y-102987686D01*
X164239398Y-102750000D01*
X164220692Y-102512314D01*
X164165033Y-102280480D01*
X164151509Y-102247829D01*
X164073796Y-102060211D01*
X164073794Y-102060208D01*
X163949222Y-101856924D01*
X163949221Y-101856922D01*
X163852466Y-101743637D01*
X163794377Y-101675623D01*
X163649825Y-101552164D01*
X163613077Y-101520778D01*
X163613075Y-101520777D01*
X163409791Y-101396205D01*
X163409788Y-101396203D01*
X163189531Y-101304971D01*
X163189523Y-101304968D01*
X163189521Y-101304967D01*
X163189520Y-101304967D01*
X162957686Y-101249308D01*
X162957684Y-101249307D01*
X162957681Y-101249307D01*
X162720000Y-101230602D01*
X162482318Y-101249307D01*
X162482314Y-101249308D01*
X162264909Y-101301503D01*
X162250476Y-101304968D01*
X162250468Y-101304971D01*
X162030211Y-101396203D01*
X162030208Y-101396205D01*
X161826924Y-101520777D01*
X161826922Y-101520778D01*
X161645623Y-101675623D01*
X161490778Y-101856922D01*
X161490777Y-101856924D01*
X161366205Y-102060208D01*
X161366203Y-102060211D01*
X161274971Y-102280468D01*
X161274968Y-102280476D01*
X161219307Y-102512318D01*
X161200602Y-102750000D01*
X156891743Y-102750000D01*
X157064267Y-102713329D01*
X157227593Y-102640612D01*
X157372230Y-102535526D01*
X157491859Y-102402665D01*
X157581250Y-102247835D01*
X157636497Y-102077803D01*
X157655185Y-101900000D01*
X157636497Y-101722197D01*
X157581250Y-101552165D01*
X157491859Y-101397335D01*
X157408694Y-101304971D01*
X157372235Y-101264478D01*
X157372232Y-101264476D01*
X157372231Y-101264475D01*
X157372230Y-101264474D01*
X157227593Y-101159388D01*
X157064267Y-101086671D01*
X157064265Y-101086670D01*
X156936594Y-101059533D01*
X156889391Y-101049500D01*
X156710609Y-101049500D01*
X156679954Y-101056015D01*
X156535733Y-101086670D01*
X156535728Y-101086672D01*
X156372408Y-101159388D01*
X156372403Y-101159390D01*
X156280974Y-101225818D01*
X156215168Y-101249298D01*
X156208089Y-101249500D01*
X156195929Y-101249500D01*
X156070261Y-101274497D01*
X156070255Y-101274499D01*
X156005058Y-101301505D01*
X155951874Y-101323534D01*
X155845326Y-101394726D01*
X154874406Y-102365646D01*
X154813083Y-102399131D01*
X154743391Y-102394147D01*
X154687458Y-102352275D01*
X154663041Y-102286811D01*
X154663197Y-102267157D01*
X154667323Y-102220000D01*
X154667323Y-102219997D01*
X154654883Y-102077805D01*
X154648070Y-101999932D01*
X154590894Y-101786550D01*
X154497534Y-101586339D01*
X154396576Y-101442155D01*
X154370827Y-101405381D01*
X154344916Y-101379470D01*
X154214620Y-101249174D01*
X154214616Y-101249171D01*
X154214615Y-101249170D01*
X154033666Y-101122468D01*
X154033658Y-101122464D01*
X153904811Y-101062382D01*
X153852371Y-101016210D01*
X153833219Y-100949017D01*
X153853435Y-100882135D01*
X153904811Y-100837618D01*
X153910802Y-100834824D01*
X154033662Y-100777534D01*
X154214620Y-100650826D01*
X154370826Y-100494620D01*
X154497534Y-100313662D01*
X154590894Y-100113450D01*
X154648070Y-99900068D01*
X154667323Y-99680000D01*
X154648070Y-99459932D01*
X154590894Y-99246550D01*
X154497534Y-99046339D01*
X154370826Y-98865380D01*
X154214620Y-98709174D01*
X154214616Y-98709171D01*
X154214615Y-98709170D01*
X154033666Y-98582468D01*
X154033658Y-98582464D01*
X153904811Y-98522382D01*
X153852371Y-98476210D01*
X153833219Y-98409017D01*
X153853435Y-98342135D01*
X153904811Y-98297618D01*
X153910802Y-98294824D01*
X154033662Y-98237534D01*
X154214620Y-98110826D01*
X154370826Y-97954620D01*
X154497534Y-97773662D01*
X154590894Y-97573450D01*
X154648070Y-97360068D01*
X154667323Y-97140000D01*
X154648070Y-96919932D01*
X154590894Y-96706550D01*
X154497534Y-96506339D01*
X154370826Y-96325380D01*
X154214620Y-96169174D01*
X154214616Y-96169171D01*
X154214615Y-96169170D01*
X154033666Y-96042468D01*
X154033658Y-96042464D01*
X153904811Y-95982382D01*
X153852371Y-95936210D01*
X153833219Y-95869017D01*
X153853435Y-95802135D01*
X153904811Y-95757618D01*
X153910802Y-95754824D01*
X154033662Y-95697534D01*
X154214620Y-95570826D01*
X154370826Y-95414620D01*
X154497534Y-95233662D01*
X154590894Y-95033450D01*
X154648070Y-94820068D01*
X154667323Y-94600000D01*
X154648070Y-94379932D01*
X154590894Y-94166550D01*
X154497534Y-93966339D01*
X154370826Y-93785380D01*
X154214620Y-93629174D01*
X154214616Y-93629171D01*
X154214615Y-93629170D01*
X154033666Y-93502468D01*
X154033658Y-93502464D01*
X153904811Y-93442382D01*
X153852371Y-93396210D01*
X153833219Y-93329017D01*
X153853435Y-93262135D01*
X153904811Y-93217618D01*
X153910802Y-93214824D01*
X154033662Y-93157534D01*
X154214620Y-93030826D01*
X154370826Y-92874620D01*
X154497534Y-92693662D01*
X154590894Y-92493450D01*
X154648070Y-92280068D01*
X154667323Y-92060000D01*
X154648070Y-91839932D01*
X154590894Y-91626550D01*
X154497534Y-91426339D01*
X154370826Y-91245380D01*
X154214620Y-91089174D01*
X154214616Y-91089171D01*
X154214615Y-91089170D01*
X154033666Y-90962468D01*
X154033658Y-90962464D01*
X153904811Y-90902382D01*
X153852371Y-90856210D01*
X153833219Y-90789017D01*
X153853435Y-90722135D01*
X153904811Y-90677618D01*
X153910802Y-90674824D01*
X154033662Y-90617534D01*
X154214620Y-90490826D01*
X154370826Y-90334620D01*
X154497534Y-90153662D01*
X154590894Y-89953450D01*
X154648070Y-89740068D01*
X154667323Y-89520000D01*
X154648070Y-89299932D01*
X154590894Y-89086550D01*
X154497534Y-88886339D01*
X154370826Y-88705380D01*
X154214620Y-88549174D01*
X154214616Y-88549171D01*
X154214615Y-88549170D01*
X154033666Y-88422468D01*
X154033658Y-88422464D01*
X153904811Y-88362382D01*
X153852371Y-88316210D01*
X153833219Y-88249017D01*
X153853435Y-88182135D01*
X153904811Y-88137618D01*
X153910802Y-88134824D01*
X154033662Y-88077534D01*
X154214620Y-87950826D01*
X154370826Y-87794620D01*
X154497534Y-87613662D01*
X154590894Y-87413450D01*
X154648070Y-87200068D01*
X154667323Y-86980000D01*
X154648070Y-86759932D01*
X154590894Y-86546550D01*
X154497534Y-86346339D01*
X154370826Y-86165380D01*
X154214620Y-86009174D01*
X154214616Y-86009171D01*
X154214615Y-86009170D01*
X154033666Y-85882468D01*
X154033658Y-85882464D01*
X153904811Y-85822382D01*
X153852371Y-85776210D01*
X153833219Y-85709017D01*
X153853435Y-85642135D01*
X153904811Y-85597618D01*
X153910802Y-85594824D01*
X154033662Y-85537534D01*
X154214620Y-85410826D01*
X154370826Y-85254620D01*
X154497534Y-85073662D01*
X154590894Y-84873450D01*
X154648070Y-84660068D01*
X154667323Y-84440000D01*
X154648070Y-84219932D01*
X154590894Y-84006550D01*
X154578517Y-83980007D01*
X157599500Y-83980007D01*
X157599500Y-100019992D01*
X157614799Y-100056928D01*
X157614800Y-100056929D01*
X157643071Y-100085200D01*
X157680009Y-100100500D01*
X164775500Y-100100500D01*
X164842539Y-100120185D01*
X164888294Y-100172989D01*
X164899500Y-100224500D01*
X164899500Y-105619992D01*
X164914799Y-105656928D01*
X164914800Y-105656929D01*
X164943071Y-105685200D01*
X164980009Y-105700500D01*
X164980011Y-105700500D01*
X186019989Y-105700500D01*
X186019991Y-105700500D01*
X186056929Y-105685200D01*
X186085200Y-105656929D01*
X186100500Y-105619991D01*
X186100500Y-102750000D01*
X187700602Y-102750000D01*
X187719307Y-102987681D01*
X187719307Y-102987684D01*
X187719308Y-102987686D01*
X187773016Y-103211395D01*
X187774968Y-103219523D01*
X187774971Y-103219531D01*
X187866203Y-103439788D01*
X187866205Y-103439791D01*
X187990777Y-103643075D01*
X187990778Y-103643077D01*
X188030854Y-103690000D01*
X188145623Y-103824377D01*
X188219777Y-103887710D01*
X188326922Y-103979221D01*
X188326924Y-103979222D01*
X188530208Y-104103794D01*
X188530211Y-104103796D01*
X188742217Y-104191610D01*
X188750480Y-104195033D01*
X188982314Y-104250692D01*
X189220000Y-104269398D01*
X189457686Y-104250692D01*
X189689520Y-104195033D01*
X189855361Y-104126340D01*
X189909788Y-104103796D01*
X189909789Y-104103795D01*
X189909792Y-104103794D01*
X190113080Y-103979219D01*
X190294377Y-103824377D01*
X190449219Y-103643080D01*
X190573794Y-103439792D01*
X190665033Y-103219520D01*
X190720692Y-102987686D01*
X190739398Y-102750000D01*
X190720692Y-102512314D01*
X190665033Y-102280480D01*
X190651509Y-102247829D01*
X190573796Y-102060211D01*
X190573794Y-102060208D01*
X190449222Y-101856924D01*
X190449221Y-101856922D01*
X190352466Y-101743637D01*
X190294377Y-101675623D01*
X190149825Y-101552164D01*
X190113077Y-101520778D01*
X190113075Y-101520777D01*
X189909791Y-101396205D01*
X189909788Y-101396203D01*
X189689531Y-101304971D01*
X189689523Y-101304968D01*
X189689521Y-101304967D01*
X189689520Y-101304967D01*
X189457686Y-101249308D01*
X189457684Y-101249307D01*
X189457681Y-101249307D01*
X189220000Y-101230602D01*
X188982318Y-101249307D01*
X188982314Y-101249308D01*
X188764909Y-101301503D01*
X188750476Y-101304968D01*
X188750468Y-101304971D01*
X188530211Y-101396203D01*
X188530208Y-101396205D01*
X188326924Y-101520777D01*
X188326922Y-101520778D01*
X188145623Y-101675623D01*
X187990778Y-101856922D01*
X187990777Y-101856924D01*
X187866205Y-102060208D01*
X187866203Y-102060211D01*
X187774971Y-102280468D01*
X187774968Y-102280476D01*
X187719307Y-102512318D01*
X187700602Y-102750000D01*
X186100500Y-102750000D01*
X186100500Y-100224500D01*
X186120185Y-100157461D01*
X186172989Y-100111706D01*
X186224500Y-100100500D01*
X192019989Y-100100500D01*
X192019991Y-100100500D01*
X192056929Y-100085200D01*
X192085200Y-100056929D01*
X192100500Y-100019991D01*
X192100500Y-84980009D01*
X192085200Y-84943071D01*
X192056929Y-84914800D01*
X192056928Y-84914799D01*
X192019992Y-84899500D01*
X192019991Y-84899500D01*
X186224500Y-84899500D01*
X186157461Y-84879815D01*
X186111706Y-84827011D01*
X186100500Y-84775500D01*
X186100500Y-81750000D01*
X187700602Y-81750000D01*
X187719307Y-81987681D01*
X187719307Y-81987684D01*
X187719308Y-81987686D01*
X187751090Y-82120068D01*
X187774968Y-82219523D01*
X187774971Y-82219531D01*
X187866203Y-82439788D01*
X187866205Y-82439791D01*
X187990777Y-82643075D01*
X187990778Y-82643077D01*
X187990781Y-82643080D01*
X188145623Y-82824377D01*
X188219777Y-82887710D01*
X188326922Y-82979221D01*
X188326924Y-82979222D01*
X188530208Y-83103794D01*
X188530211Y-83103796D01*
X188692420Y-83170984D01*
X188750480Y-83195033D01*
X188982314Y-83250692D01*
X189220000Y-83269398D01*
X189457686Y-83250692D01*
X189689520Y-83195033D01*
X189813729Y-83143584D01*
X189909788Y-83103796D01*
X189909789Y-83103795D01*
X189909792Y-83103794D01*
X190113080Y-82979219D01*
X190294377Y-82824377D01*
X190449219Y-82643080D01*
X190573794Y-82439792D01*
X190665033Y-82219520D01*
X190720692Y-81987686D01*
X190739398Y-81750000D01*
X190720692Y-81512314D01*
X190665033Y-81280480D01*
X190659175Y-81266338D01*
X190573796Y-81060211D01*
X190573794Y-81060208D01*
X190449222Y-80856924D01*
X190449221Y-80856922D01*
X190352466Y-80743637D01*
X190294377Y-80675623D01*
X190174513Y-80573249D01*
X190113077Y-80520778D01*
X190113075Y-80520777D01*
X189909791Y-80396205D01*
X189909788Y-80396203D01*
X189689531Y-80304971D01*
X189689523Y-80304968D01*
X189689521Y-80304967D01*
X189689520Y-80304967D01*
X189457686Y-80249308D01*
X189457684Y-80249307D01*
X189457681Y-80249307D01*
X189220000Y-80230602D01*
X188982318Y-80249307D01*
X188750476Y-80304968D01*
X188750468Y-80304971D01*
X188530211Y-80396203D01*
X188530208Y-80396205D01*
X188326924Y-80520777D01*
X188326922Y-80520778D01*
X188145623Y-80675623D01*
X187990778Y-80856922D01*
X187990777Y-80856924D01*
X187866205Y-81060208D01*
X187866203Y-81060211D01*
X187774971Y-81280468D01*
X187774968Y-81280476D01*
X187719307Y-81512318D01*
X187700602Y-81750000D01*
X186100500Y-81750000D01*
X186100500Y-78980010D01*
X186100499Y-78980007D01*
X186085200Y-78943071D01*
X186056928Y-78914799D01*
X186019992Y-78899500D01*
X186019991Y-78899500D01*
X165019991Y-78899500D01*
X164980009Y-78899500D01*
X164980007Y-78899500D01*
X164943071Y-78914799D01*
X164914799Y-78943071D01*
X164899500Y-78980007D01*
X164899500Y-83775500D01*
X164879815Y-83842539D01*
X164827011Y-83888294D01*
X164775500Y-83899500D01*
X157680007Y-83899500D01*
X157643071Y-83914799D01*
X157614799Y-83943071D01*
X157599500Y-83980007D01*
X154578517Y-83980007D01*
X154497534Y-83806339D01*
X154370826Y-83625380D01*
X154214620Y-83469174D01*
X154214616Y-83469171D01*
X154214615Y-83469170D01*
X154033666Y-83342468D01*
X154033658Y-83342464D01*
X153904811Y-83282382D01*
X153852371Y-83236210D01*
X153833219Y-83169017D01*
X153853435Y-83102135D01*
X153904811Y-83057618D01*
X153934538Y-83043756D01*
X154033662Y-82997534D01*
X154214620Y-82870826D01*
X154370826Y-82714620D01*
X154497534Y-82533662D01*
X154590894Y-82333450D01*
X154648070Y-82120068D01*
X154667323Y-81900000D01*
X154654200Y-81750000D01*
X161200602Y-81750000D01*
X161219307Y-81987681D01*
X161219307Y-81987684D01*
X161219308Y-81987686D01*
X161251090Y-82120068D01*
X161274968Y-82219523D01*
X161274971Y-82219531D01*
X161366203Y-82439788D01*
X161366205Y-82439791D01*
X161490777Y-82643075D01*
X161490778Y-82643077D01*
X161490781Y-82643080D01*
X161645623Y-82824377D01*
X161719777Y-82887710D01*
X161826922Y-82979221D01*
X161826924Y-82979222D01*
X162030208Y-83103794D01*
X162030211Y-83103796D01*
X162192420Y-83170984D01*
X162250480Y-83195033D01*
X162482314Y-83250692D01*
X162720000Y-83269398D01*
X162957686Y-83250692D01*
X163189520Y-83195033D01*
X163313729Y-83143584D01*
X163409788Y-83103796D01*
X163409789Y-83103795D01*
X163409792Y-83103794D01*
X163613080Y-82979219D01*
X163794377Y-82824377D01*
X163949219Y-82643080D01*
X164073794Y-82439792D01*
X164165033Y-82219520D01*
X164220692Y-81987686D01*
X164239398Y-81750000D01*
X164220692Y-81512314D01*
X164165033Y-81280480D01*
X164159175Y-81266338D01*
X164073796Y-81060211D01*
X164073794Y-81060208D01*
X163949222Y-80856924D01*
X163949221Y-80856922D01*
X163852466Y-80743637D01*
X163794377Y-80675623D01*
X163674513Y-80573249D01*
X163613077Y-80520778D01*
X163613075Y-80520777D01*
X163409791Y-80396205D01*
X163409788Y-80396203D01*
X163189531Y-80304971D01*
X163189523Y-80304968D01*
X163189521Y-80304967D01*
X163189520Y-80304967D01*
X162957686Y-80249308D01*
X162957684Y-80249307D01*
X162957681Y-80249307D01*
X162720000Y-80230602D01*
X162482318Y-80249307D01*
X162250476Y-80304968D01*
X162250468Y-80304971D01*
X162030211Y-80396203D01*
X162030208Y-80396205D01*
X161826924Y-80520777D01*
X161826922Y-80520778D01*
X161645623Y-80675623D01*
X161490778Y-80856922D01*
X161490777Y-80856924D01*
X161366205Y-81060208D01*
X161366203Y-81060211D01*
X161274971Y-81280468D01*
X161274968Y-81280476D01*
X161219307Y-81512318D01*
X161200602Y-81750000D01*
X154654200Y-81750000D01*
X154648070Y-81679932D01*
X154590894Y-81466550D01*
X154497534Y-81266339D01*
X154370826Y-81085380D01*
X154214620Y-80929174D01*
X154214616Y-80929171D01*
X154214615Y-80929170D01*
X154033666Y-80802468D01*
X154033662Y-80802466D01*
X153907502Y-80743637D01*
X153833450Y-80709106D01*
X153833447Y-80709105D01*
X153833445Y-80709104D01*
X153620070Y-80651930D01*
X153620062Y-80651929D01*
X153400002Y-80632677D01*
X153399998Y-80632677D01*
X153179937Y-80651929D01*
X153179929Y-80651930D01*
X152966554Y-80709104D01*
X152966548Y-80709107D01*
X152766340Y-80802465D01*
X152766338Y-80802466D01*
X152585377Y-80929175D01*
X152429175Y-81085377D01*
X152302466Y-81266338D01*
X152302465Y-81266340D01*
X152209107Y-81466548D01*
X152209104Y-81466554D01*
X152151930Y-81679929D01*
X152151929Y-81679937D01*
X152132677Y-81899997D01*
X139427323Y-81899997D01*
X139408070Y-81679932D01*
X139350894Y-81466550D01*
X139257534Y-81266339D01*
X139130826Y-81085380D01*
X138974620Y-80929174D01*
X138974616Y-80929171D01*
X138974615Y-80929170D01*
X138793666Y-80802468D01*
X138793662Y-80802466D01*
X138667502Y-80743637D01*
X138593450Y-80709106D01*
X138593447Y-80709105D01*
X138593445Y-80709104D01*
X138380070Y-80651930D01*
X138380062Y-80651929D01*
X138160002Y-80632677D01*
X138159998Y-80632677D01*
X137939937Y-80651929D01*
X137939929Y-80651930D01*
X137726554Y-80709104D01*
X137726548Y-80709107D01*
X137526340Y-80802465D01*
X137526338Y-80802466D01*
X137345377Y-80929175D01*
X137189175Y-81085377D01*
X137062466Y-81266338D01*
X137062465Y-81266340D01*
X136969107Y-81466548D01*
X136969104Y-81466554D01*
X136911930Y-81679929D01*
X136911929Y-81679937D01*
X136892677Y-81899997D01*
X131727593Y-81899997D01*
X131739398Y-81750000D01*
X131720692Y-81512314D01*
X131665033Y-81280480D01*
X131659175Y-81266338D01*
X131573796Y-81060211D01*
X131573794Y-81060208D01*
X131449222Y-80856924D01*
X131449221Y-80856922D01*
X131352466Y-80743637D01*
X131294377Y-80675623D01*
X131174513Y-80573249D01*
X131113077Y-80520778D01*
X131113075Y-80520777D01*
X130909791Y-80396205D01*
X130909788Y-80396203D01*
X130689531Y-80304971D01*
X130689523Y-80304968D01*
X130689521Y-80304967D01*
X130689520Y-80304967D01*
X130457686Y-80249308D01*
X130457684Y-80249307D01*
X130457681Y-80249307D01*
X130220000Y-80230602D01*
X129982318Y-80249307D01*
X129750476Y-80304968D01*
X129750468Y-80304971D01*
X129530211Y-80396203D01*
X129530208Y-80396205D01*
X129326924Y-80520777D01*
X129326922Y-80520778D01*
X129145623Y-80675623D01*
X128990778Y-80856922D01*
X128990777Y-80856924D01*
X128866205Y-81060208D01*
X128866203Y-81060211D01*
X128774971Y-81280468D01*
X128774968Y-81280476D01*
X128719307Y-81512318D01*
X128700602Y-81750000D01*
X127100500Y-81750000D01*
X127100500Y-78980010D01*
X127100499Y-78980007D01*
X127085200Y-78943071D01*
X127056928Y-78914799D01*
X127019992Y-78899500D01*
X127019991Y-78899500D01*
X106019991Y-78899500D01*
X105980009Y-78899500D01*
X105980007Y-78899500D01*
X105943071Y-78914799D01*
X105914799Y-78943071D01*
X105899500Y-78980007D01*
X105899500Y-83775500D01*
X105879815Y-83842539D01*
X105827011Y-83888294D01*
X105775500Y-83899500D01*
X98680007Y-83899500D01*
X98643071Y-83914799D01*
X98614799Y-83943071D01*
X98599500Y-83980007D01*
X97100500Y-83980007D01*
X97100500Y-81750000D01*
X102200602Y-81750000D01*
X102219307Y-81987681D01*
X102219307Y-81987684D01*
X102219308Y-81987686D01*
X102251090Y-82120068D01*
X102274968Y-82219523D01*
X102274971Y-82219531D01*
X102366203Y-82439788D01*
X102366205Y-82439791D01*
X102490777Y-82643075D01*
X102490778Y-82643077D01*
X102490781Y-82643080D01*
X102645623Y-82824377D01*
X102719777Y-82887710D01*
X102826922Y-82979221D01*
X102826924Y-82979222D01*
X103030208Y-83103794D01*
X103030211Y-83103796D01*
X103192420Y-83170984D01*
X103250480Y-83195033D01*
X103482314Y-83250692D01*
X103720000Y-83269398D01*
X103957686Y-83250692D01*
X104189520Y-83195033D01*
X104313729Y-83143584D01*
X104409788Y-83103796D01*
X104409789Y-83103795D01*
X104409792Y-83103794D01*
X104613080Y-82979219D01*
X104794377Y-82824377D01*
X104949219Y-82643080D01*
X105073794Y-82439792D01*
X105165033Y-82219520D01*
X105220692Y-81987686D01*
X105239398Y-81750000D01*
X105220692Y-81512314D01*
X105165033Y-81280480D01*
X105159175Y-81266338D01*
X105073796Y-81060211D01*
X105073794Y-81060208D01*
X104949222Y-80856924D01*
X104949221Y-80856922D01*
X104852466Y-80743637D01*
X104794377Y-80675623D01*
X104674513Y-80573249D01*
X104613077Y-80520778D01*
X104613075Y-80520777D01*
X104409791Y-80396205D01*
X104409788Y-80396203D01*
X104189531Y-80304971D01*
X104189523Y-80304968D01*
X104189521Y-80304967D01*
X104189520Y-80304967D01*
X103957686Y-80249308D01*
X103957684Y-80249307D01*
X103957681Y-80249307D01*
X103720000Y-80230602D01*
X103482318Y-80249307D01*
X103250476Y-80304968D01*
X103250468Y-80304971D01*
X103030211Y-80396203D01*
X103030208Y-80396205D01*
X102826924Y-80520777D01*
X102826922Y-80520778D01*
X102645623Y-80675623D01*
X102490778Y-80856922D01*
X102490777Y-80856924D01*
X102366205Y-81060208D01*
X102366203Y-81060211D01*
X102274971Y-81280468D01*
X102274968Y-81280476D01*
X102219307Y-81512318D01*
X102200602Y-81750000D01*
X97100500Y-81750000D01*
X97100500Y-74001858D01*
X97100557Y-73998113D01*
X97105585Y-73831720D01*
X97118448Y-73406008D01*
X97118897Y-73398580D01*
X97172340Y-72810471D01*
X97173243Y-72803040D01*
X97177598Y-72774427D01*
X97262092Y-72219260D01*
X97263441Y-72211902D01*
X97387376Y-71634550D01*
X97389159Y-71627312D01*
X97547743Y-71058446D01*
X97549959Y-71051338D01*
X97742590Y-70493113D01*
X97745230Y-70486151D01*
X97971223Y-69940554D01*
X97974276Y-69933771D01*
X98001085Y-69878711D01*
X101149500Y-69878711D01*
X101149500Y-70121288D01*
X101181161Y-70361785D01*
X101243947Y-70596104D01*
X101272268Y-70664476D01*
X101336776Y-70820212D01*
X101458064Y-71030289D01*
X101458066Y-71030292D01*
X101458067Y-71030293D01*
X101605733Y-71222736D01*
X101605739Y-71222743D01*
X101777256Y-71394260D01*
X101777262Y-71394265D01*
X101969711Y-71541936D01*
X102179788Y-71663224D01*
X102403900Y-71756054D01*
X102638211Y-71818838D01*
X102818586Y-71842584D01*
X102878711Y-71850500D01*
X102878712Y-71850500D01*
X103121289Y-71850500D01*
X103169388Y-71844167D01*
X103361789Y-71818838D01*
X103596100Y-71756054D01*
X103820212Y-71663224D01*
X103929719Y-71600000D01*
X153144815Y-71600000D01*
X153163503Y-71777805D01*
X153163504Y-71777807D01*
X153218747Y-71947829D01*
X153218750Y-71947835D01*
X153308141Y-72102665D01*
X153317648Y-72113223D01*
X153347879Y-72176213D01*
X153349500Y-72196197D01*
X153349500Y-73264069D01*
X153356850Y-73301016D01*
X153356850Y-73301019D01*
X153369572Y-73364977D01*
X153374499Y-73389744D01*
X153423535Y-73508127D01*
X153494723Y-73614669D01*
X153637058Y-73757003D01*
X153670542Y-73818324D01*
X153672696Y-73831715D01*
X153679189Y-73893489D01*
X153679190Y-73893491D01*
X153679190Y-73893493D01*
X153734433Y-74063515D01*
X153734436Y-74063521D01*
X153823827Y-74218351D01*
X153839190Y-74235413D01*
X153943450Y-74351207D01*
X153943453Y-74351209D01*
X153943456Y-74351212D01*
X154088093Y-74456298D01*
X154251419Y-74529015D01*
X154426295Y-74566186D01*
X154426296Y-74566186D01*
X154605075Y-74566186D01*
X154605077Y-74566186D01*
X154779953Y-74529015D01*
X154943279Y-74456298D01*
X155087916Y-74351212D01*
X155207545Y-74218351D01*
X155296936Y-74063521D01*
X155352183Y-73893489D01*
X155370871Y-73715686D01*
X155352183Y-73537883D01*
X155308124Y-73402283D01*
X155296938Y-73367856D01*
X155296935Y-73367850D01*
X155207545Y-73213021D01*
X155131531Y-73128599D01*
X155107721Y-73102155D01*
X158030000Y-73102155D01*
X158030000Y-73750000D01*
X158946988Y-73750000D01*
X158914075Y-73807007D01*
X158880000Y-73934174D01*
X158880000Y-74065826D01*
X158914075Y-74192993D01*
X158946988Y-74250000D01*
X158030000Y-74250000D01*
X158030000Y-74897844D01*
X158036401Y-74957372D01*
X158036403Y-74957379D01*
X158086645Y-75092086D01*
X158086649Y-75092093D01*
X158172809Y-75207187D01*
X158172812Y-75207190D01*
X158287906Y-75293350D01*
X158287913Y-75293354D01*
X158422620Y-75343596D01*
X158422627Y-75343598D01*
X158482155Y-75349999D01*
X158482172Y-75350000D01*
X159130000Y-75350000D01*
X159130000Y-74433012D01*
X159187007Y-74465925D01*
X159314174Y-74500000D01*
X159445826Y-74500000D01*
X159572993Y-74465925D01*
X159630000Y-74433012D01*
X159630000Y-75350000D01*
X160277828Y-75350000D01*
X160277844Y-75349999D01*
X160337372Y-75343598D01*
X160337379Y-75343596D01*
X160472086Y-75293354D01*
X160472093Y-75293350D01*
X160587187Y-75207190D01*
X160587190Y-75207187D01*
X160673350Y-75092093D01*
X160673354Y-75092086D01*
X160722422Y-74960529D01*
X160764293Y-74904595D01*
X160829757Y-74880178D01*
X160898030Y-74895030D01*
X160926285Y-74916181D01*
X161048599Y-75038495D01*
X161125135Y-75092086D01*
X161242165Y-75174032D01*
X161242167Y-75174033D01*
X161242170Y-75174035D01*
X161456337Y-75273903D01*
X161684592Y-75335063D01*
X161855319Y-75350000D01*
X161919999Y-75355659D01*
X161920000Y-75355659D01*
X161920001Y-75355659D01*
X161984681Y-75350000D01*
X162155408Y-75335063D01*
X162383663Y-75273903D01*
X162597830Y-75174035D01*
X162791401Y-75038495D01*
X162958495Y-74871401D01*
X163088425Y-74685842D01*
X163143002Y-74642217D01*
X163212500Y-74635023D01*
X163274855Y-74666546D01*
X163291575Y-74685842D01*
X163421500Y-74871395D01*
X163421505Y-74871401D01*
X163588599Y-75038495D01*
X163665135Y-75092086D01*
X163782165Y-75174032D01*
X163782167Y-75174033D01*
X163782170Y-75174035D01*
X163996337Y-75273903D01*
X164224592Y-75335063D01*
X164395319Y-75350000D01*
X164459999Y-75355659D01*
X164460000Y-75355659D01*
X164460001Y-75355659D01*
X164524681Y-75350000D01*
X164695408Y-75335063D01*
X164923663Y-75273903D01*
X165137830Y-75174035D01*
X165331401Y-75038495D01*
X165498495Y-74871401D01*
X165628425Y-74685842D01*
X165683002Y-74642217D01*
X165752500Y-74635023D01*
X165814855Y-74666546D01*
X165831575Y-74685842D01*
X165961500Y-74871395D01*
X165961505Y-74871401D01*
X166128599Y-75038495D01*
X166205135Y-75092086D01*
X166322165Y-75174032D01*
X166322167Y-75174033D01*
X166322170Y-75174035D01*
X166536337Y-75273903D01*
X166764592Y-75335063D01*
X166935319Y-75350000D01*
X166999999Y-75355659D01*
X167000000Y-75355659D01*
X167000001Y-75355659D01*
X167064681Y-75350000D01*
X167235408Y-75335063D01*
X167463663Y-75273903D01*
X167677830Y-75174035D01*
X167871401Y-75038495D01*
X168038495Y-74871401D01*
X168168425Y-74685842D01*
X168223002Y-74642217D01*
X168292500Y-74635023D01*
X168354855Y-74666546D01*
X168371575Y-74685842D01*
X168501500Y-74871395D01*
X168501505Y-74871401D01*
X168668599Y-75038495D01*
X168745135Y-75092086D01*
X168862165Y-75174032D01*
X168862167Y-75174033D01*
X168862170Y-75174035D01*
X169076337Y-75273903D01*
X169304592Y-75335063D01*
X169475319Y-75350000D01*
X169539999Y-75355659D01*
X169540000Y-75355659D01*
X169540001Y-75355659D01*
X169604681Y-75350000D01*
X169775408Y-75335063D01*
X170003663Y-75273903D01*
X170217830Y-75174035D01*
X170411401Y-75038495D01*
X170578495Y-74871401D01*
X170714035Y-74677830D01*
X170813903Y-74463663D01*
X170875063Y-74235408D01*
X170895659Y-74000000D01*
X170875063Y-73764592D01*
X170814317Y-73537883D01*
X170813905Y-73536344D01*
X170813904Y-73536343D01*
X170813903Y-73536337D01*
X170714035Y-73322171D01*
X170708425Y-73314158D01*
X170578494Y-73128597D01*
X170411402Y-72961506D01*
X170411395Y-72961501D01*
X170217834Y-72825967D01*
X170217830Y-72825965D01*
X170146727Y-72792809D01*
X170003663Y-72726097D01*
X170003659Y-72726096D01*
X170003655Y-72726094D01*
X169775413Y-72664938D01*
X169775403Y-72664936D01*
X169540001Y-72644341D01*
X169539999Y-72644341D01*
X169304596Y-72664936D01*
X169304586Y-72664938D01*
X169076344Y-72726094D01*
X169076335Y-72726098D01*
X168862171Y-72825964D01*
X168862169Y-72825965D01*
X168668597Y-72961505D01*
X168501505Y-73128597D01*
X168371575Y-73314158D01*
X168316998Y-73357783D01*
X168247500Y-73364977D01*
X168185145Y-73333454D01*
X168168425Y-73314158D01*
X168038494Y-73128597D01*
X167871402Y-72961506D01*
X167871395Y-72961501D01*
X167677834Y-72825967D01*
X167677830Y-72825965D01*
X167606727Y-72792809D01*
X167463663Y-72726097D01*
X167463659Y-72726096D01*
X167463655Y-72726094D01*
X167235413Y-72664938D01*
X167235403Y-72664936D01*
X167000001Y-72644341D01*
X166999999Y-72644341D01*
X166764596Y-72664936D01*
X166764586Y-72664938D01*
X166536344Y-72726094D01*
X166536335Y-72726098D01*
X166322171Y-72825964D01*
X166322169Y-72825965D01*
X166128597Y-72961505D01*
X165961505Y-73128597D01*
X165831575Y-73314158D01*
X165776998Y-73357783D01*
X165707500Y-73364977D01*
X165645145Y-73333454D01*
X165628425Y-73314158D01*
X165498494Y-73128597D01*
X165331402Y-72961506D01*
X165331395Y-72961501D01*
X165137834Y-72825967D01*
X165137830Y-72825965D01*
X165066727Y-72792809D01*
X164923663Y-72726097D01*
X164923659Y-72726096D01*
X164923655Y-72726094D01*
X164695413Y-72664938D01*
X164695403Y-72664936D01*
X164460001Y-72644341D01*
X164459999Y-72644341D01*
X164224596Y-72664936D01*
X164224586Y-72664938D01*
X163996344Y-72726094D01*
X163996335Y-72726098D01*
X163782171Y-72825964D01*
X163782169Y-72825965D01*
X163588597Y-72961505D01*
X163421505Y-73128597D01*
X163291575Y-73314158D01*
X163236998Y-73357783D01*
X163167500Y-73364977D01*
X163105145Y-73333454D01*
X163088425Y-73314158D01*
X162958494Y-73128597D01*
X162791402Y-72961506D01*
X162791395Y-72961501D01*
X162597834Y-72825967D01*
X162597830Y-72825965D01*
X162526727Y-72792809D01*
X162383663Y-72726097D01*
X162383659Y-72726096D01*
X162383655Y-72726094D01*
X162155413Y-72664938D01*
X162155403Y-72664936D01*
X161920001Y-72644341D01*
X161919999Y-72644341D01*
X161684596Y-72664936D01*
X161684586Y-72664938D01*
X161456344Y-72726094D01*
X161456335Y-72726098D01*
X161242171Y-72825964D01*
X161242169Y-72825965D01*
X161048600Y-72961503D01*
X160926284Y-73083819D01*
X160864961Y-73117303D01*
X160795269Y-73112319D01*
X160739336Y-73070447D01*
X160722421Y-73039470D01*
X160673354Y-72907913D01*
X160673350Y-72907906D01*
X160587190Y-72792812D01*
X160587187Y-72792809D01*
X160472093Y-72706649D01*
X160472086Y-72706645D01*
X160337379Y-72656403D01*
X160337372Y-72656401D01*
X160277844Y-72650000D01*
X159630000Y-72650000D01*
X159630000Y-73566988D01*
X159572993Y-73534075D01*
X159445826Y-73500000D01*
X159314174Y-73500000D01*
X159187007Y-73534075D01*
X159130000Y-73566988D01*
X159130000Y-72650000D01*
X158482155Y-72650000D01*
X158422627Y-72656401D01*
X158422620Y-72656403D01*
X158287913Y-72706645D01*
X158287906Y-72706649D01*
X158172812Y-72792809D01*
X158172809Y-72792812D01*
X158086649Y-72907906D01*
X158086645Y-72907913D01*
X158036403Y-73042620D01*
X158036401Y-73042627D01*
X158030000Y-73102155D01*
X155107721Y-73102155D01*
X155087921Y-73080164D01*
X155087918Y-73080162D01*
X155087917Y-73080161D01*
X155087916Y-73080160D01*
X154943279Y-72975074D01*
X154779953Y-72902357D01*
X154779951Y-72902356D01*
X154748717Y-72895717D01*
X154687235Y-72862523D01*
X154653460Y-72801359D01*
X154650500Y-72774427D01*
X154650500Y-72196197D01*
X154670185Y-72129158D01*
X154682352Y-72113223D01*
X154691859Y-72102665D01*
X154781250Y-71947835D01*
X154836497Y-71777803D01*
X154855185Y-71600000D01*
X154836497Y-71422197D01*
X154796793Y-71300000D01*
X157444815Y-71300000D01*
X157463503Y-71477805D01*
X157463504Y-71477807D01*
X157518747Y-71647829D01*
X157518750Y-71647835D01*
X157608141Y-71802665D01*
X157649812Y-71848946D01*
X157727764Y-71935521D01*
X157727767Y-71935523D01*
X157727770Y-71935526D01*
X157872407Y-72040612D01*
X158035733Y-72113329D01*
X158210609Y-72150500D01*
X158210610Y-72150500D01*
X158389389Y-72150500D01*
X158389391Y-72150500D01*
X158564267Y-72113329D01*
X158681306Y-72061219D01*
X158731741Y-72050500D01*
X159868259Y-72050500D01*
X159918693Y-72061219D01*
X160035733Y-72113329D01*
X160210609Y-72150500D01*
X160210610Y-72150500D01*
X160389389Y-72150500D01*
X160389391Y-72150500D01*
X160564267Y-72113329D01*
X160727593Y-72040612D01*
X160872230Y-71935526D01*
X160991859Y-71802665D01*
X161081250Y-71647835D01*
X161136497Y-71477803D01*
X161155185Y-71300000D01*
X161136497Y-71122197D01*
X161085250Y-70964475D01*
X161081252Y-70952170D01*
X161081249Y-70952164D01*
X160991859Y-70797335D01*
X160945003Y-70745296D01*
X160872235Y-70664478D01*
X160872232Y-70664476D01*
X160872231Y-70664475D01*
X160872230Y-70664474D01*
X160727593Y-70559388D01*
X160564267Y-70486671D01*
X160564265Y-70486670D01*
X160436594Y-70459533D01*
X160389391Y-70449500D01*
X160210609Y-70449500D01*
X160179954Y-70456015D01*
X160035733Y-70486670D01*
X159918694Y-70538780D01*
X159868259Y-70549500D01*
X158731741Y-70549500D01*
X158681306Y-70538780D01*
X158578783Y-70493134D01*
X158564267Y-70486671D01*
X158564265Y-70486670D01*
X158436594Y-70459533D01*
X158389391Y-70449500D01*
X158210609Y-70449500D01*
X158179954Y-70456015D01*
X158035733Y-70486670D01*
X158035728Y-70486672D01*
X157872408Y-70559387D01*
X157727768Y-70664475D01*
X157608140Y-70797336D01*
X157518750Y-70952164D01*
X157518747Y-70952170D01*
X157463504Y-71122192D01*
X157463503Y-71122194D01*
X157444815Y-71300000D01*
X154796793Y-71300000D01*
X154781250Y-71252165D01*
X154691859Y-71097335D01*
X154631494Y-71030293D01*
X154572235Y-70964478D01*
X154572232Y-70964476D01*
X154572231Y-70964475D01*
X154572230Y-70964474D01*
X154427593Y-70859388D01*
X154264267Y-70786671D01*
X154264265Y-70786670D01*
X154136594Y-70759533D01*
X154089391Y-70749500D01*
X153910609Y-70749500D01*
X153879954Y-70756015D01*
X153735733Y-70786670D01*
X153735728Y-70786672D01*
X153572408Y-70859387D01*
X153427768Y-70964475D01*
X153308140Y-71097336D01*
X153218750Y-71252164D01*
X153218747Y-71252170D01*
X153163504Y-71422192D01*
X153163503Y-71422194D01*
X153144815Y-71600000D01*
X103929719Y-71600000D01*
X104030289Y-71541936D01*
X104222738Y-71394265D01*
X104394265Y-71222738D01*
X104541936Y-71030289D01*
X104663224Y-70820212D01*
X104756054Y-70596100D01*
X104818838Y-70361789D01*
X104850500Y-70121288D01*
X104850500Y-69878712D01*
X104850500Y-69878711D01*
X187149500Y-69878711D01*
X187149500Y-70121288D01*
X187181161Y-70361785D01*
X187243947Y-70596104D01*
X187272268Y-70664476D01*
X187336776Y-70820212D01*
X187458064Y-71030289D01*
X187458066Y-71030292D01*
X187458067Y-71030293D01*
X187605733Y-71222736D01*
X187605739Y-71222743D01*
X187777256Y-71394260D01*
X187777262Y-71394265D01*
X187969711Y-71541936D01*
X188179788Y-71663224D01*
X188403900Y-71756054D01*
X188638211Y-71818838D01*
X188818586Y-71842584D01*
X188878711Y-71850500D01*
X188878712Y-71850500D01*
X189121289Y-71850500D01*
X189169388Y-71844167D01*
X189361789Y-71818838D01*
X189596100Y-71756054D01*
X189820212Y-71663224D01*
X190030289Y-71541936D01*
X190222738Y-71394265D01*
X190394265Y-71222738D01*
X190541936Y-71030289D01*
X190663224Y-70820212D01*
X190756054Y-70596100D01*
X190818838Y-70361789D01*
X190850500Y-70121288D01*
X190850500Y-69878712D01*
X190818838Y-69638211D01*
X190756054Y-69403900D01*
X190663224Y-69179788D01*
X190541936Y-68969711D01*
X190394265Y-68777262D01*
X190394260Y-68777256D01*
X190222743Y-68605739D01*
X190222736Y-68605733D01*
X190030293Y-68458067D01*
X190030292Y-68458066D01*
X190030289Y-68458064D01*
X189820212Y-68336776D01*
X189820205Y-68336773D01*
X189596104Y-68243947D01*
X189361785Y-68181161D01*
X189121289Y-68149500D01*
X189121288Y-68149500D01*
X188878712Y-68149500D01*
X188878711Y-68149500D01*
X188638214Y-68181161D01*
X188403895Y-68243947D01*
X188179794Y-68336773D01*
X188179785Y-68336777D01*
X187969706Y-68458067D01*
X187777263Y-68605733D01*
X187777256Y-68605739D01*
X187605739Y-68777256D01*
X187605733Y-68777263D01*
X187458067Y-68969706D01*
X187336777Y-69179785D01*
X187336773Y-69179794D01*
X187243947Y-69403895D01*
X187181161Y-69638214D01*
X187149500Y-69878711D01*
X104850500Y-69878711D01*
X104818838Y-69638211D01*
X104756054Y-69403900D01*
X104663224Y-69179788D01*
X104541936Y-68969711D01*
X104394265Y-68777262D01*
X104394260Y-68777256D01*
X104222743Y-68605739D01*
X104222736Y-68605733D01*
X104030293Y-68458067D01*
X104030292Y-68458066D01*
X104030289Y-68458064D01*
X103820212Y-68336776D01*
X103820205Y-68336773D01*
X103596104Y-68243947D01*
X103361785Y-68181161D01*
X103121289Y-68149500D01*
X103121288Y-68149500D01*
X102878712Y-68149500D01*
X102878711Y-68149500D01*
X102638214Y-68181161D01*
X102403895Y-68243947D01*
X102179794Y-68336773D01*
X102179785Y-68336777D01*
X101969706Y-68458067D01*
X101777263Y-68605733D01*
X101777256Y-68605739D01*
X101605739Y-68777256D01*
X101605733Y-68777263D01*
X101458067Y-68969706D01*
X101336777Y-69179785D01*
X101336773Y-69179794D01*
X101243947Y-69403895D01*
X101181161Y-69638214D01*
X101149500Y-69878711D01*
X98001085Y-69878711D01*
X98232801Y-69402814D01*
X98236249Y-69396242D01*
X98526361Y-68881860D01*
X98530217Y-68875483D01*
X98850862Y-68379549D01*
X98855068Y-68373456D01*
X99205067Y-67897794D01*
X99209659Y-67891932D01*
X99587732Y-67438279D01*
X99592665Y-67432710D01*
X99997444Y-67002706D01*
X100002706Y-66997444D01*
X100432710Y-66592665D01*
X100438279Y-66587732D01*
X100891932Y-66209659D01*
X100897794Y-66205067D01*
X101373456Y-65855068D01*
X101379549Y-65850862D01*
X101875483Y-65530217D01*
X101881860Y-65526361D01*
X102396242Y-65236249D01*
X102402814Y-65232801D01*
X102933771Y-64974276D01*
X102940554Y-64971223D01*
X103486151Y-64745230D01*
X103493113Y-64742590D01*
X104051338Y-64549959D01*
X104058446Y-64547743D01*
X104627312Y-64389159D01*
X104634550Y-64387376D01*
X105211911Y-64263439D01*
X105219260Y-64262092D01*
X105803046Y-64173242D01*
X105810471Y-64172340D01*
X106398580Y-64118897D01*
X106406008Y-64118448D01*
X106998114Y-64100557D01*
X107001859Y-64100500D01*
X107026929Y-64100500D01*
X107480009Y-64100500D01*
X184973071Y-64100500D01*
X184998141Y-64100500D01*
X185001886Y-64100557D01*
G37*
%TD.AperFunction*%
%TD*%
M02*
