%TF.GenerationSoftware,KiCad,Pcbnew,8.0.2*%
%TF.CreationDate,2024-06-16T11:32:46+08:00*%
%TF.ProjectId,receiver,72656365-6976-4657-922e-6b696361645f,rev?*%
%TF.SameCoordinates,Original*%
%TF.FileFunction,Copper,L1,Top*%
%TF.FilePolarity,Positive*%
%FSLAX46Y46*%
G04 Gerber Fmt 4.6, Leading zero omitted, Abs format (unit mm)*
G04 Created by KiCad (PCBNEW 8.0.2) date 2024-06-16 11:32:46*
%MOMM*%
%LPD*%
G01*
G04 APERTURE LIST*
G04 Aperture macros list*
%AMRoundRect*
0 Rectangle with rounded corners*
0 $1 Rounding radius*
0 $2 $3 $4 $5 $6 $7 $8 $9 X,Y pos of 4 corners*
0 Add a 4 corners polygon primitive as box body*
4,1,4,$2,$3,$4,$5,$6,$7,$8,$9,$2,$3,0*
0 Add four circle primitives for the rounded corners*
1,1,$1+$1,$2,$3*
1,1,$1+$1,$4,$5*
1,1,$1+$1,$6,$7*
1,1,$1+$1,$8,$9*
0 Add four rect primitives between the rounded corners*
20,1,$1+$1,$2,$3,$4,$5,0*
20,1,$1+$1,$4,$5,$6,$7,0*
20,1,$1+$1,$6,$7,$8,$9,0*
20,1,$1+$1,$8,$9,$2,$3,0*%
G04 Aperture macros list end*
%TA.AperFunction,ComponentPad*%
%ADD10R,1.700000X1.700000*%
%TD*%
%TA.AperFunction,ComponentPad*%
%ADD11O,1.700000X1.700000*%
%TD*%
%TA.AperFunction,SMDPad,CuDef*%
%ADD12RoundRect,0.250000X-1.350000X-1.975000X1.350000X-1.975000X1.350000X1.975000X-1.350000X1.975000X0*%
%TD*%
%TA.AperFunction,ComponentPad*%
%ADD13C,1.600000*%
%TD*%
%TA.AperFunction,ComponentPad*%
%ADD14O,1.600000X1.600000*%
%TD*%
%TA.AperFunction,ComponentPad*%
%ADD15C,1.524000*%
%TD*%
%TA.AperFunction,SMDPad,CuDef*%
%ADD16RoundRect,0.250000X1.975000X-1.350000X1.975000X1.350000X-1.975000X1.350000X-1.975000X-1.350000X0*%
%TD*%
%TA.AperFunction,SMDPad,CuDef*%
%ADD17RoundRect,1.250000X-1.750000X-1.250000X1.750000X-1.250000X1.750000X1.250000X-1.750000X1.250000X0*%
%TD*%
%TA.AperFunction,ViaPad*%
%ADD18C,0.700000*%
%TD*%
%TA.AperFunction,Conductor*%
%ADD19C,0.500000*%
%TD*%
%TA.AperFunction,Conductor*%
%ADD20C,1.000000*%
%TD*%
%TA.AperFunction,Conductor*%
%ADD21C,0.300000*%
%TD*%
G04 APERTURE END LIST*
D10*
%TO.P,J2,1,Pin_1*%
%TO.N,+5V*%
X185420000Y-118150000D03*
D11*
%TO.P,J2,2,Pin_2*%
%TO.N,CHW_2*%
X187960000Y-118150000D03*
%TO.P,J2,3,Pin_3*%
%TO.N,GND*%
X190500000Y-118150000D03*
%TD*%
D12*
%TO.P,SW1,1,A*%
%TO.N,Net-(BT1-+)*%
X110500000Y-102900000D03*
%TO.P,SW1,2,B*%
%TO.N,+12V*%
X115700000Y-102900000D03*
%TD*%
D13*
%TO.P,R2,1*%
%TO.N,+12V*%
X122620000Y-102700000D03*
D14*
%TO.P,R2,2*%
%TO.N,ADC_BA*%
X132780000Y-102700000D03*
%TD*%
D10*
%TO.P,U5,1,VCCB*%
%TO.N,+5V*%
X176370000Y-122200000D03*
D11*
%TO.P,U5,2,GND*%
%TO.N,GND*%
X173830000Y-122200000D03*
%TO.P,U5,3,B0*%
%TO.N,CHW_1*%
X171290000Y-122200000D03*
%TO.P,U5,4,B1*%
%TO.N,CHW_2*%
X168750000Y-122200000D03*
%TO.P,U5,5,B2*%
%TO.N,CHW_3*%
X166210000Y-122200000D03*
%TO.P,U5,6,B3*%
%TO.N,CHW_4*%
X163670000Y-122200000D03*
%TO.P,U5,7,A3*%
%TO.N,CH_4*%
X163650000Y-109200000D03*
%TO.P,U5,8,A2*%
%TO.N,CH_3*%
X166190000Y-109200000D03*
%TO.P,U5,9,A1*%
%TO.N,CH_2*%
X168730000Y-109200000D03*
%TO.P,U5,10,A0*%
%TO.N,CH_1*%
X171270000Y-109200000D03*
%TO.P,U5,11,GND*%
%TO.N,GND*%
X173810000Y-109200000D03*
D10*
%TO.P,U5,12,VCCA*%
%TO.N,+3V3*%
X176350000Y-109200000D03*
%TD*%
D15*
%TO.P,BZ1,1,+*%
%TO.N,Net-(BZ1-+)*%
X176750000Y-77500000D03*
%TO.P,BZ1,2,-*%
%TO.N,Buzzer*%
X170250000Y-77500000D03*
%TD*%
D10*
%TO.P,J8,1,Pin_1*%
%TO.N,+5V*%
X185420000Y-89650000D03*
D11*
%TO.P,J8,2,Pin_2*%
%TO.N,CHW_8*%
X187960000Y-89650000D03*
%TO.P,J8,3,Pin_3*%
%TO.N,GND*%
X190500000Y-89650000D03*
%TD*%
D13*
%TO.P,R1,1*%
%TO.N,GND*%
X122620000Y-97800000D03*
D14*
%TO.P,R1,2*%
%TO.N,ADC_BA*%
X132780000Y-97800000D03*
%TD*%
D10*
%TO.P,J6,1,Pin_1*%
%TO.N,+5V*%
X185320000Y-99650000D03*
D11*
%TO.P,J6,2,Pin_2*%
%TO.N,CHW_6*%
X187860000Y-99650000D03*
%TO.P,J6,3,Pin_3*%
%TO.N,GND*%
X190400000Y-99650000D03*
%TD*%
D15*
%TO.P,U4,3V3,3.3V*%
%TO.N,+3V3*%
X140010000Y-122700000D03*
X155250000Y-79520000D03*
%TO.P,U4,5V,5V*%
%TO.N,+5V*%
X140010000Y-117620000D03*
%TO.P,U4,G,GND*%
%TO.N,GND*%
X140010000Y-120160000D03*
X155250000Y-74440000D03*
X155250000Y-76980000D03*
%TO.P,U4,NRST,RESET*%
%TO.N,unconnected-(U4-RESET-PadNRST)*%
X155250000Y-82060000D03*
%TO.P,U4,PA0,PA0*%
%TO.N,CH_1*%
X155250000Y-112540000D03*
%TO.P,U4,PA1,PA1*%
%TO.N,CH_2*%
X155250000Y-110000000D03*
%TO.P,U4,PA2,PA2*%
%TO.N,CH_3*%
X155250000Y-107460000D03*
%TO.P,U4,PA3,PA3*%
%TO.N,CH_4*%
X155250000Y-104920000D03*
%TO.P,U4,PA4,PA4*%
%TO.N,unconnected-(U4-PadPA4)*%
X155250000Y-102380000D03*
%TO.P,U4,PA5,PA5*%
%TO.N,ADC_BA*%
X155250000Y-99840000D03*
%TO.P,U4,PA6,PA6*%
%TO.N,CH_5*%
X155250000Y-97300000D03*
%TO.P,U4,PA7,PA7*%
%TO.N,CH_6*%
X155250000Y-94760000D03*
%TO.P,U4,PA8,PA8*%
%TO.N,unconnected-(U4-PadPA8)*%
X140010000Y-84600000D03*
%TO.P,U4,PA9,PA9*%
%TO.N,RF_IRQ*%
X140010000Y-87140000D03*
%TO.P,U4,PA10,PA10*%
%TO.N,RF_CE*%
X140010000Y-89680000D03*
%TO.P,U4,PA11,PA11*%
%TO.N,unconnected-(U4-PadPA11)*%
X140010000Y-92220000D03*
%TO.P,U4,PA12,PA12*%
%TO.N,unconnected-(U4-PadPA12)*%
X140010000Y-94760000D03*
%TO.P,U4,PA15,PA15*%
%TO.N,NSS*%
X140010000Y-97300000D03*
%TO.P,U4,PB0,PB0*%
%TO.N,CH_7*%
X155250000Y-92220000D03*
%TO.P,U4,PB1,PB1*%
%TO.N,CH_8*%
X155250000Y-89680000D03*
%TO.P,U4,PB3,PB3*%
%TO.N,SCK*%
X140010000Y-99840000D03*
%TO.P,U4,PB4,PB4*%
%TO.N,MISO*%
X140010000Y-102380000D03*
%TO.P,U4,PB5,PB5*%
%TO.N,MOSI*%
X140010000Y-104920000D03*
%TO.P,U4,PB6,PB6*%
%TO.N,unconnected-(U4-PadPB6)*%
X140010000Y-107460000D03*
%TO.P,U4,PB7,PB7*%
%TO.N,unconnected-(U4-PadPB7)*%
X140010000Y-110000000D03*
%TO.P,U4,PB8,PB8*%
%TO.N,unconnected-(U4-PadPB8)*%
X140010000Y-112540000D03*
%TO.P,U4,PB9,PB9*%
%TO.N,unconnected-(U4-PadPB9)*%
X140010000Y-115080000D03*
%TO.P,U4,PB10,PB10*%
%TO.N,unconnected-(U4-PadPB10)*%
X155250000Y-87140000D03*
%TO.P,U4,PB11,PB11*%
%TO.N,unconnected-(U4-PadPB11)*%
X155250000Y-84600000D03*
%TO.P,U4,PB12,PB12*%
%TO.N,Buzzer*%
X140010000Y-74440000D03*
%TO.P,U4,PB13,PB13*%
%TO.N,unconnected-(U4-PadPB13)*%
X140010000Y-76980000D03*
%TO.P,U4,PB14,PB14*%
%TO.N,unconnected-(U4-PadPB14)*%
X140010000Y-79520000D03*
%TO.P,U4,PB15,PB15*%
%TO.N,unconnected-(U4-PadPB15)*%
X140010000Y-82060000D03*
%TO.P,U4,PC13,PC13*%
%TO.N,unconnected-(U4-PadPC13)*%
X155250000Y-120160000D03*
%TO.P,U4,PC14,PC14*%
%TO.N,unconnected-(U4-PadPC14)*%
X155250000Y-117620000D03*
%TO.P,U4,PC15,PC15*%
%TO.N,unconnected-(U4-PadPC15)*%
X155250000Y-115080000D03*
%TO.P,U4,VBAT,Vbat*%
%TO.N,+3V3*%
X155250000Y-122700000D03*
%TD*%
D10*
%TO.P,U7,1,VCCB*%
%TO.N,+5V*%
X176620000Y-102500000D03*
D11*
%TO.P,U7,2,GND*%
%TO.N,GND*%
X174080000Y-102500000D03*
%TO.P,U7,3,B0*%
%TO.N,CHW_5*%
X171540000Y-102500000D03*
%TO.P,U7,4,B1*%
%TO.N,CHW_6*%
X169000000Y-102500000D03*
%TO.P,U7,5,B2*%
%TO.N,CHW_7*%
X166460000Y-102500000D03*
%TO.P,U7,6,B3*%
%TO.N,CHW_8*%
X163920000Y-102500000D03*
%TO.P,U7,7,A3*%
%TO.N,CH_8*%
X163900000Y-89500000D03*
%TO.P,U7,8,A2*%
%TO.N,CH_7*%
X166440000Y-89500000D03*
%TO.P,U7,9,A1*%
%TO.N,CH_6*%
X168980000Y-89500000D03*
%TO.P,U7,10,A0*%
%TO.N,CH_5*%
X171520000Y-89500000D03*
%TO.P,U7,11,GND*%
%TO.N,GND*%
X174060000Y-89500000D03*
D10*
%TO.P,U7,12,VCCA*%
%TO.N,+3V3*%
X176600000Y-89500000D03*
%TD*%
%TO.P,J5,1,Pin_1*%
%TO.N,+5V*%
X185420000Y-104300000D03*
D11*
%TO.P,J5,2,Pin_2*%
%TO.N,CHW_5*%
X187960000Y-104300000D03*
%TO.P,J5,3,Pin_3*%
%TO.N,GND*%
X190500000Y-104300000D03*
%TD*%
D16*
%TO.P,BT1,1,+*%
%TO.N,Net-(BT1-+)*%
X104100000Y-102900000D03*
%TO.P,BT1,2,-*%
%TO.N,GND*%
X104100000Y-97700000D03*
%TD*%
D10*
%TO.P,J1,1,Pin_1*%
%TO.N,+5V*%
X185420000Y-122750000D03*
D11*
%TO.P,J1,2,Pin_2*%
%TO.N,CHW_1*%
X187960000Y-122750000D03*
%TO.P,J1,3,Pin_3*%
%TO.N,GND*%
X190500000Y-122750000D03*
%TD*%
D10*
%TO.P,J3,1,Pin_1*%
%TO.N,+5V*%
X185320000Y-113750000D03*
D11*
%TO.P,J3,2,Pin_2*%
%TO.N,CHW_3*%
X187860000Y-113750000D03*
%TO.P,J3,3,Pin_3*%
%TO.N,GND*%
X190400000Y-113750000D03*
%TD*%
D17*
%TO.P,U1,1,Vout*%
%TO.N,+5V*%
X133100000Y-109300000D03*
%TO.P,U1,2,GND*%
%TO.N,GND*%
X133100000Y-122300000D03*
%TO.P,U1,3,GND*%
X103100000Y-122300000D03*
%TO.P,U1,4,Vin*%
%TO.N,+12V*%
X103100000Y-109300000D03*
%TD*%
D10*
%TO.P,J4,1,Pin_1*%
%TO.N,+5V*%
X185320000Y-109150000D03*
D11*
%TO.P,J4,2,Pin_2*%
%TO.N,CHW_4*%
X187860000Y-109150000D03*
%TO.P,J4,3,Pin_3*%
%TO.N,GND*%
X190400000Y-109150000D03*
%TD*%
D10*
%TO.P,U6,1,GND*%
%TO.N,GND*%
X131500000Y-84830000D03*
D11*
%TO.P,U6,2,VCC*%
%TO.N,+3V3*%
X128960000Y-84830000D03*
%TO.P,U6,3,CE*%
%TO.N,RF_CE*%
X131500000Y-82290000D03*
%TO.P,U6,4,CSN*%
%TO.N,NSS*%
X128960000Y-82290000D03*
%TO.P,U6,5,SCK*%
%TO.N,SCK*%
X131500000Y-79750000D03*
%TO.P,U6,6,MOSI*%
%TO.N,MOSI*%
X128960000Y-79750000D03*
%TO.P,U6,7,MISO*%
%TO.N,MISO*%
X131500000Y-77210000D03*
%TO.P,U6,8,IRQ*%
%TO.N,RF_IRQ*%
X128960000Y-77210000D03*
%TD*%
D10*
%TO.P,J7,1,Pin_1*%
%TO.N,+5V*%
X185320000Y-94850000D03*
D11*
%TO.P,J7,2,Pin_2*%
%TO.N,CHW_7*%
X187860000Y-94850000D03*
%TO.P,J7,3,Pin_3*%
%TO.N,GND*%
X190400000Y-94850000D03*
%TD*%
D13*
%TO.P,R3,1*%
%TO.N,+3V3*%
X184000000Y-83580000D03*
D14*
%TO.P,R3,2*%
%TO.N,Net-(BZ1-+)*%
X184000000Y-73420000D03*
%TD*%
D18*
%TO.N,GND*%
X107500000Y-95750000D03*
X106750000Y-125250000D03*
X101100000Y-118400000D03*
X135250000Y-118000000D03*
X107250000Y-122250000D03*
X103250000Y-126000000D03*
X120100000Y-96100000D03*
X101250000Y-95000000D03*
X132750000Y-118000000D03*
X137000000Y-124500000D03*
X107250000Y-119000000D03*
%TO.N,NSS*%
X134250000Y-94250000D03*
X137750000Y-95750000D03*
%TO.N,+3V3*%
X180200000Y-105500000D03*
X180500000Y-91500000D03*
X136100000Y-90600000D03*
X132700000Y-90600000D03*
X180600000Y-98900000D03*
%TO.N,SCK*%
X134500000Y-91500000D03*
X136000000Y-91500000D03*
%TD*%
D19*
%TO.N,+5V*%
X140010000Y-117620000D02*
X133100000Y-110710000D01*
D20*
X176370000Y-122200000D02*
X184870000Y-122200000D01*
X127300000Y-115100000D02*
X127300000Y-124200000D01*
X172000000Y-126600000D02*
X172000000Y-126570000D01*
X172000000Y-126570000D02*
X176370000Y-122200000D01*
X184870000Y-122200000D02*
X185420000Y-122750000D01*
D19*
X133100000Y-110710000D02*
X133100000Y-109300000D01*
D20*
X133100000Y-109300000D02*
X127300000Y-115100000D01*
X129700000Y-126600000D02*
X172000000Y-126600000D01*
X127300000Y-124200000D02*
X129700000Y-126600000D01*
%TO.N,GND*%
X103100000Y-120400000D02*
X101100000Y-118400000D01*
X103950000Y-97700000D02*
X101250000Y-95000000D01*
D19*
X137870000Y-122300000D02*
X140010000Y-120160000D01*
X133100000Y-122300000D02*
X137870000Y-122300000D01*
D20*
X122620000Y-97800000D02*
X104200000Y-97800000D01*
D19*
X133100000Y-122300000D02*
X133100000Y-118350000D01*
X133100000Y-122300000D02*
X133100000Y-120150000D01*
X133100000Y-122300000D02*
X134800000Y-122300000D01*
D20*
X105000000Y-96800000D02*
X105300000Y-96800000D01*
X103950000Y-122300000D02*
X107250000Y-119000000D01*
X104100000Y-97700000D02*
X104100000Y-97500000D01*
X103100000Y-122300000D02*
X107200000Y-122300000D01*
X103100000Y-122300000D02*
X103100000Y-120400000D01*
X103100000Y-122300000D02*
X103800000Y-122300000D01*
X122620000Y-97800000D02*
X121800000Y-97800000D01*
X103100000Y-122300000D02*
X103950000Y-122300000D01*
D19*
X133100000Y-120150000D02*
X135250000Y-118000000D01*
D20*
X122620000Y-97800000D02*
X122620000Y-97620000D01*
X104200000Y-97800000D02*
X104100000Y-97700000D01*
X105550000Y-97700000D02*
X107500000Y-95750000D01*
D19*
X134800000Y-122300000D02*
X137000000Y-124500000D01*
D20*
X104100000Y-97700000D02*
X103950000Y-97700000D01*
D19*
X133100000Y-118350000D02*
X132750000Y-118000000D01*
D20*
X103100000Y-125850000D02*
X103250000Y-126000000D01*
X103800000Y-122300000D02*
X106750000Y-125250000D01*
X104100000Y-97700000D02*
X105550000Y-97700000D01*
X103100000Y-122300000D02*
X103100000Y-125850000D01*
X107200000Y-122300000D02*
X107250000Y-122250000D01*
X121800000Y-97800000D02*
X120100000Y-96100000D01*
%TO.N,+12V*%
X115700000Y-102900000D02*
X115700000Y-106700000D01*
X115700000Y-102900000D02*
X122420000Y-102900000D01*
X115700000Y-106700000D02*
X113100000Y-109300000D01*
X113100000Y-109300000D02*
X103100000Y-109300000D01*
X122420000Y-102900000D02*
X122620000Y-102700000D01*
D21*
%TO.N,RF_IRQ*%
X134000000Y-75000000D02*
X136500000Y-77500000D01*
X136500000Y-77500000D02*
X136500000Y-83630000D01*
X128960000Y-77210000D02*
X131170000Y-75000000D01*
X131170000Y-75000000D02*
X134000000Y-75000000D01*
X136500000Y-83630000D02*
X140010000Y-87140000D01*
%TO.N,NSS*%
X127500000Y-84000000D02*
X127500000Y-87500000D01*
X127500000Y-87500000D02*
X134250000Y-94250000D01*
X138460000Y-95750000D02*
X140010000Y-97300000D01*
X137750000Y-95750000D02*
X138460000Y-95750000D01*
X127500000Y-83750000D02*
X127500000Y-84000000D01*
X128960000Y-82290000D02*
X127500000Y-83750000D01*
D19*
%TO.N,+3V3*%
X139615973Y-91000000D02*
X143600000Y-91000000D01*
X143900000Y-90870000D02*
X143900000Y-90900000D01*
X157550000Y-122700000D02*
X166250000Y-114000000D01*
X180600000Y-105100000D02*
X180200000Y-105500000D01*
X178500000Y-89500000D02*
X180500000Y-91500000D01*
X139215973Y-90600000D02*
X139615973Y-91000000D01*
X143700000Y-91100000D02*
X143900000Y-90900000D01*
X128960000Y-86860000D02*
X132700000Y-90600000D01*
X173350000Y-86250000D02*
X176600000Y-89500000D01*
X182520000Y-83580000D02*
X176600000Y-89500000D01*
X143600000Y-91000000D02*
X143700000Y-91100000D01*
X170000000Y-114000000D02*
X172750000Y-111250000D01*
X172750000Y-111250000D02*
X174300000Y-111250000D01*
X184000000Y-83580000D02*
X182520000Y-83580000D01*
X143900000Y-90870000D02*
X155250000Y-79520000D01*
X176600000Y-89500000D02*
X178500000Y-89500000D01*
X163520000Y-79520000D02*
X170250000Y-86250000D01*
X155250000Y-122700000D02*
X157550000Y-122700000D01*
X166250000Y-114000000D02*
X170000000Y-114000000D01*
X155250000Y-79520000D02*
X163520000Y-79520000D01*
X136100000Y-90600000D02*
X139215973Y-90600000D01*
X170250000Y-86250000D02*
X173350000Y-86250000D01*
X174300000Y-111250000D02*
X176350000Y-109200000D01*
X180600000Y-98900000D02*
X180600000Y-105100000D01*
X128960000Y-84830000D02*
X128960000Y-86860000D01*
X140010000Y-122700000D02*
X155250000Y-122700000D01*
D21*
%TO.N,ADC_BA*%
X132780000Y-97800000D02*
X132780000Y-102700000D01*
%TO.N,SCK*%
X136500000Y-96330000D02*
X140010000Y-99840000D01*
X133500000Y-80000000D02*
X134500000Y-81000000D01*
X136000000Y-91500000D02*
X136500000Y-92000000D01*
X134500000Y-81000000D02*
X134500000Y-91500000D01*
X136500000Y-92000000D02*
X136500000Y-96330000D01*
X133250000Y-79750000D02*
X133500000Y-80000000D01*
X131500000Y-79750000D02*
X133250000Y-79750000D01*
%TO.N,CH_6*%
X155250000Y-94760000D02*
X163720000Y-94760000D01*
X163720000Y-94760000D02*
X168980000Y-89500000D01*
%TO.N,CH_8*%
X155250000Y-89680000D02*
X163720000Y-89680000D01*
X163720000Y-89680000D02*
X163900000Y-89500000D01*
%TO.N,CH_2*%
X166180000Y-111750000D02*
X168730000Y-109200000D01*
X157000000Y-111750000D02*
X166180000Y-111750000D01*
X155250000Y-110000000D02*
X157000000Y-111750000D01*
%TO.N,MISO*%
X135250000Y-99250000D02*
X138380000Y-102380000D01*
X135250000Y-80960000D02*
X135250000Y-99250000D01*
X138380000Y-102380000D02*
X140010000Y-102380000D01*
X131500000Y-77210000D02*
X135250000Y-80960000D01*
%TO.N,MOSI*%
X131080000Y-104920000D02*
X140010000Y-104920000D01*
X130500000Y-105000000D02*
X131000000Y-105000000D01*
X126750000Y-81960000D02*
X126750000Y-101250000D01*
X126750000Y-101250000D02*
X130500000Y-105000000D01*
X128960000Y-79750000D02*
X126750000Y-81960000D01*
X131000000Y-105000000D02*
X131080000Y-104920000D01*
%TO.N,CH_3*%
X164140000Y-111250000D02*
X166190000Y-109200000D01*
X162000000Y-111250000D02*
X164140000Y-111250000D01*
X158210000Y-107460000D02*
X162000000Y-111250000D01*
X155250000Y-107460000D02*
X158210000Y-107460000D01*
%TO.N,Buzzer*%
X140010000Y-74440000D02*
X141700000Y-72750000D01*
X164000000Y-77500000D02*
X170250000Y-77500000D01*
X159250000Y-72750000D02*
X164000000Y-77500000D01*
X141700000Y-72750000D02*
X159250000Y-72750000D01*
%TO.N,CH_4*%
X155250000Y-104920000D02*
X159370000Y-104920000D01*
X159370000Y-104920000D02*
X163650000Y-109200000D01*
%TO.N,CH_5*%
X163720000Y-97300000D02*
X171520000Y-89500000D01*
X155250000Y-97300000D02*
X163720000Y-97300000D01*
%TO.N,CH_1*%
X167930000Y-112540000D02*
X171270000Y-109200000D01*
X155250000Y-112540000D02*
X167930000Y-112540000D01*
%TO.N,CH_7*%
X155250000Y-92220000D02*
X163720000Y-92220000D01*
X163720000Y-92220000D02*
X166440000Y-89500000D01*
%TO.N,CHW_3*%
X185750000Y-116000000D02*
X185750000Y-115860000D01*
X166210000Y-122200000D02*
X172410000Y-116000000D01*
X172410000Y-116000000D02*
X185750000Y-116000000D01*
X185750000Y-115860000D02*
X187860000Y-113750000D01*
%TO.N,CHW_2*%
X168750000Y-122200000D02*
X170950000Y-120000000D01*
X170950000Y-120000000D02*
X186110000Y-120000000D01*
X186110000Y-120000000D02*
X187960000Y-118150000D01*
%TO.N,CHW_4*%
X187860000Y-110390000D02*
X187860000Y-109150000D01*
X186250000Y-112000000D02*
X187860000Y-110390000D01*
X163670000Y-122200000D02*
X173870000Y-112000000D01*
X173870000Y-112000000D02*
X186250000Y-112000000D01*
%TO.N,CHW_1*%
X172490000Y-121000000D02*
X186210000Y-121000000D01*
X186210000Y-121000000D02*
X187960000Y-122750000D01*
X171290000Y-122200000D02*
X172490000Y-121000000D01*
%TO.N,CHW_6*%
X186250000Y-98000000D02*
X186250000Y-98040000D01*
X173500000Y-98000000D02*
X186250000Y-98000000D01*
X169000000Y-102500000D02*
X173500000Y-98000000D01*
X186250000Y-98040000D02*
X187860000Y-99650000D01*
%TO.N,CHW_8*%
X187000000Y-91750000D02*
X187000000Y-90610000D01*
X187000000Y-90610000D02*
X187960000Y-89650000D01*
X186500000Y-92250000D02*
X187000000Y-91750000D01*
X163920000Y-102500000D02*
X174170000Y-92250000D01*
X174170000Y-92250000D02*
X186500000Y-92250000D01*
%TO.N,CHW_7*%
X185460000Y-97250000D02*
X187860000Y-94850000D01*
X171710000Y-97250000D02*
X185460000Y-97250000D01*
X166460000Y-102500000D02*
X171710000Y-97250000D01*
%TO.N,CHW_5*%
X175540000Y-106500000D02*
X185760000Y-106500000D01*
X171540000Y-102500000D02*
X175540000Y-106500000D01*
X185760000Y-106500000D02*
X187960000Y-104300000D01*
D20*
%TO.N,Net-(BT1-+)*%
X104100000Y-102900000D02*
X110500000Y-102900000D01*
D21*
%TO.N,Net-(BZ1-+)*%
X176750000Y-77500000D02*
X179920000Y-77500000D01*
X179920000Y-77500000D02*
X184000000Y-73420000D01*
%TD*%
M02*
