%TF.GenerationSoftware,KiCad,Pcbnew,8.0.2*%
%TF.CreationDate,2024-06-16T11:32:46+08:00*%
%TF.ProjectId,receiver,72656365-6976-4657-922e-6b696361645f,rev?*%
%TF.SameCoordinates,Original*%
%TF.FileFunction,Legend,Top*%
%TF.FilePolarity,Positive*%
%FSLAX46Y46*%
G04 Gerber Fmt 4.6, Leading zero omitted, Abs format (unit mm)*
G04 Created by KiCad (PCBNEW 8.0.2) date 2024-06-16 11:32:46*
%MOMM*%
%LPD*%
G01*
G04 APERTURE LIST*
%ADD10C,0.100000*%
%ADD11C,0.150000*%
%ADD12C,0.120000*%
G04 APERTURE END LIST*
D10*
X176580074Y-124972419D02*
X176103884Y-124972419D01*
X176103884Y-124972419D02*
X176056265Y-125448609D01*
X176056265Y-125448609D02*
X176103884Y-125400990D01*
X176103884Y-125400990D02*
X176199122Y-125353371D01*
X176199122Y-125353371D02*
X176437217Y-125353371D01*
X176437217Y-125353371D02*
X176532455Y-125400990D01*
X176532455Y-125400990D02*
X176580074Y-125448609D01*
X176580074Y-125448609D02*
X176627693Y-125543847D01*
X176627693Y-125543847D02*
X176627693Y-125781942D01*
X176627693Y-125781942D02*
X176580074Y-125877180D01*
X176580074Y-125877180D02*
X176532455Y-125924800D01*
X176532455Y-125924800D02*
X176437217Y-125972419D01*
X176437217Y-125972419D02*
X176199122Y-125972419D01*
X176199122Y-125972419D02*
X176103884Y-125924800D01*
X176103884Y-125924800D02*
X176056265Y-125877180D01*
X176913408Y-124972419D02*
X177246741Y-125972419D01*
X177246741Y-125972419D02*
X177580074Y-124972419D01*
X103577693Y-93920038D02*
X103482455Y-93872419D01*
X103482455Y-93872419D02*
X103339598Y-93872419D01*
X103339598Y-93872419D02*
X103196741Y-93920038D01*
X103196741Y-93920038D02*
X103101503Y-94015276D01*
X103101503Y-94015276D02*
X103053884Y-94110514D01*
X103053884Y-94110514D02*
X103006265Y-94300990D01*
X103006265Y-94300990D02*
X103006265Y-94443847D01*
X103006265Y-94443847D02*
X103053884Y-94634323D01*
X103053884Y-94634323D02*
X103101503Y-94729561D01*
X103101503Y-94729561D02*
X103196741Y-94824800D01*
X103196741Y-94824800D02*
X103339598Y-94872419D01*
X103339598Y-94872419D02*
X103434836Y-94872419D01*
X103434836Y-94872419D02*
X103577693Y-94824800D01*
X103577693Y-94824800D02*
X103625312Y-94777180D01*
X103625312Y-94777180D02*
X103625312Y-94443847D01*
X103625312Y-94443847D02*
X103434836Y-94443847D01*
X104053884Y-94872419D02*
X104053884Y-93872419D01*
X104053884Y-93872419D02*
X104625312Y-94872419D01*
X104625312Y-94872419D02*
X104625312Y-93872419D01*
X105101503Y-94872419D02*
X105101503Y-93872419D01*
X105101503Y-93872419D02*
X105339598Y-93872419D01*
X105339598Y-93872419D02*
X105482455Y-93920038D01*
X105482455Y-93920038D02*
X105577693Y-94015276D01*
X105577693Y-94015276D02*
X105625312Y-94110514D01*
X105625312Y-94110514D02*
X105672931Y-94300990D01*
X105672931Y-94300990D02*
X105672931Y-94443847D01*
X105672931Y-94443847D02*
X105625312Y-94634323D01*
X105625312Y-94634323D02*
X105577693Y-94729561D01*
X105577693Y-94729561D02*
X105482455Y-94824800D01*
X105482455Y-94824800D02*
X105339598Y-94872419D01*
X105339598Y-94872419D02*
X105101503Y-94872419D01*
X175308646Y-110872419D02*
X175927693Y-110872419D01*
X175927693Y-110872419D02*
X175594360Y-111253371D01*
X175594360Y-111253371D02*
X175737217Y-111253371D01*
X175737217Y-111253371D02*
X175832455Y-111300990D01*
X175832455Y-111300990D02*
X175880074Y-111348609D01*
X175880074Y-111348609D02*
X175927693Y-111443847D01*
X175927693Y-111443847D02*
X175927693Y-111681942D01*
X175927693Y-111681942D02*
X175880074Y-111777180D01*
X175880074Y-111777180D02*
X175832455Y-111824800D01*
X175832455Y-111824800D02*
X175737217Y-111872419D01*
X175737217Y-111872419D02*
X175451503Y-111872419D01*
X175451503Y-111872419D02*
X175356265Y-111824800D01*
X175356265Y-111824800D02*
X175308646Y-111777180D01*
X176213408Y-110872419D02*
X176546741Y-111872419D01*
X176546741Y-111872419D02*
X176880074Y-110872419D01*
X177118170Y-110872419D02*
X177737217Y-110872419D01*
X177737217Y-110872419D02*
X177403884Y-111253371D01*
X177403884Y-111253371D02*
X177546741Y-111253371D01*
X177546741Y-111253371D02*
X177641979Y-111300990D01*
X177641979Y-111300990D02*
X177689598Y-111348609D01*
X177689598Y-111348609D02*
X177737217Y-111443847D01*
X177737217Y-111443847D02*
X177737217Y-111681942D01*
X177737217Y-111681942D02*
X177689598Y-111777180D01*
X177689598Y-111777180D02*
X177641979Y-111824800D01*
X177641979Y-111824800D02*
X177546741Y-111872419D01*
X177546741Y-111872419D02*
X177261027Y-111872419D01*
X177261027Y-111872419D02*
X177165789Y-111824800D01*
X177165789Y-111824800D02*
X177118170Y-111777180D01*
X137080074Y-105872419D02*
X136603884Y-105872419D01*
X136603884Y-105872419D02*
X136556265Y-106348609D01*
X136556265Y-106348609D02*
X136603884Y-106300990D01*
X136603884Y-106300990D02*
X136699122Y-106253371D01*
X136699122Y-106253371D02*
X136937217Y-106253371D01*
X136937217Y-106253371D02*
X137032455Y-106300990D01*
X137032455Y-106300990D02*
X137080074Y-106348609D01*
X137080074Y-106348609D02*
X137127693Y-106443847D01*
X137127693Y-106443847D02*
X137127693Y-106681942D01*
X137127693Y-106681942D02*
X137080074Y-106777180D01*
X137080074Y-106777180D02*
X137032455Y-106824800D01*
X137032455Y-106824800D02*
X136937217Y-106872419D01*
X136937217Y-106872419D02*
X136699122Y-106872419D01*
X136699122Y-106872419D02*
X136603884Y-106824800D01*
X136603884Y-106824800D02*
X136556265Y-106777180D01*
X137413408Y-105872419D02*
X137746741Y-106872419D01*
X137746741Y-106872419D02*
X138080074Y-105872419D01*
X175808646Y-91872419D02*
X176427693Y-91872419D01*
X176427693Y-91872419D02*
X176094360Y-92253371D01*
X176094360Y-92253371D02*
X176237217Y-92253371D01*
X176237217Y-92253371D02*
X176332455Y-92300990D01*
X176332455Y-92300990D02*
X176380074Y-92348609D01*
X176380074Y-92348609D02*
X176427693Y-92443847D01*
X176427693Y-92443847D02*
X176427693Y-92681942D01*
X176427693Y-92681942D02*
X176380074Y-92777180D01*
X176380074Y-92777180D02*
X176332455Y-92824800D01*
X176332455Y-92824800D02*
X176237217Y-92872419D01*
X176237217Y-92872419D02*
X175951503Y-92872419D01*
X175951503Y-92872419D02*
X175856265Y-92824800D01*
X175856265Y-92824800D02*
X175808646Y-92777180D01*
X176713408Y-91872419D02*
X177046741Y-92872419D01*
X177046741Y-92872419D02*
X177380074Y-91872419D01*
X177618170Y-91872419D02*
X178237217Y-91872419D01*
X178237217Y-91872419D02*
X177903884Y-92253371D01*
X177903884Y-92253371D02*
X178046741Y-92253371D01*
X178046741Y-92253371D02*
X178141979Y-92300990D01*
X178141979Y-92300990D02*
X178189598Y-92348609D01*
X178189598Y-92348609D02*
X178237217Y-92443847D01*
X178237217Y-92443847D02*
X178237217Y-92681942D01*
X178237217Y-92681942D02*
X178189598Y-92777180D01*
X178189598Y-92777180D02*
X178141979Y-92824800D01*
X178141979Y-92824800D02*
X178046741Y-92872419D01*
X178046741Y-92872419D02*
X177761027Y-92872419D01*
X177761027Y-92872419D02*
X177665789Y-92824800D01*
X177665789Y-92824800D02*
X177618170Y-92777180D01*
X169227693Y-78920038D02*
X169132455Y-78872419D01*
X169132455Y-78872419D02*
X168989598Y-78872419D01*
X168989598Y-78872419D02*
X168846741Y-78920038D01*
X168846741Y-78920038D02*
X168751503Y-79015276D01*
X168751503Y-79015276D02*
X168703884Y-79110514D01*
X168703884Y-79110514D02*
X168656265Y-79300990D01*
X168656265Y-79300990D02*
X168656265Y-79443847D01*
X168656265Y-79443847D02*
X168703884Y-79634323D01*
X168703884Y-79634323D02*
X168751503Y-79729561D01*
X168751503Y-79729561D02*
X168846741Y-79824800D01*
X168846741Y-79824800D02*
X168989598Y-79872419D01*
X168989598Y-79872419D02*
X169084836Y-79872419D01*
X169084836Y-79872419D02*
X169227693Y-79824800D01*
X169227693Y-79824800D02*
X169275312Y-79777180D01*
X169275312Y-79777180D02*
X169275312Y-79443847D01*
X169275312Y-79443847D02*
X169084836Y-79443847D01*
X169703884Y-79872419D02*
X169703884Y-78872419D01*
X169703884Y-78872419D02*
X170275312Y-79872419D01*
X170275312Y-79872419D02*
X170275312Y-78872419D01*
X170751503Y-79872419D02*
X170751503Y-78872419D01*
X170751503Y-78872419D02*
X170989598Y-78872419D01*
X170989598Y-78872419D02*
X171132455Y-78920038D01*
X171132455Y-78920038D02*
X171227693Y-79015276D01*
X171227693Y-79015276D02*
X171275312Y-79110514D01*
X171275312Y-79110514D02*
X171322931Y-79300990D01*
X171322931Y-79300990D02*
X171322931Y-79443847D01*
X171322931Y-79443847D02*
X171275312Y-79634323D01*
X171275312Y-79634323D02*
X171227693Y-79729561D01*
X171227693Y-79729561D02*
X171132455Y-79824800D01*
X171132455Y-79824800D02*
X170989598Y-79872419D01*
X170989598Y-79872419D02*
X170751503Y-79872419D01*
X176780074Y-104872419D02*
X176303884Y-104872419D01*
X176303884Y-104872419D02*
X176256265Y-105348609D01*
X176256265Y-105348609D02*
X176303884Y-105300990D01*
X176303884Y-105300990D02*
X176399122Y-105253371D01*
X176399122Y-105253371D02*
X176637217Y-105253371D01*
X176637217Y-105253371D02*
X176732455Y-105300990D01*
X176732455Y-105300990D02*
X176780074Y-105348609D01*
X176780074Y-105348609D02*
X176827693Y-105443847D01*
X176827693Y-105443847D02*
X176827693Y-105681942D01*
X176827693Y-105681942D02*
X176780074Y-105777180D01*
X176780074Y-105777180D02*
X176732455Y-105824800D01*
X176732455Y-105824800D02*
X176637217Y-105872419D01*
X176637217Y-105872419D02*
X176399122Y-105872419D01*
X176399122Y-105872419D02*
X176303884Y-105824800D01*
X176303884Y-105824800D02*
X176256265Y-105777180D01*
X177113408Y-104872419D02*
X177446741Y-105872419D01*
X177446741Y-105872419D02*
X177780074Y-104872419D01*
X131027693Y-87120038D02*
X130932455Y-87072419D01*
X130932455Y-87072419D02*
X130789598Y-87072419D01*
X130789598Y-87072419D02*
X130646741Y-87120038D01*
X130646741Y-87120038D02*
X130551503Y-87215276D01*
X130551503Y-87215276D02*
X130503884Y-87310514D01*
X130503884Y-87310514D02*
X130456265Y-87500990D01*
X130456265Y-87500990D02*
X130456265Y-87643847D01*
X130456265Y-87643847D02*
X130503884Y-87834323D01*
X130503884Y-87834323D02*
X130551503Y-87929561D01*
X130551503Y-87929561D02*
X130646741Y-88024800D01*
X130646741Y-88024800D02*
X130789598Y-88072419D01*
X130789598Y-88072419D02*
X130884836Y-88072419D01*
X130884836Y-88072419D02*
X131027693Y-88024800D01*
X131027693Y-88024800D02*
X131075312Y-87977180D01*
X131075312Y-87977180D02*
X131075312Y-87643847D01*
X131075312Y-87643847D02*
X130884836Y-87643847D01*
X131503884Y-88072419D02*
X131503884Y-87072419D01*
X131503884Y-87072419D02*
X132075312Y-88072419D01*
X132075312Y-88072419D02*
X132075312Y-87072419D01*
X132551503Y-88072419D02*
X132551503Y-87072419D01*
X132551503Y-87072419D02*
X132789598Y-87072419D01*
X132789598Y-87072419D02*
X132932455Y-87120038D01*
X132932455Y-87120038D02*
X133027693Y-87215276D01*
X133027693Y-87215276D02*
X133075312Y-87310514D01*
X133075312Y-87310514D02*
X133122931Y-87500990D01*
X133122931Y-87500990D02*
X133122931Y-87643847D01*
X133122931Y-87643847D02*
X133075312Y-87834323D01*
X133075312Y-87834323D02*
X133027693Y-87929561D01*
X133027693Y-87929561D02*
X132932455Y-88024800D01*
X132932455Y-88024800D02*
X132789598Y-88072419D01*
X132789598Y-88072419D02*
X132551503Y-88072419D01*
X105627693Y-126320038D02*
X105532455Y-126272419D01*
X105532455Y-126272419D02*
X105389598Y-126272419D01*
X105389598Y-126272419D02*
X105246741Y-126320038D01*
X105246741Y-126320038D02*
X105151503Y-126415276D01*
X105151503Y-126415276D02*
X105103884Y-126510514D01*
X105103884Y-126510514D02*
X105056265Y-126700990D01*
X105056265Y-126700990D02*
X105056265Y-126843847D01*
X105056265Y-126843847D02*
X105103884Y-127034323D01*
X105103884Y-127034323D02*
X105151503Y-127129561D01*
X105151503Y-127129561D02*
X105246741Y-127224800D01*
X105246741Y-127224800D02*
X105389598Y-127272419D01*
X105389598Y-127272419D02*
X105484836Y-127272419D01*
X105484836Y-127272419D02*
X105627693Y-127224800D01*
X105627693Y-127224800D02*
X105675312Y-127177180D01*
X105675312Y-127177180D02*
X105675312Y-126843847D01*
X105675312Y-126843847D02*
X105484836Y-126843847D01*
X106103884Y-127272419D02*
X106103884Y-126272419D01*
X106103884Y-126272419D02*
X106675312Y-127272419D01*
X106675312Y-127272419D02*
X106675312Y-126272419D01*
X107151503Y-127272419D02*
X107151503Y-126272419D01*
X107151503Y-126272419D02*
X107389598Y-126272419D01*
X107389598Y-126272419D02*
X107532455Y-126320038D01*
X107532455Y-126320038D02*
X107627693Y-126415276D01*
X107627693Y-126415276D02*
X107675312Y-126510514D01*
X107675312Y-126510514D02*
X107722931Y-126700990D01*
X107722931Y-126700990D02*
X107722931Y-126843847D01*
X107722931Y-126843847D02*
X107675312Y-127034323D01*
X107675312Y-127034323D02*
X107627693Y-127129561D01*
X107627693Y-127129561D02*
X107532455Y-127224800D01*
X107532455Y-127224800D02*
X107389598Y-127272419D01*
X107389598Y-127272419D02*
X107151503Y-127272419D01*
X136427693Y-118620038D02*
X136332455Y-118572419D01*
X136332455Y-118572419D02*
X136189598Y-118572419D01*
X136189598Y-118572419D02*
X136046741Y-118620038D01*
X136046741Y-118620038D02*
X135951503Y-118715276D01*
X135951503Y-118715276D02*
X135903884Y-118810514D01*
X135903884Y-118810514D02*
X135856265Y-119000990D01*
X135856265Y-119000990D02*
X135856265Y-119143847D01*
X135856265Y-119143847D02*
X135903884Y-119334323D01*
X135903884Y-119334323D02*
X135951503Y-119429561D01*
X135951503Y-119429561D02*
X136046741Y-119524800D01*
X136046741Y-119524800D02*
X136189598Y-119572419D01*
X136189598Y-119572419D02*
X136284836Y-119572419D01*
X136284836Y-119572419D02*
X136427693Y-119524800D01*
X136427693Y-119524800D02*
X136475312Y-119477180D01*
X136475312Y-119477180D02*
X136475312Y-119143847D01*
X136475312Y-119143847D02*
X136284836Y-119143847D01*
X136903884Y-119572419D02*
X136903884Y-118572419D01*
X136903884Y-118572419D02*
X137475312Y-119572419D01*
X137475312Y-119572419D02*
X137475312Y-118572419D01*
X137951503Y-119572419D02*
X137951503Y-118572419D01*
X137951503Y-118572419D02*
X138189598Y-118572419D01*
X138189598Y-118572419D02*
X138332455Y-118620038D01*
X138332455Y-118620038D02*
X138427693Y-118715276D01*
X138427693Y-118715276D02*
X138475312Y-118810514D01*
X138475312Y-118810514D02*
X138522931Y-119000990D01*
X138522931Y-119000990D02*
X138522931Y-119143847D01*
X138522931Y-119143847D02*
X138475312Y-119334323D01*
X138475312Y-119334323D02*
X138427693Y-119429561D01*
X138427693Y-119429561D02*
X138332455Y-119524800D01*
X138332455Y-119524800D02*
X138189598Y-119572419D01*
X138189598Y-119572419D02*
X137951503Y-119572419D01*
X107727693Y-112172419D02*
X107156265Y-112172419D01*
X107441979Y-112172419D02*
X107441979Y-111172419D01*
X107441979Y-111172419D02*
X107346741Y-111315276D01*
X107346741Y-111315276D02*
X107251503Y-111410514D01*
X107251503Y-111410514D02*
X107156265Y-111458133D01*
X108108646Y-111267657D02*
X108156265Y-111220038D01*
X108156265Y-111220038D02*
X108251503Y-111172419D01*
X108251503Y-111172419D02*
X108489598Y-111172419D01*
X108489598Y-111172419D02*
X108584836Y-111220038D01*
X108584836Y-111220038D02*
X108632455Y-111267657D01*
X108632455Y-111267657D02*
X108680074Y-111362895D01*
X108680074Y-111362895D02*
X108680074Y-111458133D01*
X108680074Y-111458133D02*
X108632455Y-111600990D01*
X108632455Y-111600990D02*
X108061027Y-112172419D01*
X108061027Y-112172419D02*
X108680074Y-112172419D01*
X108965789Y-111172419D02*
X109299122Y-112172419D01*
X109299122Y-112172419D02*
X109632455Y-111172419D01*
D11*
X182544819Y-118483333D02*
X183259104Y-118483333D01*
X183259104Y-118483333D02*
X183401961Y-118530952D01*
X183401961Y-118530952D02*
X183497200Y-118626190D01*
X183497200Y-118626190D02*
X183544819Y-118769047D01*
X183544819Y-118769047D02*
X183544819Y-118864285D01*
X182640057Y-118054761D02*
X182592438Y-118007142D01*
X182592438Y-118007142D02*
X182544819Y-117911904D01*
X182544819Y-117911904D02*
X182544819Y-117673809D01*
X182544819Y-117673809D02*
X182592438Y-117578571D01*
X182592438Y-117578571D02*
X182640057Y-117530952D01*
X182640057Y-117530952D02*
X182735295Y-117483333D01*
X182735295Y-117483333D02*
X182830533Y-117483333D01*
X182830533Y-117483333D02*
X182973390Y-117530952D01*
X182973390Y-117530952D02*
X183544819Y-118102380D01*
X183544819Y-118102380D02*
X183544819Y-117483333D01*
X127533333Y-100784819D02*
X127200000Y-100308628D01*
X126961905Y-100784819D02*
X126961905Y-99784819D01*
X126961905Y-99784819D02*
X127342857Y-99784819D01*
X127342857Y-99784819D02*
X127438095Y-99832438D01*
X127438095Y-99832438D02*
X127485714Y-99880057D01*
X127485714Y-99880057D02*
X127533333Y-99975295D01*
X127533333Y-99975295D02*
X127533333Y-100118152D01*
X127533333Y-100118152D02*
X127485714Y-100213390D01*
X127485714Y-100213390D02*
X127438095Y-100261009D01*
X127438095Y-100261009D02*
X127342857Y-100308628D01*
X127342857Y-100308628D02*
X126961905Y-100308628D01*
X127914286Y-99880057D02*
X127961905Y-99832438D01*
X127961905Y-99832438D02*
X128057143Y-99784819D01*
X128057143Y-99784819D02*
X128295238Y-99784819D01*
X128295238Y-99784819D02*
X128390476Y-99832438D01*
X128390476Y-99832438D02*
X128438095Y-99880057D01*
X128438095Y-99880057D02*
X128485714Y-99975295D01*
X128485714Y-99975295D02*
X128485714Y-100070533D01*
X128485714Y-100070533D02*
X128438095Y-100213390D01*
X128438095Y-100213390D02*
X127866667Y-100784819D01*
X127866667Y-100784819D02*
X128485714Y-100784819D01*
X182544819Y-89983333D02*
X183259104Y-89983333D01*
X183259104Y-89983333D02*
X183401961Y-90030952D01*
X183401961Y-90030952D02*
X183497200Y-90126190D01*
X183497200Y-90126190D02*
X183544819Y-90269047D01*
X183544819Y-90269047D02*
X183544819Y-90364285D01*
X182973390Y-89364285D02*
X182925771Y-89459523D01*
X182925771Y-89459523D02*
X182878152Y-89507142D01*
X182878152Y-89507142D02*
X182782914Y-89554761D01*
X182782914Y-89554761D02*
X182735295Y-89554761D01*
X182735295Y-89554761D02*
X182640057Y-89507142D01*
X182640057Y-89507142D02*
X182592438Y-89459523D01*
X182592438Y-89459523D02*
X182544819Y-89364285D01*
X182544819Y-89364285D02*
X182544819Y-89173809D01*
X182544819Y-89173809D02*
X182592438Y-89078571D01*
X182592438Y-89078571D02*
X182640057Y-89030952D01*
X182640057Y-89030952D02*
X182735295Y-88983333D01*
X182735295Y-88983333D02*
X182782914Y-88983333D01*
X182782914Y-88983333D02*
X182878152Y-89030952D01*
X182878152Y-89030952D02*
X182925771Y-89078571D01*
X182925771Y-89078571D02*
X182973390Y-89173809D01*
X182973390Y-89173809D02*
X182973390Y-89364285D01*
X182973390Y-89364285D02*
X183021009Y-89459523D01*
X183021009Y-89459523D02*
X183068628Y-89507142D01*
X183068628Y-89507142D02*
X183163866Y-89554761D01*
X183163866Y-89554761D02*
X183354342Y-89554761D01*
X183354342Y-89554761D02*
X183449580Y-89507142D01*
X183449580Y-89507142D02*
X183497200Y-89459523D01*
X183497200Y-89459523D02*
X183544819Y-89364285D01*
X183544819Y-89364285D02*
X183544819Y-89173809D01*
X183544819Y-89173809D02*
X183497200Y-89078571D01*
X183497200Y-89078571D02*
X183449580Y-89030952D01*
X183449580Y-89030952D02*
X183354342Y-88983333D01*
X183354342Y-88983333D02*
X183163866Y-88983333D01*
X183163866Y-88983333D02*
X183068628Y-89030952D01*
X183068628Y-89030952D02*
X183021009Y-89078571D01*
X183021009Y-89078571D02*
X182973390Y-89173809D01*
X127533333Y-95884819D02*
X127200000Y-95408628D01*
X126961905Y-95884819D02*
X126961905Y-94884819D01*
X126961905Y-94884819D02*
X127342857Y-94884819D01*
X127342857Y-94884819D02*
X127438095Y-94932438D01*
X127438095Y-94932438D02*
X127485714Y-94980057D01*
X127485714Y-94980057D02*
X127533333Y-95075295D01*
X127533333Y-95075295D02*
X127533333Y-95218152D01*
X127533333Y-95218152D02*
X127485714Y-95313390D01*
X127485714Y-95313390D02*
X127438095Y-95361009D01*
X127438095Y-95361009D02*
X127342857Y-95408628D01*
X127342857Y-95408628D02*
X126961905Y-95408628D01*
X128485714Y-95884819D02*
X127914286Y-95884819D01*
X128200000Y-95884819D02*
X128200000Y-94884819D01*
X128200000Y-94884819D02*
X128104762Y-95027676D01*
X128104762Y-95027676D02*
X128009524Y-95122914D01*
X128009524Y-95122914D02*
X127914286Y-95170533D01*
X182444819Y-99983333D02*
X183159104Y-99983333D01*
X183159104Y-99983333D02*
X183301961Y-100030952D01*
X183301961Y-100030952D02*
X183397200Y-100126190D01*
X183397200Y-100126190D02*
X183444819Y-100269047D01*
X183444819Y-100269047D02*
X183444819Y-100364285D01*
X182444819Y-99078571D02*
X182444819Y-99269047D01*
X182444819Y-99269047D02*
X182492438Y-99364285D01*
X182492438Y-99364285D02*
X182540057Y-99411904D01*
X182540057Y-99411904D02*
X182682914Y-99507142D01*
X182682914Y-99507142D02*
X182873390Y-99554761D01*
X182873390Y-99554761D02*
X183254342Y-99554761D01*
X183254342Y-99554761D02*
X183349580Y-99507142D01*
X183349580Y-99507142D02*
X183397200Y-99459523D01*
X183397200Y-99459523D02*
X183444819Y-99364285D01*
X183444819Y-99364285D02*
X183444819Y-99173809D01*
X183444819Y-99173809D02*
X183397200Y-99078571D01*
X183397200Y-99078571D02*
X183349580Y-99030952D01*
X183349580Y-99030952D02*
X183254342Y-98983333D01*
X183254342Y-98983333D02*
X183016247Y-98983333D01*
X183016247Y-98983333D02*
X182921009Y-99030952D01*
X182921009Y-99030952D02*
X182873390Y-99078571D01*
X182873390Y-99078571D02*
X182825771Y-99173809D01*
X182825771Y-99173809D02*
X182825771Y-99364285D01*
X182825771Y-99364285D02*
X182873390Y-99459523D01*
X182873390Y-99459523D02*
X182921009Y-99507142D01*
X182921009Y-99507142D02*
X183016247Y-99554761D01*
X182544819Y-104633333D02*
X183259104Y-104633333D01*
X183259104Y-104633333D02*
X183401961Y-104680952D01*
X183401961Y-104680952D02*
X183497200Y-104776190D01*
X183497200Y-104776190D02*
X183544819Y-104919047D01*
X183544819Y-104919047D02*
X183544819Y-105014285D01*
X182544819Y-103680952D02*
X182544819Y-104157142D01*
X182544819Y-104157142D02*
X183021009Y-104204761D01*
X183021009Y-104204761D02*
X182973390Y-104157142D01*
X182973390Y-104157142D02*
X182925771Y-104061904D01*
X182925771Y-104061904D02*
X182925771Y-103823809D01*
X182925771Y-103823809D02*
X182973390Y-103728571D01*
X182973390Y-103728571D02*
X183021009Y-103680952D01*
X183021009Y-103680952D02*
X183116247Y-103633333D01*
X183116247Y-103633333D02*
X183354342Y-103633333D01*
X183354342Y-103633333D02*
X183449580Y-103680952D01*
X183449580Y-103680952D02*
X183497200Y-103728571D01*
X183497200Y-103728571D02*
X183544819Y-103823809D01*
X183544819Y-103823809D02*
X183544819Y-104061904D01*
X183544819Y-104061904D02*
X183497200Y-104157142D01*
X183497200Y-104157142D02*
X183449580Y-104204761D01*
X100916666Y-91454819D02*
X101535713Y-91454819D01*
X101535713Y-91454819D02*
X101202380Y-91835771D01*
X101202380Y-91835771D02*
X101345237Y-91835771D01*
X101345237Y-91835771D02*
X101440475Y-91883390D01*
X101440475Y-91883390D02*
X101488094Y-91931009D01*
X101488094Y-91931009D02*
X101535713Y-92026247D01*
X101535713Y-92026247D02*
X101535713Y-92264342D01*
X101535713Y-92264342D02*
X101488094Y-92359580D01*
X101488094Y-92359580D02*
X101440475Y-92407200D01*
X101440475Y-92407200D02*
X101345237Y-92454819D01*
X101345237Y-92454819D02*
X101059523Y-92454819D01*
X101059523Y-92454819D02*
X100964285Y-92407200D01*
X100964285Y-92407200D02*
X100916666Y-92359580D01*
X101916666Y-92407200D02*
X102059523Y-92454819D01*
X102059523Y-92454819D02*
X102297618Y-92454819D01*
X102297618Y-92454819D02*
X102392856Y-92407200D01*
X102392856Y-92407200D02*
X102440475Y-92359580D01*
X102440475Y-92359580D02*
X102488094Y-92264342D01*
X102488094Y-92264342D02*
X102488094Y-92169104D01*
X102488094Y-92169104D02*
X102440475Y-92073866D01*
X102440475Y-92073866D02*
X102392856Y-92026247D01*
X102392856Y-92026247D02*
X102297618Y-91978628D01*
X102297618Y-91978628D02*
X102107142Y-91931009D01*
X102107142Y-91931009D02*
X102011904Y-91883390D01*
X102011904Y-91883390D02*
X101964285Y-91835771D01*
X101964285Y-91835771D02*
X101916666Y-91740533D01*
X101916666Y-91740533D02*
X101916666Y-91645295D01*
X101916666Y-91645295D02*
X101964285Y-91550057D01*
X101964285Y-91550057D02*
X102011904Y-91502438D01*
X102011904Y-91502438D02*
X102107142Y-91454819D01*
X102107142Y-91454819D02*
X102345237Y-91454819D01*
X102345237Y-91454819D02*
X102488094Y-91502438D01*
X104011904Y-91931009D02*
X104154761Y-91978628D01*
X104154761Y-91978628D02*
X104202380Y-92026247D01*
X104202380Y-92026247D02*
X104249999Y-92121485D01*
X104249999Y-92121485D02*
X104249999Y-92264342D01*
X104249999Y-92264342D02*
X104202380Y-92359580D01*
X104202380Y-92359580D02*
X104154761Y-92407200D01*
X104154761Y-92407200D02*
X104059523Y-92454819D01*
X104059523Y-92454819D02*
X103678571Y-92454819D01*
X103678571Y-92454819D02*
X103678571Y-91454819D01*
X103678571Y-91454819D02*
X104011904Y-91454819D01*
X104011904Y-91454819D02*
X104107142Y-91502438D01*
X104107142Y-91502438D02*
X104154761Y-91550057D01*
X104154761Y-91550057D02*
X104202380Y-91645295D01*
X104202380Y-91645295D02*
X104202380Y-91740533D01*
X104202380Y-91740533D02*
X104154761Y-91835771D01*
X104154761Y-91835771D02*
X104107142Y-91883390D01*
X104107142Y-91883390D02*
X104011904Y-91931009D01*
X104011904Y-91931009D02*
X103678571Y-91931009D01*
X105107142Y-92454819D02*
X105107142Y-91931009D01*
X105107142Y-91931009D02*
X105059523Y-91835771D01*
X105059523Y-91835771D02*
X104964285Y-91788152D01*
X104964285Y-91788152D02*
X104773809Y-91788152D01*
X104773809Y-91788152D02*
X104678571Y-91835771D01*
X105107142Y-92407200D02*
X105011904Y-92454819D01*
X105011904Y-92454819D02*
X104773809Y-92454819D01*
X104773809Y-92454819D02*
X104678571Y-92407200D01*
X104678571Y-92407200D02*
X104630952Y-92311961D01*
X104630952Y-92311961D02*
X104630952Y-92216723D01*
X104630952Y-92216723D02*
X104678571Y-92121485D01*
X104678571Y-92121485D02*
X104773809Y-92073866D01*
X104773809Y-92073866D02*
X105011904Y-92073866D01*
X105011904Y-92073866D02*
X105107142Y-92026247D01*
X105440476Y-91788152D02*
X105821428Y-91788152D01*
X105583333Y-91454819D02*
X105583333Y-92311961D01*
X105583333Y-92311961D02*
X105630952Y-92407200D01*
X105630952Y-92407200D02*
X105726190Y-92454819D01*
X105726190Y-92454819D02*
X105821428Y-92454819D01*
X106011905Y-91788152D02*
X106392857Y-91788152D01*
X106154762Y-91454819D02*
X106154762Y-92311961D01*
X106154762Y-92311961D02*
X106202381Y-92407200D01*
X106202381Y-92407200D02*
X106297619Y-92454819D01*
X106297619Y-92454819D02*
X106392857Y-92454819D01*
X107107143Y-92407200D02*
X107011905Y-92454819D01*
X107011905Y-92454819D02*
X106821429Y-92454819D01*
X106821429Y-92454819D02*
X106726191Y-92407200D01*
X106726191Y-92407200D02*
X106678572Y-92311961D01*
X106678572Y-92311961D02*
X106678572Y-91931009D01*
X106678572Y-91931009D02*
X106726191Y-91835771D01*
X106726191Y-91835771D02*
X106821429Y-91788152D01*
X106821429Y-91788152D02*
X107011905Y-91788152D01*
X107011905Y-91788152D02*
X107107143Y-91835771D01*
X107107143Y-91835771D02*
X107154762Y-91931009D01*
X107154762Y-91931009D02*
X107154762Y-92026247D01*
X107154762Y-92026247D02*
X106678572Y-92121485D01*
X107583334Y-92454819D02*
X107583334Y-91788152D01*
X107583334Y-91978628D02*
X107630953Y-91883390D01*
X107630953Y-91883390D02*
X107678572Y-91835771D01*
X107678572Y-91835771D02*
X107773810Y-91788152D01*
X107773810Y-91788152D02*
X107869048Y-91788152D01*
X108107144Y-91788152D02*
X108345239Y-92454819D01*
X108583334Y-91788152D02*
X108345239Y-92454819D01*
X108345239Y-92454819D02*
X108250001Y-92692914D01*
X108250001Y-92692914D02*
X108202382Y-92740533D01*
X108202382Y-92740533D02*
X108107144Y-92788152D01*
X182544819Y-123083333D02*
X183259104Y-123083333D01*
X183259104Y-123083333D02*
X183401961Y-123130952D01*
X183401961Y-123130952D02*
X183497200Y-123226190D01*
X183497200Y-123226190D02*
X183544819Y-123369047D01*
X183544819Y-123369047D02*
X183544819Y-123464285D01*
X183544819Y-122083333D02*
X183544819Y-122654761D01*
X183544819Y-122369047D02*
X182544819Y-122369047D01*
X182544819Y-122369047D02*
X182687676Y-122464285D01*
X182687676Y-122464285D02*
X182782914Y-122559523D01*
X182782914Y-122559523D02*
X182830533Y-122654761D01*
X182444819Y-114083333D02*
X183159104Y-114083333D01*
X183159104Y-114083333D02*
X183301961Y-114130952D01*
X183301961Y-114130952D02*
X183397200Y-114226190D01*
X183397200Y-114226190D02*
X183444819Y-114369047D01*
X183444819Y-114369047D02*
X183444819Y-114464285D01*
X182444819Y-113702380D02*
X182444819Y-113083333D01*
X182444819Y-113083333D02*
X182825771Y-113416666D01*
X182825771Y-113416666D02*
X182825771Y-113273809D01*
X182825771Y-113273809D02*
X182873390Y-113178571D01*
X182873390Y-113178571D02*
X182921009Y-113130952D01*
X182921009Y-113130952D02*
X183016247Y-113083333D01*
X183016247Y-113083333D02*
X183254342Y-113083333D01*
X183254342Y-113083333D02*
X183349580Y-113130952D01*
X183349580Y-113130952D02*
X183397200Y-113178571D01*
X183397200Y-113178571D02*
X183444819Y-113273809D01*
X183444819Y-113273809D02*
X183444819Y-113559523D01*
X183444819Y-113559523D02*
X183397200Y-113654761D01*
X183397200Y-113654761D02*
X183349580Y-113702380D01*
X182444819Y-109483333D02*
X183159104Y-109483333D01*
X183159104Y-109483333D02*
X183301961Y-109530952D01*
X183301961Y-109530952D02*
X183397200Y-109626190D01*
X183397200Y-109626190D02*
X183444819Y-109769047D01*
X183444819Y-109769047D02*
X183444819Y-109864285D01*
X182778152Y-108578571D02*
X183444819Y-108578571D01*
X182397200Y-108816666D02*
X183111485Y-109054761D01*
X183111485Y-109054761D02*
X183111485Y-108435714D01*
X182444819Y-95183333D02*
X183159104Y-95183333D01*
X183159104Y-95183333D02*
X183301961Y-95230952D01*
X183301961Y-95230952D02*
X183397200Y-95326190D01*
X183397200Y-95326190D02*
X183444819Y-95469047D01*
X183444819Y-95469047D02*
X183444819Y-95564285D01*
X182444819Y-94802380D02*
X182444819Y-94135714D01*
X182444819Y-94135714D02*
X183444819Y-94564285D01*
X184134819Y-80866666D02*
X183658628Y-81199999D01*
X184134819Y-81438094D02*
X183134819Y-81438094D01*
X183134819Y-81438094D02*
X183134819Y-81057142D01*
X183134819Y-81057142D02*
X183182438Y-80961904D01*
X183182438Y-80961904D02*
X183230057Y-80914285D01*
X183230057Y-80914285D02*
X183325295Y-80866666D01*
X183325295Y-80866666D02*
X183468152Y-80866666D01*
X183468152Y-80866666D02*
X183563390Y-80914285D01*
X183563390Y-80914285D02*
X183611009Y-80961904D01*
X183611009Y-80961904D02*
X183658628Y-81057142D01*
X183658628Y-81057142D02*
X183658628Y-81438094D01*
X183134819Y-80533332D02*
X183134819Y-79914285D01*
X183134819Y-79914285D02*
X183515771Y-80247618D01*
X183515771Y-80247618D02*
X183515771Y-80104761D01*
X183515771Y-80104761D02*
X183563390Y-80009523D01*
X183563390Y-80009523D02*
X183611009Y-79961904D01*
X183611009Y-79961904D02*
X183706247Y-79914285D01*
X183706247Y-79914285D02*
X183944342Y-79914285D01*
X183944342Y-79914285D02*
X184039580Y-79961904D01*
X184039580Y-79961904D02*
X184087200Y-80009523D01*
X184087200Y-80009523D02*
X184134819Y-80104761D01*
X184134819Y-80104761D02*
X184134819Y-80390475D01*
X184134819Y-80390475D02*
X184087200Y-80485713D01*
X184087200Y-80485713D02*
X184039580Y-80533332D01*
D12*
%TO.C,J2*%
X184090000Y-119480000D02*
X184090000Y-118150000D01*
X185420000Y-119480000D02*
X184090000Y-119480000D01*
X186690000Y-116820000D02*
X191830000Y-116820000D01*
X186690000Y-119480000D02*
X186690000Y-116820000D01*
X186690000Y-119480000D02*
X191830000Y-119480000D01*
X191830000Y-119480000D02*
X191830000Y-116820000D01*
%TO.C,SW1*%
X112302631Y-100690000D02*
X113897369Y-100690000D01*
X112302631Y-105110000D02*
X113897369Y-105110000D01*
%TO.C,R2*%
X123660000Y-102700000D02*
X124430000Y-102700000D01*
X124430000Y-101330000D02*
X124430000Y-104070000D01*
X124430000Y-104070000D02*
X130970000Y-104070000D01*
X130970000Y-101330000D02*
X124430000Y-101330000D01*
X130970000Y-104070000D02*
X130970000Y-101330000D01*
X131740000Y-102700000D02*
X130970000Y-102700000D01*
%TO.C,U5*%
X162320000Y-107870000D02*
X162320000Y-110530000D01*
X162340000Y-120870000D02*
X162340000Y-123530000D01*
X175080000Y-107870000D02*
X162320000Y-107870000D01*
X175080000Y-107870000D02*
X175080000Y-110530000D01*
X175080000Y-110530000D02*
X162320000Y-110530000D01*
X175100000Y-120870000D02*
X162340000Y-120870000D01*
X175100000Y-120870000D02*
X175100000Y-123530000D01*
X175100000Y-123530000D02*
X162340000Y-123530000D01*
X176350000Y-107870000D02*
X177680000Y-107870000D01*
X176370000Y-120870000D02*
X177700000Y-120870000D01*
X177680000Y-107870000D02*
X177680000Y-109200000D01*
X177700000Y-120870000D02*
X177700000Y-122200000D01*
D10*
X179000000Y-107450000D02*
X161000000Y-107450000D01*
X161000000Y-124150000D01*
X179000000Y-124150000D01*
X179000000Y-107450000D01*
%TO.C,BZ1*%
X179500000Y-77500000D02*
G75*
G02*
X167500000Y-77500000I-6000000J0D01*
G01*
X167500000Y-77500000D02*
G75*
G02*
X179500000Y-77500000I6000000J0D01*
G01*
D12*
%TO.C,J8*%
X184090000Y-90980000D02*
X184090000Y-89650000D01*
X185420000Y-90980000D02*
X184090000Y-90980000D01*
X186690000Y-88320000D02*
X191830000Y-88320000D01*
X186690000Y-90980000D02*
X186690000Y-88320000D01*
X186690000Y-90980000D02*
X191830000Y-90980000D01*
X191830000Y-90980000D02*
X191830000Y-88320000D01*
%TO.C,R1*%
X123660000Y-97800000D02*
X124430000Y-97800000D01*
X124430000Y-96430000D02*
X124430000Y-99170000D01*
X124430000Y-99170000D02*
X130970000Y-99170000D01*
X130970000Y-96430000D02*
X124430000Y-96430000D01*
X130970000Y-99170000D02*
X130970000Y-96430000D01*
X131740000Y-97800000D02*
X130970000Y-97800000D01*
%TO.C,J6*%
X183990000Y-100980000D02*
X183990000Y-99650000D01*
X185320000Y-100980000D02*
X183990000Y-100980000D01*
X186590000Y-98320000D02*
X191730000Y-98320000D01*
X186590000Y-100980000D02*
X186590000Y-98320000D01*
X186590000Y-100980000D02*
X191730000Y-100980000D01*
X191730000Y-100980000D02*
X191730000Y-98320000D01*
%TO.C,U7*%
X162570000Y-88170000D02*
X162570000Y-90830000D01*
X162590000Y-101170000D02*
X162590000Y-103830000D01*
X175330000Y-88170000D02*
X162570000Y-88170000D01*
X175330000Y-88170000D02*
X175330000Y-90830000D01*
X175330000Y-90830000D02*
X162570000Y-90830000D01*
X175350000Y-101170000D02*
X162590000Y-101170000D01*
X175350000Y-101170000D02*
X175350000Y-103830000D01*
X175350000Y-103830000D02*
X162590000Y-103830000D01*
X176600000Y-88170000D02*
X177930000Y-88170000D01*
X176620000Y-101170000D02*
X177950000Y-101170000D01*
X177930000Y-88170000D02*
X177930000Y-89500000D01*
X177950000Y-101170000D02*
X177950000Y-102500000D01*
D10*
X179250000Y-87750000D02*
X161250000Y-87750000D01*
X161250000Y-104450000D01*
X179250000Y-104450000D01*
X179250000Y-87750000D01*
D12*
%TO.C,J5*%
X184090000Y-105630000D02*
X184090000Y-104300000D01*
X185420000Y-105630000D02*
X184090000Y-105630000D01*
X186690000Y-102970000D02*
X191830000Y-102970000D01*
X186690000Y-105630000D02*
X186690000Y-102970000D01*
X186690000Y-105630000D02*
X191830000Y-105630000D01*
X191830000Y-105630000D02*
X191830000Y-102970000D01*
%TO.C,BT1*%
X101890000Y-101097369D02*
X101890000Y-99502631D01*
X106310000Y-101097369D02*
X106310000Y-99502631D01*
%TO.C,J1*%
X184090000Y-124080000D02*
X184090000Y-122750000D01*
X185420000Y-124080000D02*
X184090000Y-124080000D01*
X186690000Y-121420000D02*
X191830000Y-121420000D01*
X186690000Y-124080000D02*
X186690000Y-121420000D01*
X186690000Y-124080000D02*
X191830000Y-124080000D01*
X191830000Y-124080000D02*
X191830000Y-121420000D01*
%TO.C,J3*%
X183990000Y-115080000D02*
X183990000Y-113750000D01*
X185320000Y-115080000D02*
X183990000Y-115080000D01*
X186590000Y-112420000D02*
X191730000Y-112420000D01*
X186590000Y-115080000D02*
X186590000Y-112420000D01*
X186590000Y-115080000D02*
X191730000Y-115080000D01*
X191730000Y-115080000D02*
X191730000Y-112420000D01*
%TO.C,U1*%
D10*
X103100000Y-106800000D02*
X133100000Y-106800000D01*
X133100000Y-124800000D01*
X103100000Y-124800000D01*
X103100000Y-106800000D01*
D12*
%TO.C,J4*%
X183990000Y-110480000D02*
X183990000Y-109150000D01*
X185320000Y-110480000D02*
X183990000Y-110480000D01*
X186590000Y-107820000D02*
X191730000Y-107820000D01*
X186590000Y-110480000D02*
X186590000Y-107820000D01*
X186590000Y-110480000D02*
X191730000Y-110480000D01*
X191730000Y-110480000D02*
X191730000Y-107820000D01*
%TO.C,U6*%
X127630000Y-86160000D02*
X127630000Y-75880000D01*
X130230000Y-83560000D02*
X130230000Y-86160000D01*
X130230000Y-86160000D02*
X127630000Y-86160000D01*
X132830000Y-75880000D02*
X127630000Y-75880000D01*
X132830000Y-83560000D02*
X130230000Y-83560000D01*
X132830000Y-83560000D02*
X132830000Y-75880000D01*
X132830000Y-84830000D02*
X132830000Y-86160000D01*
X132830000Y-86160000D02*
X131500000Y-86160000D01*
%TO.C,J7*%
X183990000Y-96180000D02*
X183990000Y-94850000D01*
X185320000Y-96180000D02*
X183990000Y-96180000D01*
X186590000Y-93520000D02*
X191730000Y-93520000D01*
X186590000Y-96180000D02*
X186590000Y-93520000D01*
X186590000Y-96180000D02*
X191730000Y-96180000D01*
X191730000Y-96180000D02*
X191730000Y-93520000D01*
%TO.C,R3*%
X182630000Y-75230000D02*
X182630000Y-81770000D01*
X182630000Y-81770000D02*
X185370000Y-81770000D01*
X184000000Y-74460000D02*
X184000000Y-75230000D01*
X184000000Y-82540000D02*
X184000000Y-81770000D01*
X185370000Y-75230000D02*
X182630000Y-75230000D01*
X185370000Y-81770000D02*
X185370000Y-75230000D01*
%TD*%
M02*
