M48
; DRILL file {KiCad 8.0.2} date 2024-06-16T11:31:09+0800
; FORMAT={-:-/ absolute / metric / decimal}
; #@! TF.CreationDate,2024-06-16T11:31:09+08:00
; #@! TF.GenerationSoftware,Kicad,Pcbnew,8.0.2
; #@! TF.FileFunction,MixedPlating,1,2
FMAT,2
METRIC
; #@! TA.AperFunction,Plated,PTH,ViaDrill
T1C0.300
; #@! TA.AperFunction,Plated,PTH,ComponentDrill
T2C0.762
; #@! TA.AperFunction,Plated,PTH,ComponentDrill
T3C0.800
; #@! TA.AperFunction,Plated,PTH,ComponentDrill
T4C0.900
; #@! TA.AperFunction,Plated,PTH,ComponentDrill
T5C1.000
%
G90
G05
T1
X101.1Y-118.4
X101.25Y-95.0
X103.25Y-126.0
X106.75Y-125.25
X107.25Y-119.0
X107.25Y-122.25
X107.5Y-95.75
X120.1Y-96.1
X132.7Y-90.6
X132.75Y-118.0
X134.25Y-94.25
X134.5Y-91.5
X135.25Y-118.0
X136.0Y-91.5
X136.1Y-90.6
X137.0Y-124.5
X137.75Y-95.75
X180.2Y-105.5
X180.5Y-91.5
X180.6Y-98.9
T2
X170.25Y-77.5
X176.75Y-77.5
T3
X122.62Y-97.8
X122.62Y-102.7
X132.78Y-97.8
X132.78Y-102.7
X184.0Y-73.42
X184.0Y-83.58
T4
X140.01Y-74.44
X140.01Y-76.98
X140.01Y-79.52
X140.01Y-82.06
X140.01Y-84.6
X140.01Y-87.14
X140.01Y-89.68
X140.01Y-92.22
X140.01Y-94.76
X140.01Y-97.3
X140.01Y-99.84
X140.01Y-102.38
X140.01Y-104.92
X140.01Y-107.46
X140.01Y-110.0
X140.01Y-112.54
X140.01Y-115.08
X140.01Y-117.62
X140.01Y-120.16
X140.01Y-122.7
X155.25Y-74.44
X155.25Y-76.98
X155.25Y-79.52
X155.25Y-82.06
X155.25Y-84.6
X155.25Y-87.14
X155.25Y-89.68
X155.25Y-92.22
X155.25Y-94.76
X155.25Y-97.3
X155.25Y-99.84
X155.25Y-102.38
X155.25Y-104.92
X155.25Y-107.46
X155.25Y-110.0
X155.25Y-112.54
X155.25Y-115.08
X155.25Y-117.62
X155.25Y-120.16
X155.25Y-122.7
T5
X128.96Y-77.21
X128.96Y-79.75
X128.96Y-82.29
X128.96Y-84.83
X131.5Y-77.21
X131.5Y-79.75
X131.5Y-82.29
X131.5Y-84.83
X163.65Y-109.2
X163.67Y-122.2
X163.9Y-89.5
X163.92Y-102.5
X166.19Y-109.2
X166.21Y-122.2
X166.44Y-89.5
X166.46Y-102.5
X168.73Y-109.2
X168.75Y-122.2
X168.98Y-89.5
X169.0Y-102.5
X171.27Y-109.2
X171.29Y-122.2
X171.52Y-89.5
X171.54Y-102.5
X173.81Y-109.2
X173.83Y-122.2
X174.06Y-89.5
X174.08Y-102.5
X176.35Y-109.2
X176.37Y-122.2
X176.6Y-89.5
X176.62Y-102.5
X185.32Y-94.85
X185.32Y-99.65
X185.32Y-109.15
X185.32Y-113.75
X185.42Y-89.65
X185.42Y-104.3
X185.42Y-118.15
X185.42Y-122.75
X187.86Y-94.85
X187.86Y-99.65
X187.86Y-109.15
X187.86Y-113.75
X187.96Y-89.65
X187.96Y-104.3
X187.96Y-118.15
X187.96Y-122.75
X190.4Y-94.85
X190.4Y-99.65
X190.4Y-109.15
X190.4Y-113.75
X190.5Y-89.65
X190.5Y-104.3
X190.5Y-118.15
X190.5Y-122.75
M30
