%TF.GenerationSoftware,KiCad,Pcbnew,8.0.2*%
%TF.CreationDate,2024-06-16T11:32:47+08:00*%
%TF.ProjectId,receiver,72656365-6976-4657-922e-6b696361645f,rev?*%
%TF.SameCoordinates,Original*%
%TF.FileFunction,Soldermask,Bot*%
%TF.FilePolarity,Negative*%
%FSLAX46Y46*%
G04 Gerber Fmt 4.6, Leading zero omitted, Abs format (unit mm)*
G04 Created by KiCad (PCBNEW 8.0.2) date 2024-06-16 11:32:47*
%MOMM*%
%LPD*%
G01*
G04 APERTURE LIST*
%ADD10R,1.700000X1.700000*%
%ADD11O,1.700000X1.700000*%
%ADD12C,1.600000*%
%ADD13O,1.600000X1.600000*%
%ADD14C,1.524000*%
G04 APERTURE END LIST*
D10*
%TO.C,J2*%
X185420000Y-118150000D03*
D11*
X187960000Y-118150000D03*
X190500000Y-118150000D03*
%TD*%
D12*
%TO.C,R2*%
X122620000Y-102700000D03*
D13*
X132780000Y-102700000D03*
%TD*%
D10*
%TO.C,U5*%
X176370000Y-122200000D03*
D11*
X173830000Y-122200000D03*
X171290000Y-122200000D03*
X168750000Y-122200000D03*
X166210000Y-122200000D03*
X163670000Y-122200000D03*
X163650000Y-109200000D03*
X166190000Y-109200000D03*
X168730000Y-109200000D03*
X171270000Y-109200000D03*
X173810000Y-109200000D03*
D10*
X176350000Y-109200000D03*
%TD*%
D14*
%TO.C,BZ1*%
X176750000Y-77500000D03*
X170250000Y-77500000D03*
%TD*%
D10*
%TO.C,J8*%
X185420000Y-89650000D03*
D11*
X187960000Y-89650000D03*
X190500000Y-89650000D03*
%TD*%
D12*
%TO.C,R1*%
X122620000Y-97800000D03*
D13*
X132780000Y-97800000D03*
%TD*%
D10*
%TO.C,J6*%
X185320000Y-99650000D03*
D11*
X187860000Y-99650000D03*
X190400000Y-99650000D03*
%TD*%
D14*
%TO.C,U4*%
X140010000Y-122700000D03*
X155250000Y-79520000D03*
X140010000Y-117620000D03*
X140010000Y-120160000D03*
X155250000Y-74440000D03*
X155250000Y-76980000D03*
X155250000Y-82060000D03*
X155250000Y-112540000D03*
X155250000Y-110000000D03*
X155250000Y-107460000D03*
X155250000Y-104920000D03*
X155250000Y-102380000D03*
X155250000Y-99840000D03*
X155250000Y-97300000D03*
X155250000Y-94760000D03*
X140010000Y-84600000D03*
X140010000Y-87140000D03*
X140010000Y-89680000D03*
X140010000Y-92220000D03*
X140010000Y-94760000D03*
X140010000Y-97300000D03*
X155250000Y-92220000D03*
X155250000Y-89680000D03*
X140010000Y-99840000D03*
X140010000Y-102380000D03*
X140010000Y-104920000D03*
X140010000Y-107460000D03*
X140010000Y-110000000D03*
X140010000Y-112540000D03*
X140010000Y-115080000D03*
X155250000Y-87140000D03*
X155250000Y-84600000D03*
X140010000Y-74440000D03*
X140010000Y-76980000D03*
X140010000Y-79520000D03*
X140010000Y-82060000D03*
X155250000Y-120160000D03*
X155250000Y-117620000D03*
X155250000Y-115080000D03*
X155250000Y-122700000D03*
%TD*%
D10*
%TO.C,U7*%
X176620000Y-102500000D03*
D11*
X174080000Y-102500000D03*
X171540000Y-102500000D03*
X169000000Y-102500000D03*
X166460000Y-102500000D03*
X163920000Y-102500000D03*
X163900000Y-89500000D03*
X166440000Y-89500000D03*
X168980000Y-89500000D03*
X171520000Y-89500000D03*
X174060000Y-89500000D03*
D10*
X176600000Y-89500000D03*
%TD*%
%TO.C,J5*%
X185420000Y-104300000D03*
D11*
X187960000Y-104300000D03*
X190500000Y-104300000D03*
%TD*%
D10*
%TO.C,J1*%
X185420000Y-122750000D03*
D11*
X187960000Y-122750000D03*
X190500000Y-122750000D03*
%TD*%
D10*
%TO.C,J3*%
X185320000Y-113750000D03*
D11*
X187860000Y-113750000D03*
X190400000Y-113750000D03*
%TD*%
D10*
%TO.C,J4*%
X185320000Y-109150000D03*
D11*
X187860000Y-109150000D03*
X190400000Y-109150000D03*
%TD*%
D10*
%TO.C,U6*%
X131500000Y-84830000D03*
D11*
X128960000Y-84830000D03*
X131500000Y-82290000D03*
X128960000Y-82290000D03*
X131500000Y-79750000D03*
X128960000Y-79750000D03*
X131500000Y-77210000D03*
X128960000Y-77210000D03*
%TD*%
D10*
%TO.C,J7*%
X185320000Y-94850000D03*
D11*
X187860000Y-94850000D03*
X190400000Y-94850000D03*
%TD*%
D12*
%TO.C,R3*%
X184000000Y-83580000D03*
D13*
X184000000Y-73420000D03*
%TD*%
M02*
